<svg id="icon" xmlns="http://www.w3.org/2000/svg" viewBox="0 0 70 66.11"><defs><style>.cls-1{fill:#0a2f58;}</style></defs><path class="cls-1" d="M508.15,1340.54l7.5,17.83a3,3,0,0,0,2.52,1.81l19.47,1.54a3,3,0,0,1,1.7,5.19l-14.83,12.56a2.93,2.93,0,0,0-1,2.93l4.53,18.78a3,3,0,0,1-4.46,3.21L507,1394.32a3,3,0,0,0-3.12,0l-16.66,10.07a3,3,0,0,1-4.47-3.21l4.53-18.78a2.93,2.93,0,0,0-1-2.93l-14.83-12.56a3,3,0,0,1,1.7-5.19l19.47-1.54a3,3,0,0,0,2.52-1.81l7.5-17.83A3,3,0,0,1,508.15,1340.54Z" transform="translate(-470.39 -1338.72)"/></svg>