<?xml version="1.0" encoding="utf-8"?>
<!-- Generator: Adobe Illustrator 27.5.0, SVG Export Plug-In . SVG Version: 6.00 Build 0)  -->
<svg version="1.1" id="icon" xmlns="http://www.w3.org/2000/svg" xmlns:xlink="http://www.w3.org/1999/xlink" x="0px" y="0px"
	 viewBox="0 0 76 72.1" style="enable-background:new 0 0 76 72.1;" xml:space="preserve">
<style type="text/css">
	.st0{fill:#868C93;}
</style>
<path class="st0" d="M18.2,72.1c-1.3,0-2.5-0.4-3.5-1.2c-1.9-1.4-2.8-3.9-2.3-6.2L16.9,46L2.1,33.5c-2.5-2.2-2.7-6-0.5-8.5
	c1-1.1,2.4-1.9,3.9-2L25,21.5l7.5-17.8C33.4,1.4,35.6,0,38,0l0,0c2.4,0,4.6,1.4,5.5,3.7L51,21.5L70.5,23c3.3,0.2,5.7,3.1,5.5,6.4
	c-0.1,1.6-0.9,3.1-2.1,4.1L59,46l4.5,18.7c0.6,2.3-0.3,4.8-2.3,6.2c-2,1.4-4.6,1.5-6.7,0.3L38,61.2L21.4,71.3
	C20.4,71.8,19.3,72.1,18.2,72.1z M6.1,29l14.7,12.5c1.7,1.4,2.5,3.7,1.9,5.9l-4.5,18.8L34.9,56c1.9-1.2,4.3-1.2,6.2,0l16.7,10.1
	l-4.5-18.7c-0.5-2.2,0.2-4.5,1.9-5.9L69.9,29l-19.4-1.5c-2.2-0.2-4.2-1.6-5-3.6L38,6l0,0l0,0l-7.5,17.8c-0.9,2-2.8,3.4-5,3.6L6.1,29
	z M70.1,29L70.1,29z"/>
</svg>
