<svg id="icon" xmlns="http://www.w3.org/2000/svg" viewBox="0 0 76 72.11"><defs><style>.cls-1{fill:#b3bbc4;}</style></defs><path class="cls-1" d="M369.86,1407.82a6,6,0,0,1-3.55-1.16,5.93,5.93,0,0,1-2.27-6.18l4.53-18.79-14.82-12.49a6,6,0,0,1,3.41-10.47l19.47-1.54,7.49-17.82a6,6,0,0,1,5.53-3.65h0a6,6,0,0,1,5.52,3.65l7.5,17.83,19.46,1.53a5.95,5.95,0,0,1,3.41,10.47l-14.84,12.56,4.55,18.72a5.93,5.93,0,0,1-2.27,6.18,6,6,0,0,1-6.66.29l-16.67-10.06L373,1407A5.93,5.93,0,0,1,369.86,1407.82Zm-12.13-43.12,14.74,12.48a5.93,5.93,0,0,1,1.94,5.92l-4.54,18.78,16.67-10.13a6,6,0,0,1,6.22,0l16.66,10.07-4.53-18.72a5.89,5.89,0,0,1,1.94-5.92l14.73-12.48-19.37-1.53a6,6,0,0,1-5.05-3.64l-7.5-17.83h0v0l-7.48,17.85a6,6,0,0,1-5,3.64Zm64,0h0Z" transform="translate(-351.65 -1335.72)"/></svg>