<?xml version="1.0" encoding="utf-8"?>
<!-- Generator: Adobe Illustrator 26.0.1, SVG Export Plug-In . SVG Version: 6.00 Build 0)  -->
<svg version="1.1" id="레이어_1" xmlns="http://www.w3.org/2000/svg" xmlns:xlink="http://www.w3.org/1999/xlink" x="0px"
	 y="0px" viewBox="0 0 50 50" style="enable-background:new 0 0 50 50;" xml:space="preserve">
<style type="text/css">
	.st0{fill:#686868;}
</style>
<g transform="translate(-0.09 0)">
	<path class="st0" d="M6,21.2c-0.1,0.7-0.6,1.2-1.2,1.1c-0.6-0.2-1-0.8-0.8-1.4c0,0,0,0,0,0c0-0.1,0.1-0.3,0.2-0.4
		c-0.1,0.5,0.2,1,0.6,1.1c0.5,0.1,0.7-0.2,0.8-0.6c0-0.1,0-0.3,0-0.4l-2.5-0.5c-0.3-0.1-0.5-0.1-0.8,0.1l0,0l0.2-1.1l0,0
		c0,0.3,0.5,0.3,0.7,0.4L5.4,20C5.7,20,6,20.1,6.2,19.9l0,0L6,21.2z"/>
	<path class="st0" d="M2.3,24.9c-0.6-0.6-0.6-1.5,0-2.1c0.3-0.2,0.7-0.3,1.1-0.2l1.5,0c0.3,0,0.6,0.1,0.8-0.2l0,0l0,1.1l0,0
		c-0.1-0.3-0.5-0.3-0.8-0.3l-1.5-0.1c-0.7,0-1.1,0.3-1.1,0.8c0,0.3,0.1,0.6,0.4,0.8C2.8,24.9,3,25,3.1,25L4.8,25
		c0.2,0,0.6,0.1,0.8-0.2l0,0l0,1.1l0,0c-0.1-0.3-0.5-0.3-0.8-0.3l-2.1-0.1c-0.2,0-0.6-0.1-0.8,0.2l0,0l0-0.8L2.3,24.9z"/>
	<path class="st0" d="M5.3,28.3c0.2-0.3,0.3-0.6,0.2-0.9c0-0.3-0.2-0.7-0.6-0.6c-0.8,0.1-0.5,2-1.5,2.1c-0.7,0-1.3-0.6-1.3-1.3
		c0-0.3,0-0.7,0-1l0.6-0.2c-0.2,0.4-0.4,0.8-0.3,1.3c0,0.3,0.3,0.8,0.7,0.7c0.9-0.1,0.5-2,1.6-2.1c0.7-0.1,1.1,0.6,1.1,1.3
		c0,0.3,0,0.6,0,0.8L5.3,28.3z"/>
	<path class="st0" d="M4.7,31.1L4.4,30l1.5,0.1L4.7,31.1z M4.3,31.3l-0.7,0.5c-0.3,0.2-0.4,0.3-0.6,0.1l0,0L3.4,33l0,0
		c0.1-0.3,0.3-0.5,0.6-0.7l2.4-1.9l-0.2-0.8l0,0c0,0.3-0.3,0.2-0.5,0.2l-2.5-0.2c-0.3,0-0.7-0.1-0.9-0.3l0,0l0.3,1h0
		c0-0.3,0.2-0.3,0.5-0.3L4,30L4.3,31.3z"/>
	<path class="st0" d="M4.4,33.5c-0.3,0.1-0.5,0.2-0.5,0.6h0l-0.4-0.9l0,0c0.3,0.2,0.5,0.1,0.8,0l2-1c0.3-0.1,0.5-0.2,0.5-0.6l0,0
		l0.4,0.7l0,0c0,0-0.1,0.1-0.1,0.1l-0.1,0.1l-1.4,2.9l1.9-0.9c0.3-0.1,0.5-0.2,0.5-0.6l0,0l0.4,0.9l0,0c-0.3-0.2-0.5-0.1-0.8,0
		l-2.8,1.4c0-0.3,0-0.7,0.2-1l1.4-2.8L4.4,33.5z"/>
	<path class="st0" d="M7.6,38.9c-0.2,0.2-0.4,0.4-0.3,0.7l0,0l-0.6-0.7l0,0c0.3,0.1,0.5,0,0.7-0.2l1.6-1.5c0.2-0.2,0.4-0.4,0.3-0.7
		l0,0l0.6,0.6l0,0c0,0,0,0.1-0.1,0.2v0.1l-0.6,3.2l1.6-1.4c0.2-0.2,0.4-0.3,0.3-0.7l0,0l0.6,0.7l0,0c-0.3-0.1-0.5,0-0.7,0.3
		l-2.3,2.1c-0.1-0.3-0.2-0.7-0.1-1l0.5-3L7.6,38.9z"/>
	<path class="st0" d="M12.2,42l-0.9-0.7l1.3-0.8L12.2,42z M12,42.4l-0.2,0.8c-0.1,0.4-0.1,0.5-0.4,0.4l0,0l0.9,0.7l0,0
		c-0.1-0.3-0.1-0.7,0.1-1l0.8-3l-0.7-0.5l0,0c0.2,0.2-0.1,0.3-0.2,0.5l-2.2,1.3c-0.3,0.2-0.6,0.3-0.9,0.3l0,0l0.8,0.6l0,0
		c-0.1-0.2,0-0.3,0.3-0.5l0.7-0.5L12,42.4z"/>
	<path class="st0" d="M13.9,44.5c-0.2,0.3-0.3,0.5-0.1,0.8l0,0l-1-0.5l0,0c0.3,0,0.5-0.3,0.6-0.5l1.2-2.1l-0.4-0.2
		c-0.2-0.1-0.4-0.2-0.7-0.1l0,0l0.5-0.5l0,0c0,0.1,0.1,0.1,0.2,0.1l0.1,0.1l1.8,1c0.1,0,0.2,0.1,0.2,0.1l0,0L15.9,43l0,0
		c0-0.2-0.1-0.3-0.3-0.4l-0.4-0.2L13.9,44.5z"/>
	<path class="st0" d="M16.6,43.4c0.1-0.2,0.3-0.6,0.1-0.8l0,0l1,0.4l0,0c-0.3,0-0.4,0.4-0.5,0.6l-0.9,1.9c-0.1,0.2-0.3,0.6-0.1,0.8
		l0,0l-1-0.4l0,0c0.3,0,0.4-0.4,0.5-0.6L16.6,43.4z"/>
	<path class="st0" d="M19.7,44c0.8,0.2,1.2,1.1,1,1.8c0,0,0,0.1,0,0.1c-0.2,0.7-0.9,1.2-1.6,1.1c0,0-0.1,0-0.1,0
		c-0.8-0.3-1.2-1.1-1-1.9c0,0,0,0,0,0c0.2-0.7,0.9-1.2,1.7-1.1C19.6,44,19.6,44,19.7,44z M19.8,43.6c-1-0.4-2.2,0.2-2.5,1.2
		c0,0,0,0,0,0.1c-0.3,1,0.3,2.1,1.3,2.4c0,0,0.1,0,0.1,0c1.1,0.3,2.2-0.3,2.5-1.3c0,0,0,0,0,0C21.5,44.9,20.9,43.9,19.8,43.6
		C19.8,43.6,19.8,43.6,19.8,43.6L19.8,43.6z"/>
	<path class="st0" d="M22.2,47.2c0,0.3,0,0.5,0.2,0.7l0,0l-1-0.1l0,0c0.3-0.1,0.3-0.4,0.4-0.7l0.2-2.2c0-0.3,0-0.5-0.2-0.7l0,0
		l0.8,0.1l0,0c0,0.1,0,0.1,0.1,0.1l0.1,0.1l1.9,2.7l0.2-2.1c0-0.3,0-0.5-0.2-0.7l0,0l1,0.1l0,0c-0.3,0.1-0.3,0.4-0.3,0.6l-0.2,3.1
		c-0.3-0.1-0.6-0.4-0.8-0.7L22.3,45L22.2,47.2z"/>
	<path class="st0" d="M27.7,46.2l-1.1,0.1l0.4-1.4L27.7,46.2z M27.9,46.6l0.4,0.7c0.2,0.4,0.2,0.4,0,0.6l0,0l1.1-0.1l0,0
		c-0.3-0.1-0.5-0.4-0.6-0.7l-1.4-2.7l-0.9,0.1l0,0c0.3,0.1,0.2,0.3,0.1,0.5l-0.7,2.4c0,0.3-0.2,0.6-0.5,0.8l0,0l1-0.1l0,0
		c-0.3-0.1-0.2-0.2-0.2-0.6l0.2-0.8L27.9,46.6z"/>
	<path class="st0" d="M31.3,46.9c0.4-0.1,0.7-0.3,0.9-0.6l0,0l0,0.8l-2.2,0.6l0,0c0.2-0.2,0.1-0.6,0-0.8l-0.5-2
		c-0.1-0.2-0.1-0.6-0.4-0.7l0,0l1-0.3l0,0c-0.2,0.2-0.1,0.6,0,0.8l0.6,2.3L31.3,46.9z"/>
	<path class="st0" d="M36.8,44.5c-0.2,0.8-1,1.2-1.8,1.1c-0.4-0.2-0.6-0.5-0.8-0.8l-0.7-1.3c-0.1-0.2-0.3-0.6-0.6-0.6l0,0l0.9-0.6
		l0,0c-0.2,0.2,0,0.6,0.1,0.8l0.7,1.3c0.4,0.6,0.8,0.8,1.3,0.5c0.3-0.1,0.5-0.4,0.6-0.7c0-0.2,0-0.4-0.1-0.5l-0.8-1.5
		c-0.1-0.2-0.3-0.6-0.6-0.6l0,0l0.9-0.5l0,0c-0.2,0.2,0,0.6,0.2,0.8l1,1.8c0.1,0.2,0.3,0.6,0.6,0.6l0,0l-0.7,0.4L36.8,44.5z"/>
	<path class="st0" d="M38.6,42.8c0.2,0.2,0.3,0.4,0.7,0.4l0,0l-0.8,0.6l0,0c0.1-0.3,0-0.5-0.2-0.7l-1.4-1.7
		c-0.2-0.2-0.3-0.4-0.7-0.4l0,0l0.6-0.5l0,0c0,0,0.1,0,0.2,0.1l0.1,0l3.2,0.6L39,39.6c-0.2-0.2-0.3-0.4-0.7-0.4l0,0l0.8-0.6l0,0
		c-0.1,0.3,0,0.5,0.2,0.7l2,2.4c-0.3,0.1-0.7,0.1-1,0l-3-0.6L38.6,42.8z"/>
	<path class="st0" d="M40.1,38.5c-0.2-0.2-0.5-0.5-0.7-0.3l0,0l0.7-0.8l0,0c-0.1,0.3,0.2,0.5,0.4,0.7l1.6,1.4
		c0.2,0.2,0.5,0.5,0.7,0.3l0,0l-0.7,0.8l0,0c0.1-0.3-0.2-0.5-0.4-0.7L40.1,38.5z"/>
	<path class="st0" d="M42.4,35.8c-0.2-0.3-0.5-0.8-0.8-0.6l0,0l0.5-0.7l2.3,3.4c-0.3,0.2-0.7,0.2-1,0.1l-2.3-0.6
		c-0.3-0.1-0.6-0.1-0.9-0.1l0,0l0.5-0.6l0.1,0c0.2,0.1,0.3,0.1,0.5,0.2l2.5,0.6L42.4,35.8z"/>
	<path class="st0" d="M45.3,35l0.4-0.6c0.2-0.3,0.3-0.7,0.2-1.1l0,0l0.6,0.5l-1,2.1l0,0c0-0.3-0.4-0.5-0.6-0.6l-1.9-0.9
		c-0.2-0.1-0.6-0.3-0.8-0.1l0,0l0.8-1.6c0.1-0.1,0.1-0.2,0.1-0.2l0,0l0.6,0.3l0,0c-0.2,0.1-0.4,0.3-0.5,0.5
		c-0.1,0.2-0.2,0.3-0.2,0.5l0.9,0.5l0.3-0.6c0-0.1,0.1-0.2,0.1-0.2l0,0l0.5,0.3l0,0c-0.2,0-0.3,0.2-0.4,0.4l-0.2,0.4L45.3,35z"/>
	<path class="st0" d="M43.6,30.8c0.2-0.7,0.7-1,1.2-0.8c0.4,0.2,0.7,0.7,0.6,1.1l1.2-0.4c0.4-0.2,0.7-0.4,1-0.6l-0.2,0.5
		c-0.1,0.2-0.2,0.4-0.5,0.5l-1,0.4l-0.9,0.2c0.1-0.4,0-1-0.5-1.2c-0.3-0.1-0.7,0.1-0.8,0.4c0,0,0,0,0,0.1c0,0.1-0.1,0.2-0.1,0.4
		l2.4,0.8c0.2,0.1,0.6,0.2,0.8,0l0,0l-0.3,1l0,0c0-0.3-0.4-0.4-0.6-0.5L44,32c-0.2-0.1-0.6-0.2-0.8,0l0,0L43.6,30.8z"/>
	<path class="st0" d="M45.1,27.2c-0.3,0.2-0.4,0.5-0.5,0.8c-0.1,0.3,0,0.7,0.4,0.8c0.8,0.1,1.1-1.8,2.1-1.6c0.7,0.2,1.1,0.9,0.9,1.6
		c-0.1,0.3-0.2,0.7-0.3,1l-0.7,0c0.3-0.3,0.6-0.7,0.6-1.1c0.1-0.3-0.1-0.8-0.4-0.9c-0.9-0.1-1,1.8-2.2,1.6c-0.7-0.1-0.8-0.9-0.7-1.5
		c0.1-0.3,0.1-0.5,0.3-0.8L45.1,27.2z"/>
	<path class="st0" d="M45.3,26.3c-0.3,0-0.6-0.1-0.8,0.2l0,0l0.1-1l0,0c0.1,0.3,0.5,0.3,0.8,0.3l2.1,0.1c0.3,0,0.6,0.1,0.8-0.2l0,0
		l-0.1,1l0,0c-0.1-0.3-0.5-0.3-0.8-0.3L45.3,26.3z"/>
	<path class="st0" d="M47.4,23.4c0.3,0,0.5,0,0.7-0.3l0,0l0.1,1.1l0,0c-0.1-0.3-0.5-0.2-0.8-0.2l-2.5,0.1v0.5c0,0.2,0.1,0.5,0.3,0.6
		l0,0l-0.7-0.2l0,0c0-0.1,0-0.1,0-0.2v-0.1l-0.1-2.1c0-0.1,0-0.2-0.1-0.2l0,0l0.7,0.1l0,0c-0.2,0.1-0.2,0.3-0.2,0.5v0.5L47.4,23.4z"
		/>
	<path class="st0" d="M46.9,20.1c0.3-0.1,0.5-0.1,0.6-0.4l0,0l0.2,1.1l0,0c-0.2-0.2-0.5-0.1-0.8-0.1l-0.8,0.2L44.9,22
		c-0.2,0.2-0.4,0.4-0.5,0.6l-0.1-0.5c-0.1-0.1,0-0.3,0.1-0.4l1.2-1.2L44.5,20c-0.2-0.1-0.4-0.1-0.5,0.2l0,0l-0.2-0.9l2.3,0.9
		L46.9,20.1z"/>
	<path class="st0" d="M6,16.1c0,0.3-0.2,0.5-0.5,0.5c-0.3,0-0.5-0.2-0.5-0.5c0-0.3,0.2-0.5,0.5-0.5c0,0,0,0,0,0
		C5.8,15.6,6,15.9,6,16.1z"/>
	<path class="st0" d="M45.1,16.1c0,0.3-0.2,0.5-0.5,0.5c-0.3,0-0.5-0.2-0.5-0.5c0-0.3,0.2-0.5,0.5-0.5l0,0
		C44.9,15.6,45.1,15.9,45.1,16.1z"/>
	<path class="st0" d="M26.5,2.4H26V1.3h-0.6v3c-0.1,0.1-0.3,0.2-0.5,0.2h-1.6c0,0,0,0,0,0V2.1H25V1.6h-2.3v2.8
		c0,0.3,0.2,0.5,0.5,0.5c0,0,0,0,0,0h1.7c0.2,0,0.4,0,0.5-0.1v1.6H26V2.9h0.5v3.5H27V1.3h-0.6L26.5,2.4z"/>
	<path class="st0" d="M8.1,13.2l1.4-1.6l1.3,1.1l0.4-0.4l-1.3-1.1l1.4-1.6L11,9.3l-3.3,3.6L8.1,13.2z"/>
	<path class="st0" d="M7.4,11.8c0.2,0.2,0.5,0.2,0.7,0l1.8-2c0.2-0.2,0.2-0.5,0-0.7L8.4,7.8L8.1,8.2l0.6,0.5l-1.7,1.9l-0.6-0.5
		L6,10.6L7.4,11.8z M9,9l0.5,0.5c0,0,0,0,0,0.1l-1.7,1.8H7.8l-0.5-0.5L9,9z"/>
	<path class="st0" d="M17.1,2.7l-0.5,0.2L18,6.2L18.6,6l-0.9-1.9l0.7-0.3l-0.2-0.4l-0.7,0.3L17.1,2.7z"/>
	<path class="st0" d="M16.2,8l-0.6-1.2l-0.5,0.2l0.6,1.2c0.1,0.2,0.4,0.3,0.6,0.2l2.7-1.2l-0.2-0.4L16.2,8C16.2,8,16.2,8,16.2,8z"/>
	<path class="st0" d="M15,4.2l-0.2-0.4L14.3,4l0.2,0.4c0.4,0.8,0.1,1.7-0.6,2.2l0.5,0.2c0.5-0.4,0.8-0.9,0.9-1.5
		c0.5,0.3,1.1,0.5,1.7,0.4l0.2-0.5C16.2,5.5,15.3,5,15,4.2L15,4.2z"/>
	<path class="st0" d="M41.8,10.8l-0.4-0.4L40,11.8l-0.5-0.5l1.4-1.3l-0.4-0.4l-1.5,1.4L38.3,10L38,10.3l3.2,3.4l0.3-0.3l-1.2-1.3
		L41.8,10.8z"/>
	<path class="st0" d="M42.2,11.4c-0.3,0.3-0.7,0.5-1.1,0.7l0.4,0.4c0.4-0.2,0.8-0.4,1.1-0.7l1.5-1.4l0,0l-2.6-2.7L41.2,8l2.2,2.3
		L42.2,11.4z"/>
	<path class="st0" d="M36.6,5.8l0.2-0.4l-0.7-0.3l0.5-1L36,3.8l-1.2,2.7l0.5,0.2l0.6-1.3L36.6,5.8z"/>
	<path class="st0" d="M35.3,7L32,5.6L31.8,6l2.8,1.2L34,8.5l0.5,0.2L35.3,7L35.3,7L35.3,7z"/>
	<path class="st0" d="M35.4,4.1l-1.3-0.6L34.4,3l-0.5-0.2l-0.2,0.5l-1.3-0.6l-0.2,0.4l0.6,0.3c-0.2,0.1-0.4,0.3-0.5,0.5
		c-0.2,0.6,0.1,1.3,0.7,1.6c0,0,0,0,0,0c0.6,0.3,1.3,0.1,1.7-0.5c0.1-0.2,0.2-0.5,0.1-0.8l0.6,0.3L35.4,4.1z M33.1,5.1
		c-0.4-0.2-0.5-0.6-0.4-0.9c0.2-0.4,0.6-0.5,0.9-0.4c0.4,0.1,0.5,0.6,0.4,0.9c0,0,0,0,0,0C33.9,5.1,33.5,5.2,33.1,5.1L33.1,5.1z"/>
	<path class="st0" d="M50.1,25c0,13.8-11.2,25-25,25c-13.8,0-25-11.2-25-25C0.1,11.2,11.2,0,25,0C38.8,0,50.1,11.1,50.1,25
		C50.1,25,50.1,25,50.1,25z M25,0.3C11.4,0.4,0.4,11.4,0.4,25.1s11.1,24.7,24.7,24.7S49.8,38.6,49.7,25S38.7,0.3,25,0.3
		C25,0.3,25,0.3,25,0.3z"/>
	<path class="st0" d="M43.2,25c0,10-8.1,18.2-18.1,18.2c-10,0-18.2-8.1-18.2-18.1S15,6.9,25,6.9c0,0,0,0,0,0C35,6.9,43.2,15,43.2,25
		z M25,7.2c-9.8,0-17.8,8-17.8,17.8c0,9.8,8,17.8,17.8,17.8c9.8,0,17.8-8,17.8-17.8c0,0,0,0,0,0C42.8,15.2,34.9,7.2,25,7.2z"/>
	<path class="st0" d="M36.4,34.9h-8.4c-2.6,0-2.9,1.7-2.9,1.7c-0.5-1.9-3-1.7-3-1.7h-8.2V22.8h7.9c1.5-0.1,2.8,0.8,3.4,2.1
		c0.9-2.1,3.6-2.1,3.6-2.1h7.7L36.4,34.9z M28.1,21.6c-1.2-0.1-2.3,0.5-3,1.4c-0.7-1.4-3-1.4-3-1.4h-9.5v14.5h9.3
		c1.3,0,1.7,0.6,1.9,1h2.6c0.3-0.7,1-1.1,1.8-1h9.5V21.6H28.1z"/>
	<path class="st0" d="M20.2,28.4h-3.5v3.5h4.8v-2.3h1.2v2.3h4.8v-2.3h1.2v2.3h4.8v-1.2H30v-1.1h3.5v-3.6h-4.8v2.4h-1.2v-2.4h-1.3
		v2.4H24v-2.4h-1.3v2.4h-1.2v-2.4h-4.8v1.2h3.5L20.2,28.4z M20.2,30.7H18v-1.1h2.2L20.2,30.7z M26.1,30.7H24v-1.1h2.2L26.1,30.7z
		 M30,27.1h2.2v1.2H30L30,27.1z"/>
	<path class="st0" d="M24.3,14.9l1.2-0.4h-1.2V14.9z"/>
	<path class="st0" d="M21.8,16.6c0.4-0.4,0.9-0.4,0.9-0.2c0,0.2-0.1,0.3-0.2,0.4h-2.7l-1.5-2.2l0,0c-0.4-0.6-1-0.9-1.6-0.8h-4v6.5
		h9.2c2.7,0,3.3,1.2,3.3,1.2c0.6-0.9,1.7-1.2,3.4-1.2h9.2v-6.5h-4.1c-0.7-0.1-1.3,0.2-1.6,0.8l0,0l-1.5,2.2H28v-1.9l1.6-1.5H28
		l0.4-0.4h-3.3c-0.5,0-1.1,0.2-1.4,0.6h-1.1c-1.1,0-1.4,0.6-1.2,1.4L21.8,16.6z M36.3,19.1h-7.7c-2.1,0-3,0.1-3.7,0.8
		c-0.7-0.7-1.3-0.8-3.3-0.8h-8V15h2.5c0.2,0,0.4,0,0.6,0.1c0.2,0.1,0.3,0.2,0.4,0.4c0.2,0.2,1.7,2.4,1.7,2.4h4.3
		c0,0,0.4-0.8,0.6-1.4c0.2-0.6,0.2-1-0.4-1s-0.7,0.1-0.8,0.3l-0.2-0.6c-0.1-0.3,0-0.6,0.4-0.6h1.4c0,0,0-0.5,0.8-0.5h2.3l-0.6,0.6
		v3.2h4.4c0,0,1.4-2.2,1.6-2.4c0.1-0.1,0.3-0.3,0.4-0.4c0.2-0.1,0.4-0.1,0.6-0.1h2.6L36.3,19.1z"/>
	<path class="st0" d="M23.1,33.1c0.2-0.1,0.3-0.2,0.4-0.3l0,0v1c0,0.1,0,0.2,0.1,0.2h-0.4c0.1-0.1,0.1-0.1,0.1-0.2v-0.7L23.1,33.1z"
		/>
	<path class="st0" d="M24.1,34c0.3-0.1,0.5-0.3,0.6-0.6c0-0.2-0.1-0.4-0.3-0.4c0,0,0,0,0,0c-0.1,0-0.3,0.1-0.3,0.3c0,0,0,0,0,0
		c0,0.2,0.1,0.3,0.3,0.3c0,0,0,0,0,0c0.1,0,0.1,0,0.2-0.1l-0.1,0.2c-0.1,0-0.1,0-0.2,0c-0.2,0-0.4-0.2-0.4-0.4c0,0,0,0,0,0
		c0-0.3,0.2-0.5,0.5-0.4c0,0,0,0,0,0c0.3,0,0.5,0.2,0.5,0.5c0,0,0,0,0,0c0,0.2-0.1,0.4-0.3,0.5C24.4,34,24.2,34.1,24.1,34L24.1,34z"
		/>
	<path class="st0" d="M25.5,33.7h-0.4l0.4-0.6V33.7z M25.5,33.9L25.5,33.9c0,0.1,0,0.2-0.1,0.2h0.4c-0.1,0-0.1-0.1-0.1-0.2v0h0.1
		l0.1-0.2c-0.1,0-0.2,0.1-0.2,0.1v-0.8h-0.3l-0.6,1L25.5,33.9z"/>
	<path class="st0" d="M26.9,33c-0.1,0-0.3,0.1-0.4,0.2c-0.1,0.1-0.2,0.3-0.2,0.4c0,0.2,0.1,0.4,0.3,0.4c0,0,0,0,0,0
		c0.1,0,0.3-0.1,0.3-0.3c0,0,0,0,0,0c0-0.2-0.1-0.3-0.2-0.3c0,0,0,0,0,0c-0.1,0-0.1,0-0.2,0.1l0.1-0.1c0,0,0.1,0,0.2,0
		c0.2,0,0.4,0.1,0.4,0.4c0,0,0,0,0,0c0,0.2-0.2,0.4-0.4,0.4c0,0,0,0,0,0c-0.3,0-0.5-0.2-0.5-0.5c0,0,0,0,0,0
		c0.1-0.4,0.4-0.8,0.9-0.8L26.9,33z"/>
</g>
</svg>
