<svg xmlns="http://www.w3.org/2000/svg" width="50" height="50" viewBox="0 0 50 50"><g transform="translate(-0.09 0)"><path d="M7.278,31.965c-.141.705-.6,1.179-1.212,1.051a1.122,1.122,0,0,1-.788-1.4.955.955,0,0,1,.154-.385.955.955,0,0,0,.641,1.141c.481.1.737-.205.827-.641a2.814,2.814,0,0,0,.045-.391L4.47,30.856c-.308-.064-.526-.115-.75.147h0l.218-1.083h0c.038.295.455.346.705.391l2.064.41c.25.051.641.16.808-.09h0Z" transform="translate(-1.303 -10.741)" fill="#005baa"/><path d="M3.3,37.516a1.5,1.5,0,0,1,0-2.09,1.462,1.462,0,0,1,1.115-.244l1.487.045c.256,0,.641.058.782-.218h0l-.032,1.051h0c-.1-.276-.506-.263-.756-.263l-1.494-.051c-.744,0-1.1.276-1.122.846a.994.994,0,0,0,.365.821.744.744,0,0,0,.506.135l1.686.058c.244,0,.641.051.776-.224h0l-.038,1.051h0c-.1-.288-.506-.269-.763-.276L3.7,38.087c-.25,0-.641-.051-.769.224h0l.026-.808Z" transform="translate(-1.001 -12.568)" fill="#005baa"/><path d="M6.325,42.989a1.282,1.282,0,0,0,.237-.91c-.045-.314-.218-.7-.6-.641-.756.1-.5,1.987-1.526,2.122a1.353,1.353,0,0,1-1.34-1.346,2.949,2.949,0,0,1,.032-1.006l.641-.25a1.923,1.923,0,0,0-.3,1.282c.038.308.295.756.679.712.865-.115.462-1.987,1.641-2.135.7-.09,1.058.583,1.147,1.282a2.6,2.6,0,0,1,0,.833Z" transform="translate(-1.068 -14.649)" fill="#005baa"/><path d="M5.9,47.408l-.308-1.051,1.513.147Zm-.353.269-.679.5c-.34.25-.385.308-.583.083h0l.321,1.09h0c.071-.346.346-.526.641-.737L7.689,46.69l-.244-.84h0c0,.276-.256.244-.474.218l-2.545-.237a1.282,1.282,0,0,1-.917-.3h0l.282.987h.032c0-.282.192-.295.526-.263l.84.064Z" transform="translate(-1.228 -16.344)" fill="#005baa"/><path d="M6.282,51.237c-.282.135-.487.224-.513.564H5.756l-.436-.878h0c.288.186.487.09.769-.045L8.1,49.911c.282-.141.487-.237.506-.571h0l.359.724h0a.263.263,0,0,0-.09.135l-.071.115L7.378,53.263,9.3,52.34c.288-.135.487-.224.506-.564h0l.436.872h0c-.282-.186-.481-.09-.763.045L6.66,54.064a1.564,1.564,0,0,1,.212-1.006l1.353-2.769Z" transform="translate(-1.877 -17.712)" fill="#005baa"/><path d="M11.184,59.369c-.231.212-.4.353-.333.686h0l-.641-.731h0c.333.109.5-.038.731-.25l1.635-1.455c.231-.205.4-.359.327-.679h0l.551.6h0a.365.365,0,0,0-.051.16v.128l-.551,3.205,1.577-1.41c.231-.205.4-.346.327-.679h0l.641.731h0c-.321-.1-.487.045-.718.256l-2.333,2.083a1.532,1.532,0,0,1-.077-1.026l.526-3.026Z" transform="translate(-3.633 -20.44)" fill="#005baa"/><path d="M17.236,64.352l-.872-.673,1.282-.763Zm-.122.423-.25.8c-.122.4-.128.474-.417.4h0l.9.7h0a1.237,1.237,0,0,1,.051-.955l.846-2.955-.7-.538h0c.16.231-.064.346-.25.462l-2.173,1.282a1.282,1.282,0,0,1-.917.288h0l.814.641h0c-.147-.244,0-.346.269-.519L16,63.916Z" transform="translate(-5.069 -22.339)" fill="#005baa"/><path d="M21.083,67.511c-.167.276-.276.462-.109.756h0L20,67.728h0c.288.045.468-.321.6-.538l1.25-2.141-.423-.244a1.006,1.006,0,0,0-.686-.141h0l.506-.474h0a.885.885,0,0,0,.167.141l.122.071,1.8,1.038a.686.686,0,0,0,.244.1h0l-.494.481h0c.038-.205-.147-.34-.3-.436l-.417-.231Z" transform="translate(-7.147 -23.043)" fill="#005baa"/><path d="M25.031,67.241c.1-.237.308-.59.083-.8h0l.974.423h0c-.3,0-.436.378-.538.6L24.7,69.389c-.1.231-.3.59-.09.795h0l-.974-.423h0c.295,0,.429-.372.526-.6Z" transform="translate(-8.454 -23.85)" fill="#005baa"/><path d="M29.256,68.385a1.468,1.468,0,0,1,.923,1.923,1.359,1.359,0,0,1-1.737,1.019,1.5,1.5,0,0,1-.955-1.923,1.385,1.385,0,0,1,1.769-1.019Zm.147-.378a1.994,1.994,0,0,0-2.564,1.282,1.923,1.923,0,0,0,1.442,2.4,2,2,0,0,0,2.513-1.34A1.923,1.923,0,0,0,29.4,68.007Z" transform="translate(-9.576 -24.372)" fill="#005baa"/><path d="M34.094,71.942c0,.314-.045.532.244.724h0l-.987-.077h0c.308-.147.327-.372.353-.679l.16-2.212c0-.308.045-.532-.237-.718h0l.821.058h0a.327.327,0,0,0,.071.141l.071.122,1.853,2.705.16-2.1c0-.308.045-.532-.244-.718h0l.987.071h0c-.295.141-.314.365-.34.641L36.773,73A1.519,1.519,0,0,1,36,72.313l-1.731-2.564Z" transform="translate(-11.939 -24.762)" fill="#005baa"/><path d="M41.893,70.97l-1.1.109.41-1.442Zm.205.4.378.744c.192.372.237.429,0,.577h0l1.141-.115h0c-.333-.128-.468-.423-.641-.724L41.527,69.13l-.878.09h0c.276.058.2.3.135.506l-.692,2.4a1.244,1.244,0,0,1-.462.84h0l1.026-.1h0c-.276-.071-.25-.231-.167-.551l.205-.808Z" transform="translate(-14.194 -24.816)" fill="#005baa"/><path d="M47.393,71.428a1.385,1.385,0,0,0,.872-.577h0l-.038.782L46,72.223h0c.244-.167.109-.558.045-.8L45.5,69.4c-.064-.244-.141-.641-.442-.673h0l1.032-.269h0c-.25.173-.1.564-.038.8l.641,2.34Z" transform="translate(-16.143 -24.575)" fill="#005baa"/><path d="M55.117,67.536A1.532,1.532,0,0,1,53.3,68.588a1.455,1.455,0,0,1-.776-.821L51.8,66.485c-.122-.218-.282-.6-.583-.551h0l.929-.551h0c-.2.224,0,.571.147.788l.718,1.282c.359.641.8.795,1.282.519a.955.955,0,0,0,.558-.667.737.737,0,0,0-.141-.5l-.808-1.468c-.122-.218-.288-.59-.583-.551h0l.929-.506h0c-.2.224,0,.564.154.788L55.412,66.9c.122.218.288.59.59.551h0l-.724.391Z" transform="translate(-18.354 -23.075)" fill="#005baa"/><path d="M58.827,64.406c.2.237.34.417.679.359h0l-.763.641h0c.115-.321,0-.494-.224-.731l-1.436-1.712c-.2-.237-.34-.41-.673-.353h0l.641-.519h0a.276.276,0,0,0,.154.051l.135.038,3.205.641-1.359-1.609c-.2-.244-.34-.417-.673-.353h0l.756-.641h0c-.115.314,0,.487.224.718l2.013,2.391a1.506,1.506,0,0,1-1.032,0l-3.038-.641Z" transform="translate(-20.217 -21.617)" fill="#005baa"/><path d="M62.064,59.465c-.192-.167-.474-.468-.744-.327h0l.705-.788h0c-.109.282.224.526.417.692l1.577,1.391c.186.167.468.462.737.321h0l-.712.788h0c.109-.269-.218-.519-.4-.686Z" transform="translate(-21.98 -20.946)" fill="#005baa"/><path d="M64.862,55.117c-.237-.346-.506-.763-.821-.558h0l.474-.679,2.321,3.385a1.244,1.244,0,0,1-1.006.128l-2.34-.609a1.712,1.712,0,0,0-.91-.1h0l.468-.641.051.038a2.013,2.013,0,0,0,.513.173l2.513.641Z" transform="translate(-22.432 -19.342)" fill="#005baa"/><path d="M68.877,53.254l.372-.6a1.365,1.365,0,0,0,.154-1.1h0l.551.545-1.026,2.077h0c0-.3-.359-.455-.583-.564l-1.9-.9c-.231-.115-.583-.321-.808-.109h0l.782-1.6a.513.513,0,0,0,.09-.244h0l.59.288h0a.776.776,0,0,0-.487.494,2.609,2.609,0,0,0-.218.526l.936.455.288-.6a.641.641,0,0,0,.083-.237h0l.538.263h0c-.186,0-.282.224-.359.372L67.7,52.7Z" transform="translate(-23.531 -18.222)" fill="#005baa"/><path d="M67.759,47.52c.237-.712.731-.968,1.218-.814a1.077,1.077,0,0,1,.641,1.141L70.83,47.4a4.115,4.115,0,0,0,1.032-.641l-.167.481a.737.737,0,0,1-.462.532l-1.019.385-.91.244c.077-.449.038-1-.462-1.16a.641.641,0,0,0-.814.487,2.377,2.377,0,0,0-.071.372l2.365.821c.244.077.641.237.808,0h0L70.8,49.924h0c0-.3-.417-.391-.641-.474L68.144,48.8c-.244-.083-.641-.244-.814,0h0Z" transform="translate(-24.137 -16.751)" fill="#005baa"/><path d="M69.769,42.385a1.282,1.282,0,0,0-.494.8c-.051.314,0,.724.391.788.75.122,1.058-1.763,2.077-1.6a1.359,1.359,0,0,1,.9,1.641,2.974,2.974,0,0,1-.333.955l-.712.045a1.955,1.955,0,0,0,.641-1.122c.051-.314-.058-.814-.442-.878-.859-.141-1.026,1.769-2.192,1.577-.7-.115-.846-.859-.737-1.532a3.205,3.205,0,0,1,.256-.795Z" transform="translate(-24.679 -15.174)" fill="#005baa"/><path d="M70.1,40.526c-.263,0-.641-.071-.788.2h0l.058-1.045h0c.09.282.506.276.756.282l2.1.122c.256,0,.641.071.782-.2h0l-.051,1.026h0c-.083-.282-.494-.276-.75-.288Z" transform="translate(-24.848 -14.244)" fill="#005baa"/><path d="M72.143,35.926c.327,0,.545,0,.7-.327h0l.058,1.1h0c-.122-.276-.526-.224-.776-.205l-2.494.128v.494a.974.974,0,0,0,.256.641h0l-.679-.16h0a.6.6,0,0,0,0-.212v-.141l-.115-2.071a.532.532,0,0,0-.051-.25h0l.679.147h0c-.192.083-.212.308-.2.487v.5Z" transform="translate(-24.751 -12.535)" fill="#005baa"/><path d="M71.34,30.879c.327-.071.494-.1.641-.417h0l.224,1.058h0c-.192-.237-.545-.128-.8-.077l-.808.167-1.282,1.2a1.333,1.333,0,0,0-.462.641l-.1-.494a.455.455,0,0,1,.071-.436l1.244-1.2-1.16-.468c-.154-.064-.442-.135-.532.205h0l-.2-.949,2.308.923Z" transform="translate(-24.443 -10.809)" fill="#005baa"/><path d="M8.764,24.891a.487.487,0,1,1-.487-.481.487.487,0,0,1,.487.481Z" transform="translate(-2.764 -8.763)" fill="#005baa"/><path d="M69.814,24.887a.487.487,0,1,1-.487-.487.487.487,0,0,1,.487.487Z" transform="translate(-24.679 -8.759)" fill="#005baa"/><path d="M39.146,3.141h-.474V2H38.1V4.955a.75.75,0,0,1-.519.192h-1.6a.045.045,0,0,1-.045-.045V2.8h1.712V2.34H35.37V5.1a.494.494,0,0,0,.5.494h1.7a.994.994,0,0,0,.532-.122v1.59h.571V3.6h.474V7.064h.564V2h-.564Z" transform="translate(-12.665 -0.718)" fill="#005baa"/><path d="M12.33,18.391l1.442-1.583,1.276,1.135.378-.417-1.269-1.135L15.6,14.808l-.34-.308L11.99,18.09Z" transform="translate(-4.272 -5.205)" fill="#005baa"/><path d="M10.673,16.179a.513.513,0,0,0,.712-.038L13.2,14.147a.5.5,0,0,0-.032-.705L11.737,12.16l-.378.417.577.519-1.731,1.923L9.628,14.5l-.378.417ZM12.295,13.4l.506.455a.051.051,0,0,1,0,.064l-1.673,1.833h-.058l-.513-.455Z" transform="translate(-3.288 -4.365)" fill="#005baa"/><path d="M26.263,4.15l-.513.231L27.256,7.74l.519-.231-.853-1.9.686-.3-.186-.417-.686.3Z" transform="translate(-9.211 -1.49)" fill="#005baa"/><path d="M24.657,11.714,24.1,10.47l-.519.231.558,1.244a.506.506,0,0,0,.641.25l2.737-1.212-.186-.417-2.641,1.167A.045.045,0,0,1,24.657,11.714Z" transform="translate(-8.432 -3.758)" fill="#005baa"/><path d="M22.667,6.369l-.205-.449-.519.231.2.449A1.8,1.8,0,0,1,21.5,8.824l.506.192A2.429,2.429,0,0,0,22.865,7.5a2.4,2.4,0,0,0,1.705.391l.192-.5a1.846,1.846,0,0,1-2.1-1.026Z" transform="translate(-7.686 -2.125)" fill="#005baa"/><path d="M63,16.158l-.378-.4L61.164,17.1l-.468-.494,1.449-1.346-.378-.41L60.317,16.2l-.821-.865-.327.308,3.244,3.436.327-.3L61.548,17.5Z" transform="translate(-21.208 -5.331)" fill="#005baa"/><path d="M65.2,15.689a3.577,3.577,0,0,1-1.064.718l.385.41a3.577,3.577,0,0,0,1.064-.718l1.468-1.365h0L64.493,12.01l-.333.308,2.179,2.314Z" transform="translate(-22.992 -4.311)" fill="#005baa"/><path d="M56.066,7.931l.186-.417-.7-.3.462-1.038-.526-.224-1.2,2.737.526.224.558-1.276Z" transform="translate(-19.456 -2.136)" fill="#005baa"/><path d="M53.017,10.093l-3.3-1.423-.186.417,2.782,1.2-.564,1.282.526.224.744-1.7h0Z" transform="translate(-17.748 -3.112)" fill="#005baa"/><path d="M53.359,5.565l-1.321-.571.231-.519-.526-.224-.224.519L50.2,4.2l-.2.423.641.276a1.09,1.09,0,0,0-.538.545,1.218,1.218,0,0,0,.724,1.571,1.244,1.244,0,0,0,1.654-.545,1.051,1.051,0,0,0,.083-.763l.641.288ZM51.032,6.6a.718.718,0,0,1-.391-.936A.731.731,0,0,1,51.59,5.3a.705.705,0,0,1,.378.929.718.718,0,0,1-.936.365Z" transform="translate(-17.916 -1.508)" fill="#005baa"/><path d="M50.09,25A25,25,0,1,1,25.032,0,25,25,0,0,1,50.09,25ZM25.032.34A24.686,24.686,0,1,0,49.744,25,24.686,24.686,0,0,0,25.032.34Z" transform="translate(0 0)" fill="#005baa"/><path d="M47.022,28.859A18.141,18.141,0,1,1,28.855,10.75,18.141,18.141,0,0,1,47.022,28.859ZM28.855,11.09A17.8,17.8,0,1,0,46.676,28.859,17.8,17.8,0,0,0,28.855,11.09Z" transform="translate(-3.823 -3.859)" fill="#005baa"/><path d="M43.331,46.966H34.914C32.311,46.978,32,48.7,32,48.7c-.532-1.923-3.038-1.737-3.038-1.737h-8.25V34.889h7.936A3.487,3.487,0,0,1,32,37.03c.859-2.122,3.59-2.141,3.59-2.141h7.737ZM35.048,33.69a3.441,3.441,0,0,0-3.038,1.429C31.273,33.7,29.048,33.7,29.048,33.7H19.51V48.158h9.34c1.282,0,1.724.6,1.878,1.026h2.564a1.859,1.859,0,0,1,1.75-1.019h9.506V33.69Z" transform="translate(-6.971 -12.094)" fill="#00a65d"/><path d="M29.455,42.879H26v3.5h4.782V44.085h1.212v2.295h4.776V44.085h1.212v2.295h4.782V45.168H39.269V44.085h3.474V40.45H37.962v2.423H36.75V40.45H35.468v2.423H33.276V40.45H31.994v2.423H30.769V40.45H26v1.205h3.481Zm0,2.3H27.282v-1.1h2.179Zm5.987,0h-2.16v-1.1h2.167Zm3.846-3.532h2.167v1.224H39.269Z" transform="translate(-9.301 -14.52)" fill="#00a65d"/><path d="M37.92,23.035l1.154-.385H37.92Z" transform="translate(-13.58 -8.131)" fill="#005baa"/><path d="M28.8,23.82c.423-.442.865-.385.865-.2a.782.782,0,0,1-.218.417H26.719l-1.506-2.167h0a1.75,1.75,0,0,0-1.647-.795H19.52V27.6h9.218c2.724,0,3.256,1.186,3.256,1.186.571-.9,1.667-1.179,3.365-1.186h9.186V21.076h-4.1a1.763,1.763,0,0,0-1.647.795h0l-1.538,2.167H34.988V22.115L36.546,20.6H34.937l.4-.359H32.084a1.494,1.494,0,0,0-1.365.641H29.571c-1.051,0-1.436.6-1.224,1.378Zm14.519,2.564H35.629c-2.051,0-3.006.141-3.654.846-.705-.679-1.282-.846-3.295-.846H20.725v-4.1h2.506a1.282,1.282,0,0,1,.6.122,1.391,1.391,0,0,1,.41.359c.167.231,1.654,2.41,1.654,2.41h4.295s.4-.821.641-1.4.167-.994-.365-1.032-.731.071-.776.256l-.192-.641c-.115-.333,0-.571.429-.571h1.391s0-.455.788-.455H34.4l-.641.6v3.25h4.449s1.41-2.179,1.577-2.41a1.4,1.4,0,0,1,.417-.359,1.378,1.378,0,0,1,.59-.135h2.564Z" transform="translate(-6.975 -7.262)" fill="#005baa"/><path d="M36,51.531a.763.763,0,0,0,.4-.321h0v1.032c0,.1,0,.186.09.25H36.1c.115-.058.1-.141.1-.25v-.712Z" transform="translate(-12.891 -18.383)" fill="#00a65d"/><path d="M37.4,52.432a.705.705,0,0,0,.571-.641.353.353,0,0,0-.321-.391.269.269,0,0,0-.269.276.282.282,0,0,0,.282.295.378.378,0,0,0,.2-.058l-.128.154a.41.41,0,0,1-.154,0,.378.378,0,0,1-.385-.378.455.455,0,0,1,.481-.449.481.481,0,0,1,.481.506.718.718,0,0,1-.276.538,1.147,1.147,0,0,1-.571.231Z" transform="translate(-13.318 -18.393)" fill="#00a65d"/><path d="M39.437,52.148h-.391l.391-.641Zm0,.147v.045c0,.1,0,.16-.09.2h.359c-.083-.038-.083-.128-.083-.205V52.3h.147l.09-.218a.385.385,0,0,1-.237.071V51.34h-.256l-.577.955Z" transform="translate(-13.892 -18.43)" fill="#00a65d"/><path d="M41.42,51.405a.724.724,0,0,0-.365.192.641.641,0,0,0-.2.442.359.359,0,0,0,.321.4.263.263,0,0,0,.263-.282.276.276,0,0,0-.288-.308.365.365,0,0,0-.2.064l.115-.147a.346.346,0,0,1,.16-.038.378.378,0,0,1,.4.391.442.442,0,0,1-.468.436.487.487,0,0,1-.487-.506.859.859,0,0,1,.853-.756Z" transform="translate(-14.567 -18.412)" fill="#00a65d"/></g></svg>