<svg id="Layer_2" data-name="Layer 2" xmlns="http://www.w3.org/2000/svg" width="52.824" height="47" viewBox="0 0 52.824 47">
  <g id="Layer_1" data-name="Layer 1">
    <g id="그룹_95" data-name="그룹 95">
      <g id="그룹_93" data-name="그룹 93">
        <path id="패스_98" data-name="패스 98" d="M41.5,28.5v13a4,4,0,0,1-4,4H5.5a4,4,0,0,0,4-4V1.5h32V8.39" fill="none" stroke="#333" stroke-miterlimit="10" stroke-width="3"/>
        <line id="선_3" data-name="선 3" x2="11" transform="translate(14.5 11.5)" fill="none" stroke="#333" stroke-miterlimit="10" stroke-width="3"/>
        <line id="선_4" data-name="선 4" x2="11" transform="translate(14.5 17.5)" fill="none" stroke="#333" stroke-miterlimit="10" stroke-width="3"/>
        <line id="선_5" data-name="선 5" x2="13" transform="translate(14.5 23.5)" fill="none" stroke="#333" stroke-miterlimit="10" stroke-width="3"/>
        <line id="선_6" data-name="선 6" x2="15" transform="translate(14.5 29.5)" fill="none" stroke="#333" stroke-miterlimit="10" stroke-width="3"/>
        <path id="패스_99" data-name="패스 99" d="M5.5,45.5a4.12,4.12,0,0,0,4-4v-24h-8v24a4,4,0,0,0,4,4Z" fill="none" stroke="#333" stroke-miterlimit="10" stroke-width="3"/>
      </g>
      <g id="그룹_94" data-name="그룹 94">
        <path id="패스_100" data-name="패스 100" d="M51,10.92l-3.1-3.1a1.09,1.09,0,0,0-1.55,0L30.13,24.08l-.77,5.42,5.42-.77L51,12.47a1.09,1.09,0,0,0,0-1.55Z" fill="none" stroke="#333" stroke-linejoin="round" stroke-width="3"/>
        <line id="선_7" data-name="선 7" x2="4.64" y2="4.64" transform="translate(44.22 10)" fill="none" stroke="#333" stroke-linejoin="round" stroke-width="3"/>
      </g>
    </g>
  </g>
</svg>
