<svg xmlns="http://www.w3.org/2000/svg" width="24.055" height="25.23" viewBox="0 0 24.055 25.23"><path d="M9.23,23.4l-2.8,1.825L3.625,23.4,1.274,24.933a.834.834,0,0,1-1.03-.095l-.005,0-.006-.006-.013-.014v0A.782.782,0,0,1,0,24.27V0H24.055V24.27a.776.776,0,0,1-.077.337v0l-.007.014,0,.006,0,.009-.005.01,0,0c-.012.021-.024.041-.038.061a.813.813,0,0,1-.357.288l-.007,0-.011,0-.012,0-.008,0-.018.006h0a.833.833,0,0,1-.166.037h0l-.019,0h-.151a.83.83,0,0,1-.4-.144L20.435,23.4l-2.8,1.825-2.8-1.825-2.8,1.826Zm8.4-.092,2.8-1.826,1.981,1.292V1.593H1.638V22.78l1.987-1.294,2.8,1.826,2.8-1.826,2.8,1.825,2.8-1.826ZM5.014,16.768V15.178h9.2v1.589Zm0-4.559v-1.59h14.02v1.59Zm0-4.56V6.058h14.02v1.59Z" fill="#025bb1"/></svg>