<svg xmlns="http://www.w3.org/2000/svg" xmlns:xlink="http://www.w3.org/1999/xlink" width="100" height="120" viewBox="0 0 100 120"><defs><clipPath id="a"><rect width="100" height="120" transform="translate(1600)" fill="#023975"/></clipPath></defs><g transform="translate(-1600)" clip-path="url(#a)"><g transform="translate(1590.91 33)" opacity="0.1"><path d="M12.116,34.746c-.333,1.664-1.407,2.784-2.859,2.481a2.647,2.647,0,0,1-1.861-3.3,2.254,2.254,0,0,1,.363-.908,2.254,2.254,0,0,0,1.513,2.693c1.135.227,1.74-.484,1.952-1.513a6.641,6.641,0,0,0,.106-.923L5.49,32.129c-.726-.151-1.241-.272-1.77.348h0l.514-2.557h0c.091.7,1.074.817,1.664.923l4.871.968c.59.121,1.513.378,1.906-.212h0Z" transform="translate(1.862 15.344)" fill="#fff"/><path d="M3.879,40.925a3.54,3.54,0,0,1,0-4.932,3.449,3.449,0,0,1,2.632-.575l3.51.106c.605,0,1.513.136,1.846-.514h0l-.076,2.481h0c-.227-.651-1.2-.62-1.785-.62L6.481,36.75c-1.755,0-2.6.651-2.647,2A2.345,2.345,0,0,0,4.7,40.683a1.755,1.755,0,0,0,1.2.318l3.979.136c.575,0,1.513.121,1.831-.529h0l-.091,2.481h0c-.227-.681-1.2-.635-1.8-.651l-4.992-.166c-.59,0-1.513-.121-1.815.529H3l.061-1.906Z" transform="translate(1.43 17.954)" fill="#fff"/><path d="M10.758,45.955a3.026,3.026,0,0,0,.56-2.148c-.106-.741-.514-1.649-1.422-1.513-1.785.227-1.18,4.69-3.6,5.007a3.192,3.192,0,0,1-3.162-3.177,6.959,6.959,0,0,1,.076-2.375l1.513-.59a4.539,4.539,0,0,0-.711,3.026c.091.726.7,1.785,1.6,1.679,2.042-.272,1.089-4.69,3.873-5.038,1.649-.212,2.5,1.377,2.708,3.026a6.142,6.142,0,0,1,0,1.967Z" transform="translate(1.526 20.927)" fill="#fff"/><path d="M9.153,49.963l-.726-2.481,3.57.348Zm-.832.635-1.6,1.18c-.8.59-.908.726-1.377.2h0L6.1,54.546h0c.166-.817.817-1.241,1.513-1.74l5.764-4.538L12.8,46.286h0c0,.651-.605.575-1.119.514l-6.006-.56A3.026,3.026,0,0,1,3.51,45.53h0l.666,2.33h.076c0-.666.454-.7,1.241-.62l1.982.151Z" transform="translate(1.754 23.349)" fill="#fff"/><path d="M7.589,53.818c-.666.318-1.15.529-1.21,1.331h-.03L5.32,53.077h0c.681.439,1.15.212,1.815-.106l4.735-2.284c.666-.333,1.15-.56,1.2-1.346h0l.847,1.709h0a.62.62,0,0,0-.212.318l-.166.272L10.176,58.6l4.538-2.178c.681-.318,1.15-.529,1.2-1.331h0l1.029,2.057h0c-.666-.439-1.135-.212-1.8.106L8.482,60.489a3.691,3.691,0,0,1,.5-2.375l3.192-6.535Z" transform="translate(2.682 25.303)" fill="#fff"/><path d="M12.509,62.674c-.545.5-.953.832-.787,1.619h0L10.21,62.568h0c.787.257,1.18-.091,1.725-.59l3.858-3.434c.545-.484.938-.847.772-1.6h0l1.3,1.422h0a.862.862,0,0,0-.121.378v.3l-1.3,7.564,3.722-3.328c.545-.484.953-.817.772-1.6h0L22.449,63.4h0c-.756-.242-1.15.106-1.694.605l-5.507,4.917a3.616,3.616,0,0,1-.182-2.421l1.241-7.141Z" transform="translate(5.19 29.2)" fill="#fff"/><path d="M21.351,67.237l-2.057-1.588,3.026-1.8Zm-.287,1-.59,1.891c-.287.938-.3,1.119-.983.953h0l2.133,1.649h0a2.92,2.92,0,0,1,.121-2.254l2-6.974L22.092,62.23h0c.378.545-.151.817-.59,1.089l-5.128,3.026a3.026,3.026,0,0,1-2.163.681h0l1.921,1.513h0c-.348-.575,0-.817.635-1.225l1.664-1.1Z" transform="translate(7.241 31.913)" fill="#fff"/><path d="M22.557,72.026c-.393.651-.651,1.089-.257,1.785h0L20,72.541h0c.681.106,1.1-.756,1.407-1.271l2.95-5.053-1-.575a2.375,2.375,0,0,0-1.619-.333h0l1.2-1.119h0a2.088,2.088,0,0,0,.393.333l.287.166,4.251,2.451a1.619,1.619,0,0,0,.575.227h0L27.277,68.5h0c.091-.484-.348-.8-.711-1.029l-.983-.545Z" transform="translate(10.21 32.918)" fill="#fff"/><path d="M26.923,68.331c.242-.56.726-1.392.2-1.891h0l2.3,1h0c-.711,0-1.029.893-1.271,1.422l-2,4.538c-.242.545-.711,1.392-.212,1.876h0l-2.3-1h0c.7,0,1.014-.877,1.241-1.407Z" transform="translate(12.077 34.072)" fill="#fff"/><path d="M32.642,69.053a3.464,3.464,0,0,1,2.178,4.538A3.207,3.207,0,0,1,30.72,76a3.54,3.54,0,0,1-2.254-4.538,3.268,3.268,0,0,1,4.175-2.405Zm.348-.893a4.7,4.7,0,0,0-6.051,3.026,4.538,4.538,0,0,0,3.4,5.673,4.72,4.72,0,0,0,5.93-3.162,4.538,4.538,0,0,0-3.283-5.537Z" transform="translate(13.68 34.817)" fill="#fff"/><path d="M35.1,75.969c0,.741-.106,1.256.575,1.709h0L33.35,77.5h0c.726-.348.772-.877.832-1.6l.378-5.219c0-.726.106-1.256-.56-1.694h0l1.936.136h0a.771.771,0,0,0,.166.333l.166.287,4.372,6.384.378-4.962c0-.726.106-1.256-.575-1.694h0l2.33.166h0c-.7.333-.741.862-.8,1.513l-.545,7.322a3.585,3.585,0,0,1-1.815-1.619L35.528,70.8Z" transform="translate(17.056 35.374)" fill="#fff"/><path d="M44.97,73.472l-2.6.257.968-3.4Zm.484.938.893,1.755c.454.877.56,1.014,0,1.362h0l2.693-.272h0c-.787-.3-1.1-1-1.513-1.709L44.108,69.13l-2.073.212h0c.651.136.469.711.318,1.2l-1.634,5.658a2.935,2.935,0,0,1-1.089,1.982h0l2.421-.242h0c-.651-.166-.59-.545-.393-1.3l.484-1.906Z" transform="translate(20.277 35.451)" fill="#fff"/><path d="M50.567,75.464A3.268,3.268,0,0,0,52.624,74.1h0l-.091,1.846L47.284,77.34h0c.575-.393.257-1.316.106-1.891L46.1,70.684c-.151-.575-.333-1.513-1.044-1.588h0L47.5,68.46h0c-.59.408-.242,1.331-.091,1.891l1.513,5.522Z" transform="translate(23.062 35.108)" fill="#fff"/><path d="M60.418,71.965a3.616,3.616,0,0,1-4.3,2.481,3.434,3.434,0,0,1-1.831-1.936L52.6,69.484c-.287-.514-.666-1.407-1.377-1.3h0l2.194-1.3h0c-.469.529,0,1.346.348,1.861l1.694,3.026c.847,1.513,1.891,1.876,3.026,1.225A2.254,2.254,0,0,0,59.8,71.421a1.74,1.74,0,0,0-.333-1.18l-1.906-3.464c-.287-.514-.681-1.392-1.377-1.3h0l2.194-1.2h0c-.469.529,0,1.331.363,1.861l2.375,4.327c.287.514.681,1.392,1.392,1.3h0l-1.709.923Z" transform="translate(26.221 32.964)" fill="#fff"/><path d="M62.113,70.1c.469.56.8.983,1.6.847h0l-1.8,1.513h0c.272-.756,0-1.165-.529-1.725L58,66.695c-.469-.56-.8-.968-1.588-.832h0l1.513-1.225h0a.65.65,0,0,0,.363.121l.318.091,7.564,1.513-3.207-3.8c-.469-.575-.8-.983-1.588-.832h0l1.785-1.513h0c-.272.741,0,1.15.529,1.694l4.75,5.643a3.555,3.555,0,0,1-2.436,0l-7.171-1.513Z" transform="translate(28.882 30.882)" fill="#fff"/><path d="M63.075,60.982c-.454-.393-1.119-1.1-1.755-.772h0l1.664-1.861h0c-.257.666.529,1.241.983,1.634l3.722,3.283c.439.393,1.1,1.089,1.74.756h0l-1.679,1.861h0c.257-.635-.514-1.225-.953-1.619Z" transform="translate(31.4 29.923)" fill="#fff"/><path d="M67.966,56.8c-.56-.817-1.2-1.8-1.936-1.316h0l1.119-1.6,5.476,7.988a2.935,2.935,0,0,1-2.375.3l-5.522-1.437a4.039,4.039,0,0,0-2.148-.242h0l1.1-1.513.121.091a4.75,4.75,0,0,0,1.21.408l5.93,1.513Z" transform="translate(32.046 27.631)" fill="#fff"/><path d="M73.28,56.645l.877-1.422a3.222,3.222,0,0,0,.363-2.587h0l1.3,1.286-2.421,4.9h0c0-.711-.847-1.074-1.377-1.331l-4.478-2.133C67,55.087,66.169,54.6,65.64,55.1h0l1.846-3.767a1.21,1.21,0,0,0,.212-.575h0l1.392.681h0a1.83,1.83,0,0,0-1.15,1.165,6.156,6.156,0,0,0-.514,1.241l2.209,1.074.681-1.407a1.513,1.513,0,0,0,.2-.56h0l1.271.62h0c-.439,0-.666.529-.847.877l-.424.877Z" transform="translate(33.615 26.031)" fill="#fff"/><path d="M68.344,48.686c.56-1.679,1.725-2.284,2.874-1.921a2.542,2.542,0,0,1,1.513,2.693L75.59,48.4a9.712,9.712,0,0,0,2.436-1.513l-.393,1.135a1.74,1.74,0,0,1-1.089,1.256l-2.405.908-2.148.575c.182-1.059.091-2.36-1.089-2.738a1.513,1.513,0,0,0-1.921,1.15,5.61,5.61,0,0,0-.166.877l5.582,1.936c.575.182,1.513.56,1.906,0h0l-.787,2.375h0c0-.711-.983-.923-1.513-1.119l-4.75-1.528c-.575-.2-1.513-.575-1.921,0h0Z" transform="translate(34.482 23.93)" fill="#fff"/><path d="M71.034,42.542a3.026,3.026,0,0,0-1.165,1.891c-.121.741,0,1.709.923,1.861,1.77.287,2.5-4.16,4.9-3.767A3.207,3.207,0,0,1,77.826,46.4a7.019,7.019,0,0,1-.787,2.254l-1.679.106a4.614,4.614,0,0,0,1.513-2.647c.121-.741-.136-1.921-1.044-2.073-2.027-.333-2.421,4.175-5.174,3.722-1.649-.272-2-2.027-1.74-3.616a7.564,7.564,0,0,1,.605-1.876Z" transform="translate(35.256 21.677)" fill="#fff"/><path d="M71.171,41.677c-.62,0-1.513-.166-1.861.469h0l.136-2.466h0c.212.666,1.2.651,1.785.666l4.962.287c.605,0,1.513.166,1.846-.469h0l-.121,2.421h0c-.2-.666-1.165-.651-1.77-.681Z" transform="translate(35.497 20.349)" fill="#fff"/><path d="M76.362,37.3c.772,0,1.286,0,1.649-.772h0l.136,2.587h0c-.287-.651-1.241-.529-1.831-.484l-5.885.3v1.165a2.3,2.3,0,0,0,.605,1.513h0l-1.6-.378h0a1.407,1.407,0,0,0,0-.5V40.4l-.272-4.886a1.256,1.256,0,0,0-.121-.59h0l1.6.348h0c-.454.2-.5.726-.469,1.15V37.6Z" transform="translate(35.359 17.908)" fill="#fff"/><path d="M75.638,31.925c.772-.166,1.165-.242,1.513-.983h0l.529,2.5h0c-.454-.56-1.286-.3-1.891-.182l-1.906.393-3.026,2.829a3.147,3.147,0,0,0-1.089,1.513l-.227-1.165a1.074,1.074,0,0,1,.166-1.029l2.935-2.829-2.738-1.1c-.363-.151-1.044-.318-1.256.484h0L68.18,30.11l5.446,2.178Z" transform="translate(34.918 15.441)" fill="#fff"/><path d="M10.089,25.545A1.15,1.15,0,1,1,8.94,24.41a1.15,1.15,0,0,1,1.15,1.135Z" transform="translate(3.949 12.518)" fill="#fff"/><path d="M71.139,25.55a1.15,1.15,0,1,1-1.15-1.15,1.15,1.15,0,0,1,1.15,1.15Z" transform="translate(35.256 12.513)" fill="#fff"/><path d="M44.281,4.693H43.161V2H41.815V8.974a1.77,1.77,0,0,1-1.225.454H36.822a.106.106,0,0,1-.106-.106V3.891h4.039V2.8H35.37v6.52a1.165,1.165,0,0,0,1.18,1.165h4.009a2.345,2.345,0,0,0,1.256-.287v3.752h1.346V5.767h1.119v8.184h1.331V2H44.281Z" transform="translate(18.092 1.026)" fill="#fff"/><path d="M12.792,23.683l3.4-3.737,3.011,2.678.893-.983-3-2.678,3.4-3.737-.8-.726L11.99,22.972Z" transform="translate(6.103 7.436)" fill="#fff"/><path d="M12.608,21.645a1.21,1.21,0,0,0,1.679-.091l4.281-4.7a1.18,1.18,0,0,0-.076-1.664L15.12,12.16l-.893.983,1.362,1.225L11.5,18.907l-1.362-1.225-.893.983Zm3.827-6.551,1.2,1.074a.121.121,0,0,1,0,.151l-3.948,4.327h-.136l-1.21-1.074Z" transform="translate(4.697 6.236)" fill="#fff"/><path d="M26.96,4.15l-1.21.545,3.555,7.927,1.225-.545L28.518,7.584l1.619-.711L29.7,5.89,28.08,6.6Z" transform="translate(13.159 2.128)" fill="#fff"/><path d="M26.122,13.4,24.805,10.47l-1.225.545L24.9,13.949a1.2,1.2,0,0,0,1.513.59l6.46-2.859L32.43,10.7,26.2,13.45a.106.106,0,0,1-.076-.045Z" transform="translate(12.046 5.369)" fill="#fff"/><path d="M24.253,6.979,23.769,5.92l-1.225.545.469,1.059A4.251,4.251,0,0,1,21.5,12.773l1.2.454a5.734,5.734,0,0,0,2.027-3.57,5.658,5.658,0,0,0,4.024.923L29.2,9.4a4.357,4.357,0,0,1-4.947-2.421Z" transform="translate(10.979 3.036)" fill="#fff"/><path d="M68.2,17.936l-.893-.953L63.875,20.16,62.771,19l3.419-3.177L65.3,14.85l-3.419,3.177-1.936-2.042-.772.726,7.655,8.109.772-.711-2.814-3Z" transform="translate(30.297 7.615)" fill="#fff"/><path d="M66.651,20.694a8.442,8.442,0,0,1-2.511,1.694l.908.968a8.441,8.441,0,0,0,2.511-1.694l3.464-3.222h0L64.972,12.01l-.787.726L69.329,18.2Z" transform="translate(32.846 6.159)" fill="#fff"/><path d="M58.481,10.625l.439-.983L57.27,8.93l1.089-2.451L57.119,5.95,54.29,12.41l1.241.529,1.316-3.011Z" transform="translate(27.795 3.051)" fill="#fff"/><path d="M57.76,12.028,49.969,8.67l-.439.983L56.1,12.482l-1.331,3.026L56,16.037l1.755-4.009h0Z" transform="translate(25.354 4.446)" fill="#fff"/><path d="M57.927,7.422,54.811,6.076l.545-1.225-1.241-.529-.529,1.225L50.469,4.2,50,5.2l1.513.651a2.572,2.572,0,0,0-1.271,1.286,2.874,2.874,0,0,0,1.709,3.706,2.935,2.935,0,0,0,3.9-1.286,2.481,2.481,0,0,0,.2-1.8l1.513.681ZM52.436,9.858a1.694,1.694,0,0,1-.923-2.209A1.725,1.725,0,0,1,53.752,6.8,1.664,1.664,0,0,1,54.644,9a1.694,1.694,0,0,1-2.209.862Z" transform="translate(25.595 2.154)" fill="#fff"/><path d="M118.09,59A59,59,0,1,1,58.954,0,59,59,0,0,1,118.09,59ZM58.954.8A58.259,58.259,0,1,0,117.273,59,58.259,58.259,0,0,0,58.954.8Z" transform="translate(0 0)" fill="#fff"/><path d="M96.366,53.487A42.813,42.813,0,1,1,53.492,10.75,42.813,42.813,0,0,1,96.366,53.487ZM53.492,11.552A42.011,42.011,0,1,0,95.549,53.487,42.011,42.011,0,0,0,53.492,11.552Z" transform="translate(5.462 5.513)" fill="#fff"/><path d="M75.726,65.021H55.863c-6.142.03-6.868,4.085-6.868,4.085-1.256-4.538-7.171-4.1-7.171-4.1H22.354V36.519H41.083a8.23,8.23,0,0,1,7.912,5.053c2.027-5.007,8.472-5.053,8.472-5.053h18.26ZM56.181,33.69c-5.446.166-7.171,3.374-7.171,3.374-1.74-3.358-6.989-3.358-6.989-3.358H19.51V67.834H41.552c3.026,0,4.069,1.407,4.433,2.421h6.051a4.387,4.387,0,0,1,4.13-2.405H78.6V33.69Z" transform="translate(9.959 17.277)" fill="#fff"/><path d="M34.154,46.184H26v8.26H37.286V49.028h2.859v5.416H51.415V49.028h2.859v5.416H65.56V51.584H57.315V49.028h8.2V40.45H54.229v5.718H51.37V40.45H48.344v5.718H43.171V40.45H40.145v5.718H37.255V40.45H26v2.844h8.215Zm0,5.431H29.026V49.028h5.144Zm14.13,0h-5.1V49.028H48.3Zm9.077-8.336h5.113v2.889H57.315Z" transform="translate(13.287 20.744)" fill="#fff"/><path d="M37.92,23.558l2.723-.908H37.92Z" transform="translate(19.4 11.615)" fill="#fff"/><path d="M41.426,28.7c1-1.044,2.042-.908,2.042-.469a1.846,1.846,0,0,1-.514.983H36.509L32.954,24.1h0a4.13,4.13,0,0,0-3.888-1.876H19.52v15.4H41.274c6.429,0,7.685,2.8,7.685,2.8,1.346-2.133,3.933-2.784,7.942-2.8H78.581v-15.4H68.9A4.16,4.16,0,0,0,65.011,24.1h0L61.38,29.216H56.024V24.677L59.7,21.092H55.9l.953-.847H49.171a3.525,3.525,0,0,0-3.222,1.513H43.241c-2.481,0-3.389,1.407-2.889,3.253Zm34.265,6.051H57.537c-4.841,0-7.1.333-8.623,2-1.664-1.6-3.026-2-7.776-2H22.364V25.071h5.915a3.026,3.026,0,0,1,1.407.287,3.283,3.283,0,0,1,.968.847c.393.545,3.9,5.688,3.9,5.688H44.693s.938-1.936,1.513-3.3.393-2.345-.862-2.436-1.725.166-1.831.605l-.454-1.513c-.272-.787,0-1.346,1.014-1.346h3.283s0-1.074,1.861-1.074h5.416L53.12,24.239v7.67h10.5s3.328-5.144,3.722-5.688a3.3,3.3,0,0,1,.983-.847,3.253,3.253,0,0,1,1.392-.318h6.051Z" transform="translate(9.964 10.375)" fill="#fff"/><path d="M36,51.966a1.8,1.8,0,0,0,.938-.756h0v2.436c0,.242,0,.439.212.59h-.908c.272-.136.242-.333.242-.59V51.966Z" transform="translate(18.415 26.262)" fill="#fff"/><path d="M37.674,54.054a1.664,1.664,0,0,0,1.346-1.513.832.832,0,0,0-.756-.923.635.635,0,0,0-.635.651.666.666,0,0,0,.666.7.893.893,0,0,0,.469-.136l-.3.363a.968.968,0,0,1-.363,0,.893.893,0,0,1-.908-.893,1.074,1.074,0,0,1,1.135-1.059,1.135,1.135,0,0,1,1.135,1.2,1.694,1.694,0,0,1-.651,1.271,2.708,2.708,0,0,1-1.346.545Z" transform="translate(19.026 26.276)" fill="#fff"/><path d="M40.318,53.246H39.4l.923-1.513Zm0,.348V53.7c0,.227,0,.378-.212.469h.847c-.2-.091-.2-.3-.2-.484v-.091H41.1l.212-.514a.908.908,0,0,1-.56.166V51.34h-.605L38.79,53.594Z" transform="translate(19.846 26.328)" fill="#fff"/><path d="M42.44,51.562a1.709,1.709,0,0,0-.862.454,1.513,1.513,0,0,0-.469,1.044.847.847,0,0,0,.756.938.62.62,0,0,0,.62-.666.651.651,0,0,0-.681-.726.862.862,0,0,0-.469.151l.272-.348a.817.817,0,0,1,.378-.091.893.893,0,0,1,.938.923,1.044,1.044,0,0,1-1.1,1.029,1.15,1.15,0,0,1-1.15-1.2,2.027,2.027,0,0,1,2.012-1.785Z" transform="translate(20.81 26.303)" fill="#fff"/></g></g></svg>