<svg xmlns="http://www.w3.org/2000/svg" xmlns:xlink="http://www.w3.org/1999/xlink" width="242" height="248" viewBox="0 0 242 248"><defs><clipPath id="a"><rect width="112" height="112" fill="none"/></clipPath></defs><g transform="translate(-318 -122)"><g transform="translate(318 222)" opacity="0.502" clip-path="url(#a)"><g transform="translate(-143 -197)"><circle cx="1.5" cy="1.5" r="1.5" transform="translate(143 197)" fill="#fff"/></g><g transform="translate(-134 -197)"><circle cx="1.5" cy="1.5" r="1.5" transform="translate(143 197)" fill="#fff"/></g><g transform="translate(-125 -197)"><circle cx="1.5" cy="1.5" r="1.5" transform="translate(143 197)" fill="#fff"/></g><g transform="translate(-116 -197)"><circle cx="1.5" cy="1.5" r="1.5" transform="translate(143 197)" fill="#fff"/></g><g transform="translate(-107 -197)"><circle cx="1.5" cy="1.5" r="1.5" transform="translate(143 197)" fill="#fff"/></g><g transform="translate(-98 -197)"><circle cx="1.5" cy="1.5" r="1.5" transform="translate(143 197)" fill="#fff"/></g><g transform="translate(-89 -197)"><circle cx="1.5" cy="1.5" r="1.5" transform="translate(143 197)" fill="#fff"/></g><g transform="translate(-80 -197)"><circle cx="1.5" cy="1.5" r="1.5" transform="translate(143 197)" fill="#fff"/></g><g transform="translate(-71 -197)"><circle cx="1.5" cy="1.5" r="1.5" transform="translate(143 197)" fill="#fff"/></g><g transform="translate(-62 -197)"><circle cx="1.5" cy="1.5" r="1.5" transform="translate(143 197)" fill="#fff"/></g><g transform="translate(-53 -197)"><circle cx="1.5" cy="1.5" r="1.5" transform="translate(143 197)" fill="#fff"/></g><g transform="translate(-44 -197)"><circle cx="1.5" cy="1.5" r="1.5" transform="translate(143 197)" fill="#fff"/></g><g transform="translate(-35 -197)"><circle cx="1.5" cy="1.5" r="1.5" transform="translate(143 197)" fill="#fff"/></g><g transform="translate(-143 -188)"><circle cx="1.5" cy="1.5" r="1.5" transform="translate(143 197)" fill="#fff"/></g><g transform="translate(-134 -188)"><circle cx="1.5" cy="1.5" r="1.5" transform="translate(143 197)" fill="#fff"/></g><g transform="translate(-125 -188)"><circle cx="1.5" cy="1.5" r="1.5" transform="translate(143 197)" fill="#fff"/></g><g transform="translate(-116 -188)"><circle cx="1.5" cy="1.5" r="1.5" transform="translate(143 197)" fill="#fff"/></g><g transform="translate(-107 -188)"><circle cx="1.5" cy="1.5" r="1.5" transform="translate(143 197)" fill="#fff"/></g><g transform="translate(-98 -188)"><circle cx="1.5" cy="1.5" r="1.5" transform="translate(143 197)" fill="#fff"/></g><g transform="translate(-89 -188)"><circle cx="1.5" cy="1.5" r="1.5" transform="translate(143 197)" fill="#fff"/></g><g transform="translate(-80 -188)"><circle cx="1.5" cy="1.5" r="1.5" transform="translate(143 197)" fill="#fff"/></g><g transform="translate(-71 -188)"><circle cx="1.5" cy="1.5" r="1.5" transform="translate(143 197)" fill="#fff"/></g><g transform="translate(-62 -188)"><circle cx="1.5" cy="1.5" r="1.5" transform="translate(143 197)" fill="#fff"/></g><g transform="translate(-53 -188)"><circle cx="1.5" cy="1.5" r="1.5" transform="translate(143 197)" fill="#fff"/></g><g transform="translate(-44 -188)"><circle cx="1.5" cy="1.5" r="1.5" transform="translate(143 197)" fill="#fff"/></g><g transform="translate(-35 -188)"><circle cx="1.5" cy="1.5" r="1.5" transform="translate(143 197)" fill="#fff"/></g><g transform="translate(-143 -179)"><circle cx="1.5" cy="1.5" r="1.5" transform="translate(143 197)" fill="#fff"/></g><g transform="translate(-134 -179)"><circle cx="1.5" cy="1.5" r="1.5" transform="translate(143 197)" fill="#fff"/></g><g transform="translate(-125 -179)"><circle cx="1.5" cy="1.5" r="1.5" transform="translate(143 197)" fill="#fff"/></g><g transform="translate(-116 -179)"><circle cx="1.5" cy="1.5" r="1.5" transform="translate(143 197)" fill="#fff"/></g><g transform="translate(-107 -179)"><circle cx="1.5" cy="1.5" r="1.5" transform="translate(143 197)" fill="#fff"/></g><g transform="translate(-98 -179)"><circle cx="1.5" cy="1.5" r="1.5" transform="translate(143 197)" fill="#fff"/></g><g transform="translate(-89 -179)"><circle cx="1.5" cy="1.5" r="1.5" transform="translate(143 197)" fill="#fff"/></g><g transform="translate(-80 -179)"><circle cx="1.5" cy="1.5" r="1.5" transform="translate(143 197)" fill="#fff"/></g><g transform="translate(-71 -179)"><circle cx="1.5" cy="1.5" r="1.5" transform="translate(143 197)" fill="#fff"/></g><g transform="translate(-62 -179)"><circle cx="1.5" cy="1.5" r="1.5" transform="translate(143 197)" fill="#fff"/></g><g transform="translate(-53 -179)"><circle cx="1.5" cy="1.5" r="1.5" transform="translate(143 197)" fill="#fff"/></g><g transform="translate(-44 -179)"><circle cx="1.5" cy="1.5" r="1.5" transform="translate(143 197)" fill="#fff"/></g><g transform="translate(-35 -179)"><circle cx="1.5" cy="1.5" r="1.5" transform="translate(143 197)" fill="#fff"/></g><g transform="translate(-143 -170)"><circle cx="1.5" cy="1.5" r="1.5" transform="translate(143 197)" fill="#fff"/></g><g transform="translate(-134 -170)"><circle cx="1.5" cy="1.5" r="1.5" transform="translate(143 197)" fill="#fff"/></g><g transform="translate(-125 -170)"><circle cx="1.5" cy="1.5" r="1.5" transform="translate(143 197)" fill="#fff"/></g><g transform="translate(-116 -170)"><circle cx="1.5" cy="1.5" r="1.5" transform="translate(143 197)" fill="#fff"/></g><g transform="translate(-107 -170)"><circle cx="1.5" cy="1.5" r="1.5" transform="translate(143 197)" fill="#fff"/></g><g transform="translate(-98 -170)"><circle cx="1.5" cy="1.5" r="1.5" transform="translate(143 197)" fill="#fff"/></g><g transform="translate(-89 -170)"><circle cx="1.5" cy="1.5" r="1.5" transform="translate(143 197)" fill="#fff"/></g><g transform="translate(-80 -170)"><circle cx="1.5" cy="1.5" r="1.5" transform="translate(143 197)" fill="#fff"/></g><g transform="translate(-71 -170)"><circle cx="1.5" cy="1.5" r="1.5" transform="translate(143 197)" fill="#fff"/></g><g transform="translate(-62 -170)"><circle cx="1.5" cy="1.5" r="1.5" transform="translate(143 197)" fill="#fff"/></g><g transform="translate(-53 -170)"><circle cx="1.5" cy="1.5" r="1.5" transform="translate(143 197)" fill="#fff"/></g><g transform="translate(-44 -170)"><circle cx="1.5" cy="1.5" r="1.5" transform="translate(143 197)" fill="#fff"/></g><g transform="translate(-35 -170)"><circle cx="1.5" cy="1.5" r="1.5" transform="translate(143 197)" fill="#fff"/></g><g transform="translate(-143 -161)"><circle cx="1.5" cy="1.5" r="1.5" transform="translate(143 197)" fill="#fff"/></g><g transform="translate(-134 -161)"><circle cx="1.5" cy="1.5" r="1.5" transform="translate(143 197)" fill="#fff"/></g><g transform="translate(-125 -161)"><circle cx="1.5" cy="1.5" r="1.5" transform="translate(143 197)" fill="#fff"/></g><g transform="translate(-116 -161)"><circle cx="1.5" cy="1.5" r="1.5" transform="translate(143 197)" fill="#fff"/></g><g transform="translate(-107 -161)"><circle cx="1.5" cy="1.5" r="1.5" transform="translate(143 197)" fill="#fff"/></g><g transform="translate(-98 -161)"><circle cx="1.5" cy="1.5" r="1.5" transform="translate(143 197)" fill="#fff"/></g><g transform="translate(-89 -161)"><circle cx="1.5" cy="1.5" r="1.5" transform="translate(143 197)" fill="#fff"/></g><g transform="translate(-80 -161)"><circle cx="1.5" cy="1.5" r="1.5" transform="translate(143 197)" fill="#fff"/></g><g transform="translate(-71 -161)"><circle cx="1.5" cy="1.5" r="1.5" transform="translate(143 197)" fill="#fff"/></g><g transform="translate(-62 -161)"><circle cx="1.5" cy="1.5" r="1.5" transform="translate(143 197)" fill="#fff"/></g><g transform="translate(-53 -161)"><circle cx="1.5" cy="1.5" r="1.5" transform="translate(143 197)" fill="#fff"/></g><g transform="translate(-44 -161)"><circle cx="1.5" cy="1.5" r="1.5" transform="translate(143 197)" fill="#fff"/></g><g transform="translate(-35 -161)"><circle cx="1.5" cy="1.5" r="1.5" transform="translate(143 197)" fill="#fff"/></g><g transform="translate(-143 -152)"><circle cx="1.5" cy="1.5" r="1.5" transform="translate(143 197)" fill="#fff"/></g><g transform="translate(-134 -152)"><circle cx="1.5" cy="1.5" r="1.5" transform="translate(143 197)" fill="#fff"/></g><g transform="translate(-125 -152)"><circle cx="1.5" cy="1.5" r="1.5" transform="translate(143 197)" fill="#fff"/></g><g transform="translate(-116 -152)"><circle cx="1.5" cy="1.5" r="1.5" transform="translate(143 197)" fill="#fff"/></g><g transform="translate(-107 -152)"><circle cx="1.5" cy="1.5" r="1.5" transform="translate(143 197)" fill="#fff"/></g><g transform="translate(-98 -152)"><circle cx="1.5" cy="1.5" r="1.5" transform="translate(143 197)" fill="#fff"/></g><g transform="translate(-89 -152)"><circle cx="1.5" cy="1.5" r="1.5" transform="translate(143 197)" fill="#fff"/></g><g transform="translate(-80 -152)"><circle cx="1.5" cy="1.5" r="1.5" transform="translate(143 197)" fill="#fff"/></g><g transform="translate(-71 -152)"><circle cx="1.5" cy="1.5" r="1.5" transform="translate(143 197)" fill="#fff"/></g><g transform="translate(-62 -152)"><circle cx="1.5" cy="1.5" r="1.5" transform="translate(143 197)" fill="#fff"/></g><g transform="translate(-53 -152)"><circle cx="1.5" cy="1.5" r="1.5" transform="translate(143 197)" fill="#fff"/></g><g transform="translate(-44 -152)"><circle cx="1.5" cy="1.5" r="1.5" transform="translate(143 197)" fill="#fff"/></g><g transform="translate(-35 -152)"><circle cx="1.5" cy="1.5" r="1.5" transform="translate(143 197)" fill="#fff"/></g><g transform="translate(-143 -143)"><circle cx="1.5" cy="1.5" r="1.5" transform="translate(143 197)" fill="#fff"/></g><g transform="translate(-134 -143)"><circle cx="1.5" cy="1.5" r="1.5" transform="translate(143 197)" fill="#fff"/></g><g transform="translate(-125 -143)"><circle cx="1.5" cy="1.5" r="1.5" transform="translate(143 197)" fill="#fff"/></g><g transform="translate(-116 -143)"><circle cx="1.5" cy="1.5" r="1.5" transform="translate(143 197)" fill="#fff"/></g><g transform="translate(-107 -143)"><circle cx="1.5" cy="1.5" r="1.5" transform="translate(143 197)" fill="#fff"/></g><g transform="translate(-98 -143)"><circle cx="1.5" cy="1.5" r="1.5" transform="translate(143 197)" fill="#fff"/></g><g transform="translate(-89 -143)"><circle cx="1.5" cy="1.5" r="1.5" transform="translate(143 197)" fill="#fff"/></g><g transform="translate(-80 -143)"><circle cx="1.5" cy="1.5" r="1.5" transform="translate(143 197)" fill="#fff"/></g><g transform="translate(-71 -143)"><circle cx="1.5" cy="1.5" r="1.5" transform="translate(143 197)" fill="#fff"/></g><g transform="translate(-62 -143)"><circle cx="1.5" cy="1.5" r="1.5" transform="translate(143 197)" fill="#fff"/></g><g transform="translate(-53 -143)"><circle cx="1.5" cy="1.5" r="1.5" transform="translate(143 197)" fill="#fff"/></g><g transform="translate(-44 -143)"><circle cx="1.5" cy="1.5" r="1.5" transform="translate(143 197)" fill="#fff"/></g><g transform="translate(-35 -143)"><circle cx="1.5" cy="1.5" r="1.5" transform="translate(143 197)" fill="#fff"/></g><g transform="translate(-143 -134)"><circle cx="1.5" cy="1.5" r="1.5" transform="translate(143 197)" fill="#fff"/></g><g transform="translate(-134 -134)"><circle cx="1.5" cy="1.5" r="1.5" transform="translate(143 197)" fill="#fff"/></g><g transform="translate(-125 -134)"><circle cx="1.5" cy="1.5" r="1.5" transform="translate(143 197)" fill="#fff"/></g><g transform="translate(-116 -134)"><circle cx="1.5" cy="1.5" r="1.5" transform="translate(143 197)" fill="#fff"/></g><g transform="translate(-107 -134)"><circle cx="1.5" cy="1.5" r="1.5" transform="translate(143 197)" fill="#fff"/></g><g transform="translate(-98 -134)"><circle cx="1.5" cy="1.5" r="1.5" transform="translate(143 197)" fill="#fff"/></g><g transform="translate(-89 -134)"><circle cx="1.5" cy="1.5" r="1.5" transform="translate(143 197)" fill="#fff"/></g><g transform="translate(-80 -134)"><circle cx="1.5" cy="1.5" r="1.5" transform="translate(143 197)" fill="#fff"/></g><g transform="translate(-71 -134)"><circle cx="1.5" cy="1.5" r="1.5" transform="translate(143 197)" fill="#fff"/></g><g transform="translate(-62 -134)"><circle cx="1.5" cy="1.5" r="1.5" transform="translate(143 197)" fill="#fff"/></g><g transform="translate(-53 -134)"><circle cx="1.5" cy="1.5" r="1.5" transform="translate(143 197)" fill="#fff"/></g><g transform="translate(-44 -134)"><circle cx="1.5" cy="1.5" r="1.5" transform="translate(143 197)" fill="#fff"/></g><g transform="translate(-35 -134)"><circle cx="1.5" cy="1.5" r="1.5" transform="translate(143 197)" fill="#fff"/></g><g transform="translate(-143 -125)"><circle cx="1.5" cy="1.5" r="1.5" transform="translate(143 197)" fill="#fff"/></g><g transform="translate(-134 -125)"><circle cx="1.5" cy="1.5" r="1.5" transform="translate(143 197)" fill="#fff"/></g><g transform="translate(-125 -125)"><circle cx="1.5" cy="1.5" r="1.5" transform="translate(143 197)" fill="#fff"/></g><g transform="translate(-116 -125)"><circle cx="1.5" cy="1.5" r="1.5" transform="translate(143 197)" fill="#fff"/></g><g transform="translate(-107 -125)"><circle cx="1.5" cy="1.5" r="1.5" transform="translate(143 197)" fill="#fff"/></g><g transform="translate(-98 -125)"><circle cx="1.5" cy="1.5" r="1.5" transform="translate(143 197)" fill="#fff"/></g><g transform="translate(-89 -125)"><circle cx="1.5" cy="1.5" r="1.5" transform="translate(143 197)" fill="#fff"/></g><g transform="translate(-80 -125)"><circle cx="1.5" cy="1.5" r="1.5" transform="translate(143 197)" fill="#fff"/></g><g transform="translate(-71 -125)"><circle cx="1.5" cy="1.5" r="1.5" transform="translate(143 197)" fill="#fff"/></g><g transform="translate(-62 -125)"><circle cx="1.5" cy="1.5" r="1.5" transform="translate(143 197)" fill="#fff"/></g><g transform="translate(-53 -125)"><circle cx="1.5" cy="1.5" r="1.5" transform="translate(143 197)" fill="#fff"/></g><g transform="translate(-44 -125)"><circle cx="1.5" cy="1.5" r="1.5" transform="translate(143 197)" fill="#fff"/></g><g transform="translate(-35 -125)"><circle cx="1.5" cy="1.5" r="1.5" transform="translate(143 197)" fill="#fff"/></g><g transform="translate(-143 -116)"><circle cx="1.5" cy="1.5" r="1.5" transform="translate(143 197)" fill="#fff"/></g><g transform="translate(-134 -116)"><circle cx="1.5" cy="1.5" r="1.5" transform="translate(143 197)" fill="#fff"/></g><g transform="translate(-125 -116)"><circle cx="1.5" cy="1.5" r="1.5" transform="translate(143 197)" fill="#fff"/></g><g transform="translate(-116 -116)"><circle cx="1.5" cy="1.5" r="1.5" transform="translate(143 197)" fill="#fff"/></g><g transform="translate(-107 -116)"><circle cx="1.5" cy="1.5" r="1.5" transform="translate(143 197)" fill="#fff"/></g><g transform="translate(-98 -116)"><circle cx="1.5" cy="1.5" r="1.5" transform="translate(143 197)" fill="#fff"/></g><g transform="translate(-89 -116)"><circle cx="1.5" cy="1.5" r="1.5" transform="translate(143 197)" fill="#fff"/></g><g transform="translate(-80 -116)"><circle cx="1.5" cy="1.5" r="1.5" transform="translate(143 197)" fill="#fff"/></g><g transform="translate(-71 -116)"><circle cx="1.5" cy="1.5" r="1.5" transform="translate(143 197)" fill="#fff"/></g><g transform="translate(-62 -116)"><circle cx="1.5" cy="1.5" r="1.5" transform="translate(143 197)" fill="#fff"/></g><g transform="translate(-53 -116)"><circle cx="1.5" cy="1.5" r="1.5" transform="translate(143 197)" fill="#fff"/></g><g transform="translate(-44 -116)"><circle cx="1.5" cy="1.5" r="1.5" transform="translate(143 197)" fill="#fff"/></g><g transform="translate(-35 -116)"><circle cx="1.5" cy="1.5" r="1.5" transform="translate(143 197)" fill="#fff"/></g><g transform="translate(-143 -107)"><circle cx="1.5" cy="1.5" r="1.5" transform="translate(143 197)" fill="#fff"/></g><g transform="translate(-134 -107)"><circle cx="1.5" cy="1.5" r="1.5" transform="translate(143 197)" fill="#fff"/></g><g transform="translate(-125 -107)"><circle cx="1.5" cy="1.5" r="1.5" transform="translate(143 197)" fill="#fff"/></g><g transform="translate(-116 -107)"><circle cx="1.5" cy="1.5" r="1.5" transform="translate(143 197)" fill="#fff"/></g><g transform="translate(-107 -107)"><circle cx="1.5" cy="1.5" r="1.5" transform="translate(143 197)" fill="#fff"/></g><g transform="translate(-98 -107)"><circle cx="1.5" cy="1.5" r="1.5" transform="translate(143 197)" fill="#fff"/></g><g transform="translate(-89 -107)"><circle cx="1.5" cy="1.5" r="1.5" transform="translate(143 197)" fill="#fff"/></g><g transform="translate(-80 -107)"><circle cx="1.5" cy="1.5" r="1.5" transform="translate(143 197)" fill="#fff"/></g><g transform="translate(-71 -107)"><circle cx="1.5" cy="1.5" r="1.5" transform="translate(143 197)" fill="#fff"/></g><g transform="translate(-62 -107)"><circle cx="1.5" cy="1.5" r="1.5" transform="translate(143 197)" fill="#fff"/></g><g transform="translate(-53 -107)"><circle cx="1.5" cy="1.5" r="1.5" transform="translate(143 197)" fill="#fff"/></g><g transform="translate(-44 -107)"><circle cx="1.5" cy="1.5" r="1.5" transform="translate(143 197)" fill="#fff"/></g><g transform="translate(-35 -107)"><circle cx="1.5" cy="1.5" r="1.5" transform="translate(143 197)" fill="#fff"/></g><g transform="translate(-143 -98)"><circle cx="1.5" cy="1.5" r="1.5" transform="translate(143 197)" fill="#fff"/></g><g transform="translate(-134 -98)"><circle cx="1.5" cy="1.5" r="1.5" transform="translate(143 197)" fill="#fff"/></g><g transform="translate(-125 -98)"><circle cx="1.5" cy="1.5" r="1.5" transform="translate(143 197)" fill="#fff"/></g><g transform="translate(-116 -98)"><circle cx="1.5" cy="1.5" r="1.5" transform="translate(143 197)" fill="#fff"/></g><g transform="translate(-107 -98)"><circle cx="1.5" cy="1.5" r="1.5" transform="translate(143 197)" fill="#fff"/></g><g transform="translate(-98 -98)"><circle cx="1.5" cy="1.5" r="1.5" transform="translate(143 197)" fill="#fff"/></g><g transform="translate(-89 -98)"><circle cx="1.5" cy="1.5" r="1.5" transform="translate(143 197)" fill="#fff"/></g><g transform="translate(-80 -98)"><circle cx="1.5" cy="1.5" r="1.5" transform="translate(143 197)" fill="#fff"/></g><g transform="translate(-71 -98)"><circle cx="1.5" cy="1.5" r="1.5" transform="translate(143 197)" fill="#fff"/></g><g transform="translate(-62 -98)"><circle cx="1.5" cy="1.5" r="1.5" transform="translate(143 197)" fill="#fff"/></g><g transform="translate(-53 -98)"><circle cx="1.5" cy="1.5" r="1.5" transform="translate(143 197)" fill="#fff"/></g><g transform="translate(-44 -98)"><circle cx="1.5" cy="1.5" r="1.5" transform="translate(143 197)" fill="#fff"/></g><g transform="translate(-35 -98)"><circle cx="1.5" cy="1.5" r="1.5" transform="translate(143 197)" fill="#fff"/></g><g transform="translate(-143 -89)"><circle cx="1.5" cy="1.5" r="1.5" transform="translate(143 197)" fill="#fff"/></g><g transform="translate(-134 -89)"><circle cx="1.5" cy="1.5" r="1.5" transform="translate(143 197)" fill="#fff"/></g><g transform="translate(-125 -89)"><circle cx="1.5" cy="1.5" r="1.5" transform="translate(143 197)" fill="#fff"/></g><g transform="translate(-116 -89)"><circle cx="1.5" cy="1.5" r="1.5" transform="translate(143 197)" fill="#fff"/></g><g transform="translate(-107 -89)"><circle cx="1.5" cy="1.5" r="1.5" transform="translate(143 197)" fill="#fff"/></g><g transform="translate(-98 -89)"><circle cx="1.5" cy="1.5" r="1.5" transform="translate(143 197)" fill="#fff"/></g><g transform="translate(-89 -89)"><circle cx="1.5" cy="1.5" r="1.5" transform="translate(143 197)" fill="#fff"/></g><g transform="translate(-80 -89)"><circle cx="1.5" cy="1.5" r="1.5" transform="translate(143 197)" fill="#fff"/></g><g transform="translate(-71 -89)"><circle cx="1.5" cy="1.5" r="1.5" transform="translate(143 197)" fill="#fff"/></g><g transform="translate(-62 -89)"><circle cx="1.5" cy="1.5" r="1.5" transform="translate(143 197)" fill="#fff"/></g><g transform="translate(-53 -89)"><circle cx="1.5" cy="1.5" r="1.5" transform="translate(143 197)" fill="#fff"/></g><g transform="translate(-44 -89)"><circle cx="1.5" cy="1.5" r="1.5" transform="translate(143 197)" fill="#fff"/></g><g transform="translate(-35 -89)"><circle cx="1.5" cy="1.5" r="1.5" transform="translate(143 197)" fill="#fff"/></g></g><path d="M80,0l80,132H0Z" transform="translate(373 238)" fill="rgba(3,41,83,0.9)"/><path d="M44,0,88,74H0Z" transform="translate(472 267)" fill="#5b81ce"/><circle cx="2.5" cy="2.5" r="2.5" transform="translate(503 122)" fill="#5b81ce"/><circle cx="2.5" cy="2.5" r="2.5" transform="translate(503 147)" fill="#5b81ce"/><rect width="1" height="12" transform="translate(505 131)" fill="#5b81ce"/><g transform="translate(244.931 -317.316) rotate(45)"><circle cx="2.5" cy="2.5" r="2.5" transform="translate(503 122)" fill="#5b81ce"/><circle cx="2.5" cy="2.5" r="2.5" transform="translate(503 147)" fill="#5b81ce"/><rect width="1" height="12" transform="translate(505 131)" fill="#5b81ce"/></g><g transform="translate(642.5 -368.5) rotate(90)"><circle cx="2.5" cy="2.5" r="2.5" transform="translate(503 122)" fill="#5b81ce"/><circle cx="2.5" cy="2.5" r="2.5" transform="translate(503 147)" fill="#5b81ce"/><rect width="1" height="12" transform="translate(505 131)" fill="#5b81ce"/></g><g transform="translate(959.816 -123.569) rotate(135)"><circle cx="2.5" cy="2.5" r="2.5" transform="translate(503 122)" fill="#5b81ce"/><circle cx="2.5" cy="2.5" r="2.5" transform="translate(503 147)" fill="#5b81ce"/><rect width="1" height="12" transform="translate(505 131)" fill="#5b81ce"/></g><rect width="1" height="34" transform="translate(505 160)" fill="#5b81ce"/><rect width="1" height="34" transform="translate(495 177)" fill="#5b81ce"/></g></svg>