<svg xmlns="http://www.w3.org/2000/svg" width="23.631" height="28.813" viewBox="0 0 23.631 28.813"><path d="M11.553,28.723C-2.14,24.01.131,6.184.155,6L.26,5.238l.771.075c.47.046.937.069,1.39.069,6.077,0,8.6-4.057,8.7-4.23L11.821,0l.689,1.155c.1.17,2.624,4.227,8.7,4.227h0c.453,0,.92-.023,1.39-.069l.772-.075.1.766c.024.18,2.292,18.006-11.4,22.719l-.264.091Zm.264-1.612C22.472,23.231,22.2,10.239,21.951,6.971c-.249.012-.5.019-.741.019a12.023,12.023,0,0,1-9.394-4.081,12.033,12.033,0,0,1-9.4,4.081q-.366,0-.74-.019C1.438,10.24,1.175,23.235,11.816,27.111ZM7.1,15.982l1.105-1.171,3.543,3.326,5.863-6.862,1.229,1.042-6.963,8.148Z" fill="#025bb1"/></svg>