<svg xmlns="http://www.w3.org/2000/svg" width="104" height="108" viewBox="0 0 104 108">
  <g id="message_box_icon_12" transform="translate(-348 -347)">
    <circle id="Ellipse_10" data-name="Ellipse 10" cx="30" cy="30" r="30" transform="translate(392 395)" fill="#f5f6f8"/>
    <path id="Rectangle_570" data-name="Rectangle 570" d="M357,367v-7.5l-5.164,5.434-1.45-1.377L355.67,358H348v-2h7.5l-5.434-5.164,1.378-1.45L357,354.67V347h2v7.5l5.163-5.433,1.45,1.378L360.329,356H368v2h-7.5l5.433,5.163-1.377,1.45L359,359.33V367Z" fill="#aaa"/>
    <g id="Group_281" data-name="Group 281" transform="translate(52.501 -772.5)">
      <g id="Group_278" data-name="Group 278" transform="translate(0.5 -0.771)">
        <ellipse id="Ellipse_144" data-name="Ellipse 144" cx="2.422" cy="2.43" rx="2.422" ry="2.43" transform="translate(358.578 1188.841)" fill="none" stroke="#023975" stroke-linecap="round" stroke-linejoin="round" stroke-width="4"/>
        <line id="Line_341" data-name="Line 341" y1="6.592" transform="translate(361 1179.663)" fill="none" stroke="#023975" stroke-linecap="round" stroke-linejoin="round" stroke-width="4"/>
        <line id="Line_342" data-name="Line 342" y1="6.592" transform="translate(361 1196.135)" fill="none" stroke="#023975" stroke-linecap="round" stroke-linejoin="round" stroke-width="4"/>
        <g id="Group_277" data-name="Group 277" transform="translate(345 1174.271)">
          <line id="Line_343" data-name="Line 343" y1="9.503" transform="translate(2.239 12.413)" fill="none" stroke="#023975" stroke-linecap="round" stroke-linejoin="round" stroke-width="4"/>
          <ellipse id="Ellipse_145" data-name="Ellipse 145" cx="2.422" cy="2.43" rx="2.422" ry="2.43" transform="translate(0 7.124)" fill="none" stroke="#023975" stroke-linecap="round" stroke-linejoin="round" stroke-width="4"/>
          <ellipse id="Ellipse_146" data-name="Ellipse 146" cx="2.422" cy="2.43" rx="2.422" ry="2.43" transform="translate(0 21.88)" fill="none" stroke="#023975" stroke-linecap="round" stroke-linejoin="round" stroke-width="4"/>
          <line id="Line_344" data-name="Line 344" x2="8.369" y2="4.641" transform="translate(19.018 3.573)" fill="none" stroke="#023975" stroke-linecap="round" stroke-linejoin="round" stroke-width="4"/>
          <line id="Line_345" data-name="Line 345" y1="5.083" x2="8.7" transform="translate(4.665 3.462)" fill="none" stroke="#023975" stroke-linecap="round" stroke-linejoin="round" stroke-width="4"/>
          <line id="Line_346" data-name="Line 346" x1="8.547" y1="4.827" transform="translate(4.989 25.487)" fill="none" stroke="#023975" stroke-linecap="round" stroke-linejoin="round" stroke-width="4"/>
          <line id="Line_347" data-name="Line 347" x1="8.497" y2="4.699" transform="translate(18.63 25.504)" fill="none" stroke="#023975" stroke-linecap="round" stroke-linejoin="round" stroke-width="4"/>
          <line id="Line_348" data-name="Line 348" y2="9.834" transform="translate(29.457 12.082)" fill="none" stroke="#023975" stroke-linecap="round" stroke-linejoin="round" stroke-width="4"/>
          <ellipse id="Ellipse_147" data-name="Ellipse 147" cx="2.422" cy="2.43" rx="2.422" ry="2.43" transform="translate(13.776)" fill="none" stroke="#023975" stroke-linecap="round" stroke-linejoin="round" stroke-width="4"/>
          <path id="Path_203" data-name="Path 203" d="M360.788,1203.31a2.43,2.43,0,1,1-2.422,2.43A2.426,2.426,0,0,1,360.788,1203.31Z" transform="translate(-344.59 -1174.171)" fill="none" stroke="#023975" stroke-linecap="round" stroke-linejoin="round" stroke-width="4"/>
          <ellipse id="Ellipse_148" data-name="Ellipse 148" cx="2.422" cy="2.43" rx="2.422" ry="2.43" transform="translate(27.156 7.124)" fill="none" stroke="#023975" stroke-linecap="round" stroke-linejoin="round" stroke-width="4"/>
          <ellipse id="Ellipse_149" data-name="Ellipse 149" cx="2.422" cy="2.43" rx="2.422" ry="2.43" transform="translate(27.156 21.88)" fill="none" stroke="#023975" stroke-linecap="round" stroke-linejoin="round" stroke-width="4"/>
        </g>
        <line id="Line_349" data-name="Line 349" x2="8.611" y2="5.119" transform="translate(349.563 1185.072)" fill="none" stroke="#023975" stroke-linecap="round" stroke-linejoin="round" stroke-width="4"/>
        <line id="Line_350" data-name="Line 350" x2="8.611" y2="5.119" transform="translate(363.826 1192.633)" fill="none" stroke="#023975" stroke-linecap="round" stroke-linejoin="round" stroke-width="4"/>
        <line id="Line_351" data-name="Line 351" y1="5.408" x2="8.33" transform="translate(350.015 1192.363)" fill="none" stroke="#023975" stroke-linecap="round" stroke-linejoin="round" stroke-width="4"/>
        <line id="Line_352" data-name="Line 352" y1="5.408" x2="8.33" transform="translate(363.667 1184.532)" fill="none" stroke="#023975" stroke-linecap="round" stroke-linejoin="round" stroke-width="4"/>
      </g>
      <g id="Group_282" data-name="Group 282" transform="translate(-2)">
        <line id="Line_353" data-name="Line 353" x2="23" y2="0.177" transform="translate(329 1166)" fill="none" stroke="#023975" stroke-linecap="round" stroke-linejoin="round" stroke-width="4"/>
        <line id="Line_354" data-name="Line 354" x2="23" y2="0.177" transform="translate(329 1174)" fill="none" stroke="#023975" stroke-linecap="round" stroke-linejoin="round" stroke-width="4"/>
        <line id="Line_355" data-name="Line 355" x2="12" y2="0.177" transform="translate(329 1182)" fill="none" stroke="#023975" stroke-linecap="round" stroke-linejoin="round" stroke-width="4"/>
        <line id="Line_356" data-name="Line 356" x2="12" y2="0.177" transform="translate(329 1190)" fill="none" stroke="#023975" stroke-linecap="round" stroke-linejoin="round" stroke-width="4"/>
      </g>
      <path id="Path_217" data-name="Path 217" d="M9.565,0H42a4,4,0,0,1,4,4V54a4,4,0,0,1-4,4H7L0,52-.344,38.728" transform="translate(361.5 1207.5) rotate(180)" fill="none" stroke="#023975" stroke-linecap="round" stroke-width="4"/>
      <path id="Path_205" data-name="Path 205" d="M351.5,1148.727l-.07,8.091a.918.918,0,0,0,.97.857l8.03.052" transform="translate(1.066 0.773)" fill="none" stroke="#023975" stroke-linecap="round" stroke-linejoin="round" stroke-width="4"/>
    </g>
  </g>
</svg>
