<svg xmlns="http://www.w3.org/2000/svg" width="104" height="108" viewBox="0 0 104 108">
  <g id="message_box_icon_10" transform="translate(-348 -347)">
    <circle id="Ellipse_10" data-name="Ellipse 10" cx="30" cy="30" r="30" transform="translate(392 395)" fill="#f5f6f8"/>
    <path id="Rectangle_570" data-name="Rectangle 570" d="M357,367v-7.5l-5.164,5.434-1.45-1.377L355.67,358H348v-2h7.5l-5.434-5.164,1.378-1.45L357,354.67V347h2v7.5l5.163-5.433,1.45,1.378L360.329,356H368v2h-7.5l5.433,5.163-1.377,1.45L359,359.33V367Z" fill="#aaa"/>
    <g id="Group_210" data-name="Group 210" transform="translate(-450.333 -314)">
      <rect id="Rectangle_46" data-name="Rectangle 46" width="57.8" height="7.933" rx="1" transform="translate(828.867 710.933)" fill="none" stroke="#023975" stroke-linecap="round" stroke-linejoin="round" stroke-width="4"/>
      <rect id="Rectangle_47" data-name="Rectangle 47" width="60.067" height="14.733" rx="1" transform="translate(824.333 718.867)" fill="none" stroke="#023975" stroke-linecap="round" stroke-linejoin="round" stroke-width="4"/>
      <rect id="Rectangle_48" data-name="Rectangle 48" width="54.4" height="11.333" rx="1" transform="translate(834.534 733.6)" fill="none" stroke="#023975" stroke-linecap="round" stroke-linejoin="round" stroke-width="4"/>
      <rect id="Rectangle_49" data-name="Rectangle 49" width="58.934" height="9.067" rx="1" transform="translate(825.467 744.933)" fill="none" stroke="#023975" stroke-linecap="round" stroke-linejoin="round" stroke-width="4"/>
      <line id="Line_142" data-name="Line 142" y2="7.933" transform="translate(844.733 710.933)" fill="none" stroke="#023975" stroke-linecap="round" stroke-linejoin="round" stroke-width="4"/>
      <line id="Line_143" data-name="Line 143" y2="14.733" transform="translate(839.067 718.867)" fill="none" stroke="#023975" stroke-linecap="round" stroke-linejoin="round" stroke-width="4"/>
      <line id="Line_144" data-name="Line 144" y2="14.733" transform="translate(853.8 718.867)" fill="none" stroke="#023975" stroke-linecap="round" stroke-linejoin="round" stroke-width="4"/>
      <line id="Line_145" data-name="Line 145" x2="20.4" transform="translate(861.733 739.267)" fill="none" stroke="#023975" stroke-linecap="round" stroke-linejoin="round" stroke-width="4"/>
      <line id="Line_146" data-name="Line 146" y2="9.067" transform="translate(848.133 744.933)" fill="none" stroke="#023975" stroke-linecap="round" stroke-linejoin="round" stroke-width="4"/>
      <line id="Line_147" data-name="Line 147" y2="9.067" transform="translate(842.467 744.933)" fill="none" stroke="#023975" stroke-linecap="round" stroke-linejoin="round" stroke-width="4"/>
      <path id="Path_86" data-name="Path 86" d="M863.659,710.933H845.525l-2.154-23.7A1.134,1.134,0,0,1,844.5,686h20.185a1.134,1.134,0,0,1,1.129,1.236Z" transform="translate(2.538 0)" fill="none" stroke="#023975" stroke-linecap="round" stroke-linejoin="round" stroke-width="4"/>
      <path id="Path_87" data-name="Path 87" d="M863.466,688h1.844c2.267,0,3.84,1.192,3.265,4.351s-6.242,9.533-6.242,9.533h0" transform="translate(5.067 0.267)" fill="none" stroke="#023975" stroke-linecap="round" stroke-linejoin="round" stroke-width="4"/>
    </g>
  </g>
</svg>
