<svg xmlns="http://www.w3.org/2000/svg" width="104" height="108" viewBox="0 0 104 108">
  <g id="message_box_icon_06" transform="translate(-348 -347)">
    <circle id="Ellipse_10" data-name="Ellipse 10" cx="30" cy="30" r="30" transform="translate(392 395)" fill="#f5f6f8"/>
    <path id="Rectangle_570" data-name="Rectangle 570" d="M357,367v-7.5l-5.164,5.434-1.45-1.377L355.67,358H348v-2h7.5l-5.434-5.164,1.378-1.45L357,354.67V347h2v7.5l5.163-5.433,1.45,1.378L360.329,356H368v2h-7.5l5.433,5.163-1.377,1.45L359,359.33V367Z" fill="#aaa"/>
    <g id="Group_200" data-name="Group 200" transform="translate(-280.999 -470.999)">
      <g id="Group_238" data-name="Group 238" transform="translate(0 4)">
        <path id="Path_71" data-name="Path 71" d="M696.663,891.056l-7.995,1.5,1.5-7.995" transform="translate(8.904 -8.668)" fill="none" stroke="#023975" stroke-linecap="round" stroke-linejoin="round" stroke-width="4"/>
        <path id="Path_72" data-name="Path 72" d="M696.89,891.057l19.342-19.263a1,1,0,0,0,0-1.412l-5.311-5.312a1,1,0,0,0-1.413,0l-19.341,19.263Z" transform="translate(8.904 -8.668)" fill="none" stroke="#023975" stroke-linecap="round" stroke-linejoin="round" stroke-width="4"/>
      </g>
      <path id="Path_73" data-name="Path 73" d="M666.5,840v53.188s.333,6.073-5.949,6.073" transform="translate(0.449)" fill="none" stroke="#023975" stroke-linecap="round" stroke-linejoin="round" stroke-width="4"/>
      <g id="Group_237" data-name="Group 237">
        <line id="Line_129" data-name="Line 129" x2="26" transform="translate(674.5 856)" fill="none" stroke="#023975" stroke-linecap="round" stroke-linejoin="round" stroke-width="4"/>
        <line id="Line_130" data-name="Line 130" x2="26" transform="translate(674.5 864)" fill="none" stroke="#023975" stroke-linecap="round" stroke-linejoin="round" stroke-width="4"/>
        <line id="Line_131" data-name="Line 131" x2="13" transform="translate(674.5 872)" fill="none" stroke="#023975" stroke-linecap="round" stroke-linejoin="round" stroke-width="4"/>
        <line id="Line_132" data-name="Line 132" x2="13" transform="translate(674.5 881)" fill="none" stroke="#023975" stroke-linecap="round" stroke-linejoin="round" stroke-width="4"/>
      </g>
      <path id="Path_74" data-name="Path 74" d="M712.249,867V840H667.5l-.2,41H655.5v11.492c0,5.6,5.055,7.508,11.232,7.508h34.285c6.177,0,11.232-3.905,11.232-9.508V881" transform="translate(-0.5)" fill="none" stroke="#023975" stroke-linecap="round" stroke-linejoin="round" stroke-width="4"/>
    </g>
  </g>
</svg>
