<svg xmlns="http://www.w3.org/2000/svg" width="104" height="108" viewBox="0 0 104 108">
  <g id="message_box_icon_11" transform="translate(-348 -347)">
    <circle id="Ellipse_10" data-name="Ellipse 10" cx="30" cy="30" r="30" transform="translate(392 395)" fill="#f5f6f8"/>
    <path id="Rectangle_570" data-name="Rectangle 570" d="M357,367v-7.5l-5.164,5.434-1.45-1.377L355.67,358H348v-2h7.5l-5.434-5.164,1.378-1.45L357,354.67V347h2v7.5l5.163-5.433,1.45,1.378L360.329,356H368v2h-7.5l5.433,5.163-1.377,1.45L359,359.33V367Z" fill="#aaa"/>
    <g id="Group_262" data-name="Group 262" transform="translate(-622.083 -465.333)">
      <g id="Group_216" data-name="Group 216" transform="translate(991.083 886.323)">
        <path id="Path_95" data-name="Path 95" d="M1035.746,892.892v-9.059H991.083v9.059c0,6.852,3.191,8.007,8.275,8.007h44.164C1038.848,900.9,1035.746,898.323,1035.746,892.892Z" transform="translate(-991.083 -883.389)" fill="none" stroke="#023975" stroke-linecap="round" stroke-linejoin="round" stroke-width="4"/>
        <path id="Path_96" data-name="Path 96" d="M1043.319,883.417v9.5c0,5.975-4.115,8.008-8.4,8.008" transform="translate(-982.478 -883.417)" fill="none" stroke="#023975" stroke-linecap="round" stroke-linejoin="round" stroke-width="4"/>
      </g>
      <g id="Group_217" data-name="Group 217" transform="translate(1002.875 839.833)">
        <path id="Path_97" data-name="Path 97" d="M1041.941,886.323V848.9c0-3.03-.427-9.067,6.374-9.067" transform="translate(-992.892 -839.833)" fill="none" stroke="#023975" stroke-linecap="round" stroke-linejoin="round" stroke-width="4"/>
        <path id="Path_98" data-name="Path 98" d="M1050.209,856.9h12.939v-8c0-3.119-.028-9.067-6.785-9.067h-45.88c-5.484,0-9.543,3.091-9.543,9.067v37.867" transform="translate(-1000.94 -839.833)" fill="none" stroke="#023975" stroke-linecap="round" stroke-linejoin="round" stroke-width="4"/>
      </g>
      <path id="Path_116" data-name="Path 116" d="M385.849,391.509l7.864,7.864,14.093-14.093" transform="translate(630.083 463.927)" fill="none" stroke="#023975" stroke-linecap="round" stroke-linejoin="round" stroke-width="4"/>
      <line id="Line_339" data-name="Line 339" x2="11" transform="translate(1011.91 870.833)" fill="none" stroke="#023975" stroke-linecap="round" stroke-width="4"/>
      <line id="Line_342" data-name="Line 342" x2="11" transform="translate(1030.91 870.833)" fill="none" stroke="#023975" stroke-linecap="round" stroke-width="4"/>
      <line id="Line_340" data-name="Line 340" x2="11" transform="translate(1011.91 878.368)" fill="none" stroke="#023975" stroke-linecap="round" stroke-width="4"/>
      <line id="Line_341" data-name="Line 341" x2="11" transform="translate(1030.91 878.368)" fill="none" stroke="#023975" stroke-linecap="round" stroke-width="4"/>
    </g>
  </g>
</svg>
