<svg xmlns="http://www.w3.org/2000/svg" width="104" height="108" viewBox="0 0 104 108">
  <g id="message_box_icon_07" transform="translate(-348 -347)">
    <circle id="Ellipse_10" data-name="Ellipse 10" cx="30" cy="30" r="30" transform="translate(392 395)" fill="#f5f6f8"/>
    <path id="Rectangle_570" data-name="Rectangle 570" d="M357,367v-7.5l-5.164,5.434-1.45-1.377L355.67,358H348v-2h7.5l-5.434-5.164,1.378-1.45L357,354.67V347h2v7.5l5.163-5.433,1.45,1.378L360.329,356H368v2h-7.5l5.433,5.163-1.377,1.45L359,359.33V367Z" fill="#aaa"/>
    <g id="Group_236" data-name="Group 236" transform="translate(222.5 -622.75)">
      <path id="Path_100" data-name="Path 100" d="M183.5,1041.75l-38-24.5,38-24.5,38,24.5Z" fill="none" stroke="#023975" stroke-linecap="round" stroke-linejoin="round" stroke-width="5"/>
      <path id="Path_101" data-name="Path 101" d="M181.424,1015.1l17,10v26" transform="translate(6.077 3.653)" fill="none" stroke="#023975" stroke-linecap="round" stroke-linejoin="round" stroke-width="5"/>
      <path id="Path_102" data-name="Path 102" d="M154,1019.25v19.585l28,18.415,28-18.415V1019.25" transform="translate(1.501 5.5)" fill="none" stroke="#023975" stroke-linecap="round" stroke-linejoin="round" stroke-width="5"/>
      <circle id="Ellipse_93" data-name="Ellipse 93" cx="4" cy="4" r="4" transform="translate(200.501 1056.75)" fill="none" stroke="#023975" stroke-linecap="round" stroke-linejoin="round" stroke-width="5"/>
    </g>
  </g>
</svg>
