<svg xmlns="http://www.w3.org/2000/svg" width="104" height="108" viewBox="0 0 104 108">
  <g id="message_box_icon_03" transform="translate(-348 -347)">
    <circle id="Ellipse_10" data-name="Ellipse 10" cx="30" cy="30" r="30" transform="translate(392 395)" fill="#f5f6f8"/>
    <path id="Rectangle_570" data-name="Rectangle 570" d="M357,367v-7.5l-5.164,5.434-1.45-1.377L355.67,358H348v-2h7.5l-5.434-5.164,1.378-1.45L357,354.67V347h2v7.5l5.163-5.433,1.45,1.378L360.329,356H368v2h-7.5l5.433,5.163-1.377,1.45L359,359.33V367Z" fill="#aaa"/>
    <g id="아이콘" transform="translate(50.138 -628.5)">
      <rect id="Rectangle_64" data-name="Rectangle 64" width="64" height="48" transform="translate(317.862 1010.5)" fill="none" stroke="#023975" stroke-linecap="round" stroke-linejoin="round" stroke-width="4"/>
      <rect id="Rectangle_65" data-name="Rectangle 65" width="32" height="48" transform="translate(373.863 1018.5) rotate(90)" fill="none" stroke="#023975" stroke-linecap="round" stroke-linejoin="round" stroke-width="4"/>
      <circle id="Ellipse_97" data-name="Ellipse 97" cx="5" cy="5" r="5" transform="translate(345.69 991.5)" fill="none" stroke="#023975" stroke-linecap="round" stroke-linejoin="round" stroke-width="4"/>
      <g id="Group_233" data-name="Group 233" transform="translate(330.863 997.876)">
        <line id="Line_188" data-name="Line 188" x1="14" y2="12" transform="translate(0 -0.376)" fill="none" stroke="#023975" stroke-linecap="round" stroke-linejoin="round" stroke-width="4"/>
        <line id="Line_189" data-name="Line 189" x2="14" y2="12" transform="translate(26 -0.376)" fill="none" stroke="#023975" stroke-linecap="round" stroke-linejoin="round" stroke-width="4"/>
      </g>
      <g id="Group_235" data-name="Group 235" transform="translate(3.828 -2.402)">
        <rect id="Rectangle_66" data-name="Rectangle 66" width="24" height="14" rx="4" transform="translate(330.034 1038.902)" fill="none" stroke="#023975" stroke-linecap="round" stroke-linejoin="round" stroke-width="4"/>
        <line id="Line_191" data-name="Line 191" y1="14" transform="translate(346.034 1038.902)" fill="none" stroke="#023975" stroke-linecap="round" stroke-linejoin="round" stroke-width="4"/>
        <line id="Line_192" data-name="Line 192" y1="14" transform="translate(338.034 1038.902)" fill="none" stroke="#023975" stroke-linecap="round" stroke-linejoin="round" stroke-width="4"/>
      </g>
    </g>
  </g>
</svg>
