<svg xmlns="http://www.w3.org/2000/svg" width="104" height="108" viewBox="0 0 104 108">
  <g id="message_box_icon_04" transform="translate(-348 -347)">
    <circle id="Ellipse_10" data-name="Ellipse 10" cx="30" cy="30" r="30" transform="translate(392 395)" fill="#f5f6f8"/>
    <path id="Rectangle_570" data-name="Rectangle 570" d="M357,367v-7.5l-5.164,5.434-1.45-1.377L355.67,358H348v-2h7.5l-5.434-5.164,1.378-1.45L357,354.67V347h2v7.5l5.163-5.433,1.45,1.378L360.329,356H368v2h-7.5l5.433,5.163-1.377,1.45L359,359.33V367Z" fill="#aaa"/>
    <g id="Group_176" data-name="Group 176" transform="translate(-114.57 -625.668)">
      <path id="Path_17" data-name="Path 17" d="M497.172,1020.858l-5.087-3.419c1.436.87,4.367-.881,6.547-3.909,2.723-3.786,3.476-7.736,1.68-8.821-2.245-1.358-6.824,1.377-10.229,6.109-.4.551-.767,1.1-1.109,1.656-3.331,5.37-4.062,10.589-1.517,12.127,2.279,1.378,6.1.058,9.952-3.064a33.767,33.767,0,0,0,6.031-6.481c6.65-9.242,8.487-18.885,4.1-21.537-5.48-3.316-16.661,3.361-24.973,14.914l6.065,4.01" transform="translate(0 0)" fill="none" stroke="#023975" stroke-linecap="round" stroke-linejoin="round" stroke-width="4"/>
      <path id="Path_18" data-name="Path 18" d="M505.35,1024.429" transform="translate(2.583 3.602)" fill="none" stroke="#023975" stroke-linecap="round" stroke-linejoin="round" stroke-width="4"/>
      <path id="Path_19" data-name="Path 19" d="M513.018,1031.987" transform="translate(3.453 4.459)" fill="none" stroke="#023975" stroke-linecap="round" stroke-linejoin="round" stroke-width="4"/>
      <path id="Path_20" data-name="Path 20" d="M508.132,994.144l16.144,23.011a33.429,33.429,0,0,0,6.058,6.257l23.076,18.794s2.5,4.518-2.227,10.948a13.569,13.569,0,0,1-11.32,5.753l-20.778-20.018a33.382,33.382,0,0,0-10.119-6.71l-22.009-7.746" transform="translate(0.498 0.167)" fill="none" stroke="#023975" stroke-linecap="round" stroke-linejoin="round" stroke-width="4"/>
      <line id="Line_91" data-name="Line 91" x2="5.72" y2="5.933" transform="translate(500.312 1004.708)" fill="none" stroke="#023975" stroke-linecap="round" stroke-linejoin="round" stroke-width="4"/>
      <path id="Path_21" data-name="Path 21" d="M507.529,1030.986s-1.741,3.221,1.17,4.579c1.78.831,4.515.309,7.549-1.845a25.844,25.844,0,0,0,4.838-4.557c5.453-6.585,7.363-13.678,4.265-15.842a3.175,3.175,0,0,0-3.533.221" transform="translate(2.772 2.294)" fill="none" stroke="#023975" stroke-linecap="round" stroke-linejoin="round" stroke-width="4"/>
      <path id="Path_22" data-name="Path 22" d="M509.416,1035.73c1.567,1.186,4.35,1.249,7.768-.22a25.822,25.822,0,0,0,5.686-3.442c6.713-5.294,10.068-11.829,7.493-14.6a3.175,3.175,0,0,0-3.5-.523" transform="translate(3.044 2.722)" fill="none" stroke="#023975" stroke-linecap="round" stroke-linejoin="round" stroke-width="4"/>
      <path id="Path_23" data-name="Path 23" d="M510.152,1033.942l-.917-.116a7.552,7.552,0,0,0-8.479,7.907h0a7.552,7.552,0,0,0,8.263,7.1l5.413-.52a7.55,7.55,0,0,1,7.913,5.209l1.3,4.043" transform="translate(2.061 4.66)" fill="none" stroke="#023975" stroke-linecap="round" stroke-linejoin="round" stroke-width="4"/>
    </g>
  </g>
</svg>
