<svg xmlns="http://www.w3.org/2000/svg" width="104" height="108" viewBox="0 0 104 108">
  <g id="message_box_icon_09" transform="translate(-348 -347)">
    <circle id="Ellipse_10" data-name="Ellipse 10" cx="30" cy="30" r="30" transform="translate(392 395)" fill="#f5f6f8"/>
    <path id="Rectangle_570" data-name="Rectangle 570" d="M357,367v-7.5l-5.164,5.434-1.45-1.377L355.67,358H348v-2h7.5l-5.434-5.164,1.378-1.45L357,354.67V347h2v7.5l5.163-5.433,1.45,1.378L360.329,356H368v2h-7.5l5.433,5.163-1.377,1.45L359,359.33V367Z" fill="#aaa"/>
    <g id="Group_194" data-name="Group 194" transform="translate(-277.885 -462.695)">
      <g id="Group_190" data-name="Group 190">
        <line id="Line_149" data-name="Line 149" x2="7.25" transform="translate(689.75 847.692)" fill="none" stroke="#023975" stroke-linecap="round" stroke-linejoin="round" stroke-width="4"/>
        <line id="Line_150" data-name="Line 150" x2="11.25" transform="translate(668.5 847.692)" fill="none" stroke="#023975" stroke-linecap="round" stroke-linejoin="round" stroke-width="4"/>
        <path id="Path_69" data-name="Path 69" d="M707.75,847.692h4.535a1,1,0,0,1,1,1v37.9a1,1,0,0,1-1,1h-56.8a1,1,0,0,1-1-1v-37.9a1,1,0,0,1,1-1h7.765" fill="none" stroke="#023975" stroke-linecap="round" stroke-linejoin="round" stroke-width="4"/>
        <line id="Line_151" data-name="Line 151" x2="27.981" transform="translate(669.895 898.049)" fill="none" stroke="#023975" stroke-linecap="round" stroke-linejoin="round" stroke-width="4"/>
        <line id="Line_152" data-name="Line 152" x2="58.8" transform="translate(654.485 880.68)" fill="none" stroke="#023975" stroke-linecap="round" stroke-linejoin="round" stroke-width="4"/>
        <line id="Line_153" data-name="Line 153" y2="10.456" transform="translate(677.06 887.592)" fill="none" stroke="#023975" stroke-linecap="round" stroke-linejoin="round" stroke-width="4"/>
        <line id="Line_154" data-name="Line 154" y2="10.106" transform="translate(690.71 887.767)" fill="none" stroke="#023975" stroke-linecap="round" stroke-linejoin="round" stroke-width="4"/>
      </g>
      <g id="Group_191" data-name="Group 191">
        <path id="Path_70" data-name="Path 70" d="M684.844,839.838a.521.521,0,0,0-.52-.5.763.763,0,0,0-.559.483L675.8,855.314a.408.408,0,0,0-.017.343l5.048,12.088a.35.35,0,0,0,.029.058v2.809a.411.411,0,0,0,.412.412l6.595.09a.423.423,0,0,0,.411-.412v-3.02a.466.466,0,0,0,0-.053l5.567-11.937a.411.411,0,0,0-.016-.346l-8.209-15.7a.411.411,0,0,0-.776.191l-.192,12.762" fill="none" stroke="#023975" stroke-linecap="round" stroke-linejoin="round" stroke-width="4"/>
        <path id="Path_71" data-name="Path 71" d="M683.039,856.524a2.265,2.265,0,1,1,3.2,0A2.266,2.266,0,0,1,683.039,856.524Z" fill="none" stroke="#023975" stroke-linecap="round" stroke-linejoin="round" stroke-width="4"/>
        <line id="Line_155" data-name="Line 155" x2="0.591" y2="9.696" transform="translate(688.281 870.703)" fill="none" stroke="#023975" stroke-linecap="round" stroke-linejoin="round" stroke-width="4"/>
        <line id="Line_156" data-name="Line 156" x1="1.196" y2="9.868" transform="translate(679.667 870.612)" fill="none" stroke="#023975" stroke-linecap="round" stroke-linejoin="round" stroke-width="4"/>
      </g>
      <path id="Path_72" data-name="Path 72" d="M697.25,879.75V843h10v36.75" fill="none" stroke="#023975" stroke-linecap="round" stroke-linejoin="round" stroke-width="4"/>
      <line id="Line_157" data-name="Line 157" x2="4" transform="translate(698 851.25)" fill="none" stroke="#023975" stroke-linecap="round" stroke-linejoin="round" stroke-width="4"/>
      <line id="Line_158" data-name="Line 158" x2="4" transform="translate(698 858.5)" fill="none" stroke="#023975" stroke-linecap="round" stroke-linejoin="round" stroke-width="4"/>
      <line id="Line_159" data-name="Line 159" x2="4" transform="translate(698 865.75)" fill="none" stroke="#023975" stroke-linecap="round" stroke-linejoin="round" stroke-width="4"/>
      <line id="Line_160" data-name="Line 160" x2="4" transform="translate(698 873)" fill="none" stroke="#023975" stroke-linecap="round" stroke-linejoin="round" stroke-width="4"/>
      <g id="Group_193" data-name="Group 193">
        <path id="Path_73" data-name="Path 73" d="M661,879.75v-25.5h10v25.5" fill="none" stroke="#023975" stroke-linecap="round" stroke-linejoin="round" stroke-width="4"/>
        <g id="Group_192" data-name="Group 192">
          <path id="Path_74" data-name="Path 74" d="M661,854.25l5-12,5,12" fill="none" stroke="#023975" stroke-linecap="round" stroke-linejoin="round" stroke-width="4"/>
          <line id="Line_161" data-name="Line 161" y2="25.5" transform="translate(666 854.25)" fill="none" stroke="#023975" stroke-linecap="round" stroke-linejoin="round" stroke-width="4"/>
        </g>
      </g>
    </g>
  </g>
</svg>
