<svg xmlns="http://www.w3.org/2000/svg" width="24" height="24" viewBox="0 0 24 24"><path d="M10.406-.015a10.406,10.406,0,1,0,0,20.812,10.285,10.285,0,0,0,4.935-1.219,2.973,2.973,0,0,0,.386.386L18.7,22.937a3.033,3.033,0,1,0,4.281-4.281l-2.973-2.973a2.973,2.973,0,0,0-.476-.386,10.266,10.266,0,0,0,1.308-4.935A10.417,10.417,0,0,0,10.435-.045Zm0,2.973a7.4,7.4,0,0,1,7.433,7.433A7.455,7.455,0,0,1,15.876,15.5l-.089.089a2.973,2.973,0,0,0-.386.386,7.44,7.44,0,0,1-5.024,1.873,7.433,7.433,0,1,1,0-14.865Z" transform="translate(0 0.045)" fill="#fff"/></svg>