<svg xmlns="http://www.w3.org/2000/svg" width="20" height="22" viewBox="0 0 20 22"><g transform="translate(-2 -1)"><path d="M21,5a3,3,0,1,1-3-3A3,3,0,0,1,21,5Z" fill="none" stroke="#b3bbc4" stroke-linecap="round" stroke-linejoin="round" stroke-width="2"/><path d="M9,12A3,3,0,1,1,6,9,3,3,0,0,1,9,12Z" fill="none" stroke="#b3bbc4" stroke-linecap="round" stroke-linejoin="round" stroke-width="2"/><path d="M21,19a3,3,0,1,1-3-3A3,3,0,0,1,21,19Z" fill="none" stroke="#b3bbc4" stroke-linecap="round" stroke-linejoin="round" stroke-width="2"/><path d="M8.59,13.51l6.83,3.98" fill="none" stroke="#b3bbc4" stroke-linecap="round" stroke-linejoin="round" stroke-width="2"/><path d="M15.41,6.51,8.59,10.49" fill="none" stroke="#b3bbc4" stroke-linecap="round" stroke-linejoin="round" stroke-width="2"/></g></svg>