<?xml version="1.0" encoding="utf-8"?>
<!-- Generator: Adobe Illustrator 25.1.0, SVG Export Plug-In . SVG Version: 6.00 Build 0)  -->
<svg version="1.1" id="레이어_1" xmlns="http://www.w3.org/2000/svg" xmlns:xlink="http://www.w3.org/1999/xlink" x="0px"
	 y="0px" viewBox="0 0 170 44" style="enable-background:new 0 0 170 44;" xml:space="preserve">
<style type="text/css">
	.st0{fill:#FFFFFF;}
	.st1{fill:#FFFFFF;}
</style>
<g>
	<g>
		<g>
			<g>
				<g>
					<path class="st0" d="M5.37,18.46c-0.12,0.6-0.5,0.99-1.01,0.89c-0.53-0.1-0.77-0.66-0.66-1.17c0.02-0.12,0.06-0.22,0.13-0.32
						c-0.06,0.4,0.1,0.87,0.54,0.96c0.4,0.08,0.62-0.17,0.7-0.54c0.02-0.11,0.03-0.22,0.04-0.32l-2.08-0.41
						c-0.26-0.05-0.44-0.09-0.63,0.12l-0.02,0l0.18-0.91l0.01,0c0.04,0.25,0.38,0.29,0.59,0.33l1.74,0.34
						c0.21,0.04,0.54,0.13,0.68-0.07l0.01,0L5.37,18.46z"/>
					<path class="st0" d="M2.29,21.59c-0.27-0.21-0.36-0.6-0.36-0.92c0.01-0.31,0.12-0.63,0.36-0.83c0.28-0.24,0.6-0.22,0.93-0.21
						l1.25,0.04c0.21,0.01,0.56,0.05,0.65-0.18h0.01l-0.03,0.88H5.1c-0.08-0.23-0.43-0.22-0.64-0.22L3.21,20.1
						c-0.62-0.02-0.92,0.23-0.94,0.71c-0.01,0.26,0.09,0.53,0.3,0.69C2.72,21.61,2.83,21.6,3,21.61l1.41,0.05
						c0.21,0.01,0.55,0.04,0.65-0.19l0.01,0l-0.03,0.88l-0.01,0c-0.08-0.24-0.42-0.22-0.64-0.23l-1.77-0.06
						c-0.21,0-0.55-0.05-0.65,0.19H1.96l0.02-0.68L2.29,21.59z"/>
					<path class="st0" d="M4.77,24.43c0.16-0.2,0.23-0.5,0.2-0.76c-0.03-0.26-0.18-0.58-0.5-0.54c-0.64,0.08-0.42,1.67-1.28,1.78
						c-0.5,0.07-1.03-0.39-1.13-1.11c-0.04-0.28-0.03-0.57,0.03-0.84l0.57-0.21c-0.2,0.3-0.3,0.7-0.25,1.06
						c0.03,0.26,0.24,0.64,0.57,0.6c0.73-0.1,0.39-1.67,1.38-1.79c0.59-0.07,0.89,0.49,0.96,1.06c0.03,0.23,0.03,0.47-0.01,0.7
						L4.77,24.43z"/>
					<path class="st0" d="M4.28,26.72l-0.25-0.88l1.27,0.12L4.28,26.72z M3.98,26.94l-0.57,0.42c-0.28,0.21-0.32,0.26-0.49,0.07
						l-0.01,0l0.27,0.92l0.01,0c0.06-0.29,0.29-0.44,0.52-0.62l2.05-1.59l-0.2-0.71l-0.02,0c-0.01,0.23-0.22,0.2-0.4,0.19l-2.1-0.22
						c-0.29-0.03-0.56-0.03-0.77-0.26l-0.01,0l0.23,0.82l0.02,0c0.02-0.24,0.16-0.24,0.44-0.22l0.7,0.05L3.98,26.94z"/>
					<path class="st0" d="M4.05,28.78c-0.24,0.11-0.41,0.19-0.43,0.48l-0.01,0.01l-0.36-0.74l0.01-0.01
						c0.24,0.16,0.41,0.08,0.64-0.04l1.68-0.81c0.24-0.12,0.41-0.2,0.43-0.48l0.01-0.01l0.3,0.61l-0.01,0
						c-0.04,0.04-0.06,0.07-0.08,0.11l-0.05,0.1L5,30.48l1.6-0.77c0.24-0.11,0.41-0.19,0.42-0.47l0.01-0.01l0.36,0.74l-0.01,0
						c-0.23-0.16-0.4-0.08-0.64,0.04l-2.37,1.15c-0.04-0.35,0.03-0.54,0.18-0.84l1.13-2.32L4.05,28.78z"/>
					<path class="st0" d="M6.7,33.32c-0.2,0.17-0.34,0.3-0.28,0.58L6.41,33.9l-0.56-0.61l0.01-0.01c0.27,0.09,0.42-0.04,0.61-0.21
						l1.39-1.24c0.19-0.17,0.33-0.3,0.27-0.57l0.01-0.01l0.46,0.51l0,0c-0.03,0.05-0.04,0.08-0.04,0.13l-0.03,0.11l-0.46,2.7
						l1.32-1.18c0.2-0.17,0.34-0.3,0.28-0.57l0.01-0.01l0.55,0.61l-0.01,0.01c-0.27-0.09-0.41,0.03-0.6,0.21l-1.96,1.75
						c-0.14-0.32-0.12-0.53-0.06-0.86l0.44-2.54L6.7,33.32z"/>
					<path class="st0" d="M10.57,35.9l-0.73-0.57l1.09-0.64L10.57,35.9z M10.46,36.26l-0.21,0.67c-0.1,0.33-0.1,0.4-0.35,0.34
						L9.9,37.28l0.76,0.59l0.01-0.01c-0.13-0.27-0.03-0.53,0.04-0.8l0.71-2.48l-0.59-0.45l-0.01,0.01c0.13,0.19-0.06,0.29-0.21,0.38
						l-1.82,1.05c-0.25,0.15-0.47,0.3-0.77,0.24l-0.01,0.01l0.68,0.52l0.01-0.01c-0.12-0.2-0.01-0.29,0.22-0.43l0.6-0.37
						L10.46,36.26z"/>
					<path class="st0" d="M12.05,37.96c-0.14,0.23-0.23,0.39-0.09,0.63l0,0.01l-0.81-0.46l0.01-0.01c0.25,0.04,0.4-0.27,0.5-0.45
						l1.05-1.8l-0.36-0.21c-0.18-0.1-0.38-0.16-0.58-0.12l-0.01-0.01l0.42-0.4l0.01,0.01c0.04,0.05,0.09,0.08,0.14,0.12l0.1,0.06
						l1.51,0.87c0.07,0.04,0.13,0.07,0.2,0.08l0.01,0.01l-0.41,0.41l-0.01-0.01c0.03-0.17-0.12-0.29-0.25-0.36l-0.37-0.21
						L12.05,37.96z"/>
					<path class="st0" d="M14.27,37.06c0.09-0.2,0.25-0.49,0.07-0.67l0-0.01l0.82,0.36l0,0.01c-0.25-0.01-0.37,0.32-0.45,0.51
						L14,38.86c-0.09,0.19-0.25,0.49-0.07,0.67l-0.01,0.01l-0.82-0.35l0.01-0.01c0.25,0.02,0.36-0.31,0.44-0.5L14.27,37.06z"/>
					<path class="st0" d="M16.87,37.58c0.71,0.2,0.96,0.95,0.77,1.6c-0.19,0.67-0.77,1.05-1.46,0.85c-0.71-0.19-0.98-0.97-0.8-1.59
						C15.58,37.76,16.17,37.39,16.87,37.58z M17,37.27c-0.94-0.29-1.89,0.22-2.13,1.07c-0.26,0.92,0.32,1.76,1.21,2.01
						c0.9,0.25,1.85-0.2,2.11-1.12C18.41,38.43,17.95,37.52,17,37.27z"/>
					<path class="st0" d="M18.95,40.24c-0.02,0.26-0.04,0.45,0.2,0.61l0,0.01l-0.83-0.06v-0.01c0.26-0.13,0.28-0.31,0.3-0.57
						l0.14-1.85c0.02-0.26,0.03-0.45-0.2-0.6v-0.01l0.69,0.05l0,0c0.01,0.06,0.03,0.08,0.06,0.12l0.06,0.1l1.55,2.27l0.13-1.76
						c0.02-0.26,0.04-0.44-0.2-0.6l0-0.01l0.82,0.06l0,0.01c-0.25,0.12-0.27,0.31-0.29,0.57l-0.19,2.6
						c-0.33-0.14-0.46-0.3-0.64-0.58l-1.45-2.14L18.95,40.24z"/>
					<path class="st0" d="M23.6,39.39l-0.92,0.09l0.34-1.21L23.6,39.39z M23.77,39.72l0.32,0.63c0.16,0.31,0.2,0.36-0.02,0.48
						l0,0.01l0.96-0.1l0-0.01c-0.28-0.11-0.39-0.36-0.52-0.61l-1.22-2.28l-0.74,0.08v0.01c0.23,0.05,0.17,0.25,0.11,0.42l-0.58,2.01
						c-0.08,0.27-0.13,0.54-0.38,0.7l0,0.01L22.56,41l0-0.01c-0.23-0.06-0.21-0.2-0.14-0.47l0.17-0.68L23.77,39.72z"/>
					<path class="st0" d="M26.58,39.96c0.32-0.07,0.55-0.24,0.73-0.49l0.01,0l-0.07,0.66l-1.87,0.49l0-0.01
						c0.21-0.14,0.09-0.47,0.04-0.67l-0.45-1.7c-0.06-0.21-0.12-0.54-0.37-0.57l0-0.01l0.87-0.23l0,0.01
						c-0.21,0.15-0.09,0.47-0.03,0.67l0.53,1.96L26.58,39.96z"/>
					<path class="st0" d="M31.21,37.96c-0.05,0.33-0.34,0.62-0.63,0.77c-0.27,0.15-0.61,0.22-0.9,0.12
						c-0.35-0.12-0.49-0.39-0.65-0.69l-0.6-1.09c-0.1-0.18-0.24-0.5-0.49-0.46l0-0.01l0.78-0.42l0.01,0.01
						c-0.16,0.19,0.02,0.48,0.13,0.66l0.6,1.09c0.3,0.54,0.67,0.67,1.09,0.44c0.23-0.12,0.41-0.34,0.45-0.61
						c0.02-0.17-0.04-0.27-0.12-0.42l-0.68-1.23c-0.1-0.18-0.24-0.5-0.49-0.46l-0.01-0.01l0.78-0.42l0.01,0.01
						c-0.17,0.19,0.02,0.48,0.13,0.66l0.85,1.54c0.1,0.18,0.24,0.49,0.5,0.46l0.01,0.01l-0.61,0.33L31.21,37.96z"/>
					<path class="st0" d="M32.75,36.55c0.17,0.2,0.29,0.35,0.57,0.3l0.01,0.01l-0.64,0.53l-0.01-0.01c0.1-0.27-0.02-0.41-0.19-0.61
						l-1.2-1.43c-0.17-0.2-0.29-0.34-0.57-0.29l-0.01-0.01l0.53-0.44l0,0c0.05,0.03,0.08,0.04,0.13,0.05l0.11,0.03l2.71,0.56
						l-1.14-1.35c-0.17-0.2-0.28-0.35-0.57-0.3l-0.01-0.01l0.64-0.53l0.01,0.01c-0.1,0.26,0.02,0.41,0.19,0.6L35,35.67
						c-0.33,0.13-0.54,0.1-0.87,0.03l-2.55-0.53L32.75,36.55z"/>
					<path class="st0" d="M33.99,32.97c-0.16-0.14-0.4-0.39-0.62-0.27l-0.01-0.01l0.59-0.66l0.01,0.01
						c-0.09,0.23,0.19,0.44,0.35,0.58l1.32,1.17c0.16,0.14,0.39,0.39,0.62,0.27l0.01,0.01l-0.59,0.66l-0.01-0.01
						c0.09-0.23-0.19-0.44-0.34-0.58L33.99,32.97z"/>
					<path class="st0" d="M35.96,30.67c-0.2-0.29-0.43-0.64-0.69-0.47l-0.01,0l0.4-0.57l1.94,2.84c-0.36,0.14-0.46,0.21-0.84,0.11
						l-1.98-0.51c-0.25-0.07-0.51-0.16-0.76-0.08l-0.01-0.01l0.39-0.56l0.04,0.04c0.09,0.06,0.33,0.12,0.43,0.14l2.1,0.55
						L35.96,30.67z"/>
					<path class="st0" d="M38.41,30.05l0.31-0.51c0.16-0.27,0.21-0.6,0.13-0.9l0-0.01l0.46,0.45l-0.86,1.74l-0.01-0.01
						c0.03-0.25-0.3-0.38-0.49-0.47l-1.59-0.77c-0.19-0.09-0.49-0.27-0.68-0.09l-0.01-0.01l0.66-1.34c0.03-0.07,0.08-0.14,0.08-0.21
						l0-0.01l0.5,0.24l-0.01,0.01c-0.22,0.06-0.32,0.22-0.41,0.41c-0.07,0.15-0.14,0.29-0.18,0.44l0.78,0.38l0.25-0.5
						c0.03-0.07,0.07-0.13,0.07-0.2l0-0.01l0.45,0.22l-0.01,0.01c-0.15,0.01-0.24,0.19-0.3,0.31l-0.15,0.31L38.41,30.05z"/>
					<path class="st0" d="M36.94,26.49c0.2-0.59,0.61-0.81,1.02-0.68c0.39,0.13,0.59,0.57,0.56,0.96l1.02-0.38
						c0.29-0.11,0.62-0.31,0.86-0.51l-0.14,0.4c-0.08,0.24-0.18,0.36-0.39,0.44l-0.85,0.32l-0.76,0.2c0.06-0.37,0.03-0.84-0.39-0.97
						c-0.32-0.1-0.6,0.11-0.68,0.41c-0.03,0.1-0.05,0.2-0.06,0.31l2,0.65c0.2,0.07,0.52,0.2,0.68,0l0.01,0.01l-0.28,0.85l-0.01,0
						c-0.01-0.25-0.35-0.33-0.55-0.4l-1.68-0.54c-0.21-0.07-0.52-0.2-0.68-0.01l-0.01,0L36.94,26.49z"/>
					<path class="st0" d="M38.19,23.48c-0.21,0.15-0.37,0.42-0.41,0.68c-0.04,0.26,0,0.61,0.32,0.66c0.63,0.11,0.89-1.48,1.74-1.34
						c0.5,0.08,0.87,0.67,0.76,1.39c-0.05,0.28-0.14,0.55-0.27,0.8l-0.6,0.04c0.28-0.23,0.49-0.58,0.55-0.94
						c0.04-0.26-0.05-0.68-0.37-0.74c-0.72-0.12-0.86,1.48-1.84,1.32c-0.58-0.09-0.71-0.72-0.62-1.28c0.04-0.23,0.11-0.46,0.22-0.67
						L38.19,23.48z"/>
					<path class="st0" d="M38.32,22.68c-0.22-0.01-0.56-0.06-0.66,0.17h-0.01l0.05-0.88h0.01c0.08,0.24,0.43,0.23,0.64,0.24
						l1.77,0.1c0.21,0.01,0.55,0.06,0.66-0.16h0.01l-0.05,0.88l-0.01,0c-0.07-0.24-0.42-0.23-0.63-0.24L38.32,22.68z"/>
					<path class="st0" d="M40.13,20.28c0.27-0.02,0.45-0.02,0.58-0.28l0.02,0l0.05,0.92l-0.02,0c-0.1-0.23-0.44-0.18-0.65-0.17
						l-2.09,0.11l0.02,0.41c0.01,0.2,0.07,0.4,0.22,0.54l0,0.01l-0.57-0.13l0-0.01c0.02-0.05,0.02-0.12,0.02-0.18l-0.01-0.12
						l-0.1-1.73c0-0.08-0.01-0.15-0.04-0.21l0-0.01l0.57,0.12v0.01c-0.16,0.07-0.17,0.26-0.17,0.41l0.02,0.42L40.13,20.28z"/>
					<path class="st0" d="M39.71,17.49c0.28-0.06,0.41-0.08,0.53-0.35l0.02-0.01l0.18,0.89l-0.01,0c-0.16-0.2-0.45-0.11-0.67-0.06
						l-0.68,0.14l-1.07,1.01c-0.18,0.16-0.31,0.29-0.39,0.53l-0.08-0.41c-0.03-0.15-0.03-0.29,0.06-0.37l1.05-0.98l-0.97-0.39
						c-0.13-0.05-0.37-0.11-0.45,0.17l-0.01,0l-0.17-0.8l1.94,0.78L39.71,17.49z"/>
					<path class="st0" d="M5.39,14.18c0,0.22-0.18,0.4-0.41,0.4c-0.23,0-0.41-0.18-0.41-0.4c0-0.22,0.18-0.4,0.41-0.4
						C5.21,13.78,5.39,13.96,5.39,14.18z"/>
					<path class="st0" d="M38.23,14.18c0,0.22-0.18,0.4-0.41,0.4c-0.23,0-0.41-0.18-0.41-0.4c0-0.22,0.18-0.4,0.41-0.4
						C38.04,13.78,38.23,13.96,38.23,14.18z"/>
				</g>
			</g>
			<g>
				<path class="st0" d="M22.58,2.68h-0.4V1.73H21.7V4.2c-0.16,0.17-0.44,0.16-0.44,0.16h-1.34c-0.02,0-0.04-0.02-0.04-0.04V2.4
					h1.44V2.01h-1.91l0,2.32c0,0.23,0.19,0.41,0.42,0.41h1.42c0,0,0.24,0.02,0.45-0.1v1.33h0.48V3.06h0.4v2.91h0.48V1.73h-0.48V2.68
					z"/>
			</g>
			<polygon class="st0" points="7.12,11.72 8.33,10.38 9.4,11.34 9.72,10.99 8.65,10.03 9.86,8.71 9.58,8.45 6.84,11.46 			"/>
			<path class="st0" d="M6.56,10.56C6.73,10.72,7,10.7,7.15,10.53l1.53-1.67c0.16-0.17,0.14-0.44-0.03-0.59L7.45,7.2L7.13,7.55
				l0.49,0.43L6.17,9.57L5.68,9.14L5.36,9.49L6.56,10.56z M7.9,8.24l0.43,0.38c0.01,0.01,0.02,0.04,0,0.05l-1.4,1.54
				c-0.01,0.01-0.04,0.02-0.05,0L6.45,9.83L7.9,8.24z"/>
			<polygon class="st0" points="14.67,2.88 14.23,3.08 15.5,5.89 15.94,5.7 15.22,4.11 15.8,3.85 15.64,3.5 15.06,3.76 			"/>
			<path class="st0" d="M13.98,7.33L13.5,6.28l-0.43,0.19l0.47,1.04c0.09,0.21,0.34,0.31,0.56,0.21l2.3-1.02l-0.16-0.35l-2.21,0.98
				C14,7.35,13.98,7.34,13.98,7.33z"/>
			<g>
				<path class="st0" d="M12.93,4.21l-0.17-0.38l-0.44,0.19L12.5,4.4c0.5,1.11-0.47,1.82-0.54,1.87l0.42,0.16
					c0.22-0.2,0.68-0.66,0.72-1.27c0.48,0.37,1.13,0.35,1.43,0.31l0.16-0.42C14.59,5.08,13.43,5.31,12.93,4.21z"/>
			</g>
			<g>
				<polygon class="st0" points="35.43,9.74 35.1,9.4 33.89,10.53 33.49,10.11 34.71,8.98 34.39,8.64 33.17,9.77 32.49,9.04 
					32.21,9.3 34.93,12.19 35.21,11.93 34.21,10.87 				"/>
				<path class="st0" d="M35.78,10.2c-0.49,0.46-0.89,0.6-0.89,0.6l0.32,0.34c0,0,0.4-0.15,0.89-0.6l1.23-1.14l0,0h0l-2.15-2.28
					L34.9,7.37l1.83,1.94L35.78,10.2z"/>
			</g>
			<g>
				<polygon class="st0" points="31.08,5.51 31.23,5.16 30.65,4.91 31.03,4.04 30.59,3.85 29.59,6.15 30.03,6.33 30.5,5.26 				"/>
				<polygon class="st0" points="29.95,6.51 27.18,5.31 27.03,5.67 29.36,6.67 28.89,7.75 29.33,7.94 29.95,6.51 29.95,6.51 				"/>
				<path class="st0" d="M30.1,4.05l-1.11-0.48l0.19-0.44l-0.44-0.19l-0.19,0.44l-1.11-0.48l-0.15,0.35l0.54,0.23
					c-0.2,0.09-0.36,0.25-0.45,0.45c-0.22,0.49,0.06,1.08,0.61,1.32c0.55,0.24,1.17,0.03,1.39-0.46c0.09-0.21,0.09-0.43,0.03-0.64
					l0.54,0.23L30.1,4.05z M28.14,4.92c-0.31-0.13-0.45-0.48-0.32-0.78c0.13-0.3,0.49-0.43,0.79-0.3c0.31,0.13,0.45,0.48,0.32,0.78
					C28.81,4.92,28.45,5.05,28.14,4.92z"/>
			</g>
			<g>
				<path class="st0" d="M42.39,21.65c0,11.6-9.4,21-21,21c-11.6,0-21-9.4-21-21c0-11.6,9.4-21,21-21
					C32.98,0.65,42.39,10.05,42.39,21.65z M21.39,0.94c-11.44,0-20.71,9.27-20.71,20.71c0,11.44,9.27,20.71,20.71,20.71
					c11.44,0,20.71-9.27,20.71-20.71C42.1,10.21,32.83,0.94,21.39,0.94z"/>
				<path class="st0" d="M36.6,21.65c0,8.4-6.81,15.22-15.22,15.22c-8.41,0-15.22-6.81-15.22-15.22c0-8.4,6.81-15.22,15.22-15.22
					C29.79,6.43,36.6,13.25,36.6,21.65z M21.39,6.72c-8.25,0-14.93,6.69-14.93,14.93c0,8.25,6.69,14.93,14.93,14.93
					c8.24,0,14.93-6.68,14.93-14.93C36.32,13.41,29.63,6.72,21.39,6.72z"/>
			</g>
		</g>
		<g>
			<path class="st1" d="M30.87,29.91l-7.06,0c-2.18,0.02-2.46,1.46-2.46,1.46c-0.45-1.63-2.55-1.46-2.55-1.46h-6.91V19.78h6.66
				c2.22,0.04,2.8,1.79,2.8,1.79c0.72-1.78,3.01-1.79,3.01-1.79l6.5,0V29.91z M23.92,18.77c-1.94,0.06-2.55,1.2-2.55,1.2
				c-0.62-1.19-2.48-1.19-2.48-1.19h-8v12.13h7.83c1.07,0,1.45,0.5,1.57,0.86h2.16c0.38-0.91,1.47-0.86,1.47-0.86h7.97V18.77H23.92z
				"/>
			<path class="st1" d="M17.27,24.44h-2.92v2.94v0h4.02v-0.01h0v-1.92h1.02v1.93h4.01v-1.93h1.01v1.93h4.01v-1.02h-2.91v-0.91h2.91
				V22.4h-4.01v2.04h-1.01V22.4h-1.1v2.04h-1.82V22.4h-1.09v2.04h-1.01V22.4h-4.02v1.01h2.92V24.44z M17.27,26.37h-1.82v-0.92h1.82
				V26.37z M22.3,26.37h-1.82v-0.92h1.82V26.37z M25.51,23.41h1.82v1.03h-1.82V23.41z"/>
			<g>
				<polygon class="st0" points="20.78,13.15 21.75,12.83 20.78,12.83 				"/>
				<path class="st0" d="M18.68,14.55c0.36-0.37,0.73-0.33,0.73-0.17c0,0.16-0.18,0.35-0.18,0.35h-2.3l-1.26-1.82l0,0
					c-0.31-0.47-0.72-0.67-1.39-0.67c-0.67,0-1.94,0-3.39,0v5.48c2.06,0,7.14-0.01,7.73,0c2.28,0.02,2.73,0.99,2.73,0.99
					c0.48-0.76,1.4-0.99,2.82-0.99c0.7,0,5.68,0,7.71,0l0-5.48c-1.5,0-2.77,0-3.44,0c-0.66,0-1.07,0.2-1.38,0.67h0l-1.29,1.82
					c0,0-1.03,0-1.91,0v-1.62l1.31-1.28l-1.35,0l0.34-0.3h-2.74c-0.55,0-0.98,0.22-1.14,0.54h-0.96c-0.89,0-1.21,0.5-1.03,1.16
					L18.68,14.55z M30.87,16.71c-3.64,0-3.78,0-6.44,0c-1.72,0-2.52,0.12-3.06,0.71c-0.59-0.57-1.05-0.71-2.76-0.71
					c-1.45,0-5.49,0-6.7,0v-3.46H14c0.21,0,0.38,0.04,0.5,0.1c0.08,0.05,0.24,0.15,0.35,0.3c0.14,0.19,1.39,2.02,1.39,2.02h3.6
					c0,0,0.34-0.69,0.54-1.18c0.21-0.49,0.14-0.83-0.31-0.86c-0.38-0.03-0.61,0.06-0.65,0.21l-0.16-0.55
					c-0.1-0.28-0.03-0.48,0.36-0.48h1.17c0,0.01,0.02-0.38,0.66-0.38h1.92l-0.54,0.5v2.73h3.73c0,0,1.19-1.83,1.33-2.02
					c0.11-0.15,0.26-0.25,0.35-0.3c0.11-0.06,0.29-0.11,0.49-0.11l2.14,0V16.71z"/>
			</g>
			<path class="st1" d="M19.77,28.46c0.14-0.05,0.26-0.15,0.33-0.27h0.01v0.87c0,0.09-0.01,0.16,0.08,0.21v0.01h-0.32v-0.01
				c0.1-0.05,0.09-0.12,0.09-0.21v-0.59L19.77,28.46L19.77,28.46z"/>
			<path class="st1" d="M20.56,29.21c0.25-0.05,0.48-0.28,0.48-0.53c0-0.15-0.09-0.33-0.27-0.33c-0.13,0-0.23,0.1-0.23,0.23
				c0,0.14,0.09,0.25,0.24,0.25c0.06,0,0.11-0.02,0.16-0.05l-0.1,0.13c-0.04,0.01-0.08,0.02-0.13,0.02c-0.18,0-0.32-0.14-0.32-0.32
				c0-0.23,0.18-0.38,0.4-0.38c0.24,0,0.4,0.19,0.4,0.42c0,0.17-0.09,0.35-0.23,0.45c-0.14,0.11-0.3,0.17-0.48,0.19L20.56,29.21z"/>
			<path class="st1" d="M21.79,28.94c-0.14,0-0.25-0.01-0.33-0.01l0.33-0.56V28.94z M21.79,29.07v0.04c0,0.08,0.01,0.13-0.08,0.16
				v0.01h0.3v-0.01c-0.07-0.03-0.07-0.11-0.07-0.17v-0.03h0.12l0.07-0.19c-0.05,0.05-0.13,0.06-0.2,0.06v-0.68h-0.21l-0.48,0.8
				H21.79z"/>
			<path class="st1" d="M22.89,28.33c-0.1,0.01-0.23,0.09-0.3,0.16c-0.11,0.1-0.17,0.23-0.17,0.37c0,0.16,0.09,0.33,0.27,0.33
				c0.14,0,0.22-0.1,0.22-0.23c0-0.15-0.08-0.26-0.24-0.26c-0.06,0-0.12,0.02-0.17,0.05l0.1-0.12c0.04-0.02,0.09-0.03,0.14-0.03
				c0.19,0,0.33,0.13,0.33,0.32c0,0.22-0.17,0.37-0.39,0.37c-0.24,0-0.41-0.19-0.41-0.43c0-0.37,0.37-0.61,0.7-0.63L22.89,28.33z"/>
		</g>
	</g>
	<g>
		<g>
			<g>
				<path class="st0" d="M116.12,11.23h-1.85v-4.5h-2.23v11.66c-0.76,0.82-2.05,0.77-2.05,0.77h-6.25c-0.09,0-0.16-0.08-0.16-0.17
					l0-9.11h6.7v-1.8l-8.93,0l0,10.91c0,1.08,0.88,1.95,1.96,1.95h6.63c0,0,1.09,0.1,2.1-0.47v6.27h2.23V13.03h1.85v13.71h2.22v-20
					h-2.22V11.23z"/>
			</g>
		</g>
		<g>
			<polygon class="st0" points="49.69,20.03 58.13,20.03 58.13,26.74 60.36,26.74 60.36,20.03 68.77,20.03 68.77,18.23 49.69,18.23 
							"/>
			<path class="st0" d="M53.92,16.4h10.62c1.09,0,1.96-0.88,1.96-1.96l0-7.53h-2.22l0,3.05h-10.1V6.91h-2.23l0,7.53
				C51.96,15.52,52.83,16.4,53.92,16.4z M64.28,11.75l0,2.69c0,0.09-0.07,0.17-0.16,0.17h-9.77c-0.09,0-0.16-0.07-0.16-0.17l0-2.69
				H64.28z"/>
		</g>
		<g>
			<polygon class="st0" points="91.81,6.73 89.58,6.73 89.58,21.25 91.81,21.25 91.81,13.03 94.76,13.03 94.76,11.23 91.81,11.23 
							"/>
			<path class="st0" d="M80.33,24.51l0-5.39H78.1l0,5.39c0,1.08,0.88,1.96,1.96,1.96h11.75v-1.79H80.5
				C80.4,24.67,80.33,24.6,80.33,24.51z"/>
			<g>
				<path class="st0" d="M81.86,9.12V7.18h-2.22v1.94c0,5.75-5.5,6.93-5.88,7l1.5,1.5c1.33-0.41,4.17-1.56,5.49-4.07
					c1.32,2.5,4.15,3.65,5.48,4.07l1.5-1.5C87.26,16.03,81.86,14.82,81.86,9.12z"/>
			</g>
		</g>
		<g>
			<g>
				<polygon class="st0" points="162.75,15.26 160.55,15.26 160.55,23.03 157.86,23.03 157.86,15.26 155.67,15.26 155.67,23.03 
					150.99,23.03 150.99,24.81 169.59,24.81 169.59,23.03 162.75,23.03 				"/>
				<path class="st0" d="M165.45,15.54c0,3.16-0.78,4.98-0.78,4.98h2.22c0,0,0.77-1.83,0.77-4.98V7.66h-0.01v0h-14.71v1.77h12.5
					V15.54z"/>
			</g>
		</g>
		<g>
			<polygon class="st0" points="142.72,11.23 142.72,6.74 140.48,6.74 140.48,18.52 142.72,18.52 142.72,13.03 145.68,13.03 
				145.68,11.23 			"/>
			<polygon class="st0" points="142.71,19.41 128.62,19.41 128.62,21.21 140.48,21.21 140.48,26.74 142.72,26.74 142.72,19.42 
				142.71,19.42 			"/>
			<path class="st0" d="M137.08,13.15c0-1.06-0.4-2.03-1.07-2.8h2.75V8.54h-5.64V6.29h-2.23v2.24h-5.63v1.81h2.74
				c-0.67,0.77-1.07,1.74-1.07,2.8c0,2.53,2.28,4.58,5.08,4.58S137.08,15.68,137.08,13.15z M129.17,13.13
				c0-1.54,1.27-2.78,2.83-2.78c1.56,0,2.83,1.25,2.83,2.78c0,1.53-1.27,2.78-2.83,2.78C130.43,15.92,129.17,14.67,129.17,13.13z"/>
		</g>
	</g>
</g>
<g>
	<path class="st0" d="M59.55,39.92H49.24c-0.1,0-0.17-0.02-0.2-0.07C49.02,39.8,49,39.74,49,39.67v-0.86c0-0.09,0.01-0.15,0.04-0.19
		c0.03-0.04,0.09-0.06,0.2-0.06h10.31c0.17,0,0.25,0.08,0.25,0.25v0.86C59.8,39.84,59.72,39.92,59.55,39.92z M50.52,36.8
		c-0.11,0.04-0.19,0.05-0.23,0.04c-0.04-0.02-0.08-0.06-0.13-0.14l-0.47-0.84c-0.1-0.18-0.08-0.3,0.06-0.36
		c0.58-0.22,1.1-0.46,1.54-0.74c0.44-0.28,0.82-0.6,1.13-0.95c0.31-0.35,0.56-0.74,0.74-1.18c0.18-0.43,0.3-0.92,0.35-1.45
		c0.02-0.09,0.04-0.15,0.07-0.19c0.03-0.04,0.1-0.06,0.22-0.05l1.14,0.07c0.14,0.02,0.23,0.04,0.26,0.08
		c0.03,0.04,0.03,0.11,0.02,0.22c-0.02,0.22-0.04,0.44-0.07,0.64c0.11,0.4,0.29,0.77,0.53,1.12c0.24,0.34,0.53,0.66,0.87,0.94
		s0.7,0.53,1.1,0.74c0.4,0.21,0.82,0.38,1.25,0.51c0.1,0.03,0.16,0.07,0.17,0.12c0.01,0.05-0.01,0.12-0.06,0.2l-0.43,0.89
		c-0.03,0.05-0.05,0.08-0.06,0.11c-0.02,0.03-0.03,0.05-0.05,0.05c-0.03,0.02-0.1,0.02-0.19,0c-0.35-0.08-0.71-0.21-1.07-0.38
		c-0.36-0.17-0.72-0.37-1.06-0.61c-0.34-0.23-0.66-0.5-0.96-0.79c-0.3-0.3-0.55-0.61-0.77-0.95c-0.42,0.68-0.96,1.27-1.64,1.76
		C52.09,36.14,51.34,36.52,50.52,36.8z"/>
	<path class="st0" d="M66.75,38.6h-3.91c-0.18,0-0.33-0.01-0.45-0.03c-0.12-0.02-0.21-0.06-0.27-0.12
		c-0.06-0.06-0.11-0.14-0.13-0.25c-0.02-0.11-0.04-0.25-0.04-0.44v-5.63c0-0.34,0.06-0.56,0.19-0.66c0.12-0.1,0.33-0.14,0.63-0.14
		h3.98c0.17,0,0.3,0.01,0.41,0.02c0.1,0.02,0.19,0.05,0.25,0.11c0.06,0.06,0.1,0.14,0.13,0.25c0.02,0.11,0.04,0.25,0.04,0.43v5.63
		c0,0.18-0.01,0.32-0.04,0.43c-0.02,0.11-0.07,0.2-0.13,0.26c-0.06,0.06-0.14,0.1-0.25,0.12C67.06,38.59,66.92,38.6,66.75,38.6z
		 M65.91,32.93c0-0.1-0.01-0.17-0.02-0.2c-0.02-0.03-0.07-0.04-0.17-0.04h-1.87c-0.1,0-0.17,0.01-0.2,0.04
		c-0.03,0.02-0.04,0.09-0.04,0.2v4.08c0,0.11,0.01,0.18,0.04,0.2c0.03,0.02,0.09,0.04,0.2,0.04h1.87c0.1,0,0.15-0.01,0.17-0.04
		c0.02-0.03,0.02-0.09,0.02-0.2V32.93z M71.91,36.14h-1.49v5.59c0,0.1-0.01,0.16-0.04,0.19c-0.03,0.03-0.09,0.04-0.17,0.04H69
		c-0.09,0-0.15-0.01-0.19-0.04s-0.05-0.09-0.05-0.19V30.68c0-0.09,0.02-0.15,0.05-0.18s0.1-0.05,0.19-0.05h1.21
		c0.09,0,0.15,0.02,0.17,0.05c0.03,0.03,0.04,0.09,0.04,0.18v4.09h1.49c0.07,0,0.13,0.01,0.17,0.03c0.04,0.02,0.07,0.09,0.07,0.2
		v0.91c0,0.1-0.02,0.16-0.07,0.19C72.04,36.13,71.98,36.14,71.91,36.14z"/>
	<path class="st0" d="M83.91,39.92H73.6c-0.1,0-0.17-0.02-0.2-0.07c-0.03-0.05-0.04-0.11-0.04-0.18v-0.86
		c0-0.09,0.01-0.15,0.04-0.19c0.03-0.04,0.09-0.06,0.2-0.06h10.31c0.17,0,0.25,0.08,0.25,0.25v0.86
		C84.16,39.84,84.08,39.92,83.91,39.92z M82.46,37.04h-6.64c-0.35,0-0.6-0.08-0.76-0.24c-0.15-0.16-0.23-0.4-0.23-0.72v-4.15
		c0-0.34,0.07-0.57,0.22-0.68s0.38-0.17,0.72-0.17h6.62c0.15,0,0.23,0.08,0.23,0.23v0.91c0,0.09-0.02,0.15-0.05,0.18
		c-0.03,0.03-0.09,0.05-0.18,0.05h-5.68c-0.14,0-0.2,0.06-0.2,0.19v0.73h5.71c0.17,0,0.25,0.08,0.25,0.25v0.84
		c0,0.17-0.08,0.25-0.25,0.25h-5.71v0.78c0,0.13,0.07,0.19,0.2,0.19h5.74c0.18,0,0.28,0.07,0.28,0.2v0.91
		C82.74,36.96,82.64,37.04,82.46,37.04z"/>
	<path class="st0" d="M96.09,39.95H85.78c-0.1,0-0.17-0.02-0.2-0.07c-0.03-0.05-0.04-0.11-0.04-0.18v-0.86
		c0-0.09,0.01-0.15,0.04-0.19c0.03-0.04,0.09-0.06,0.2-0.06h2.34v-3.22c0-0.09,0.02-0.15,0.05-0.18c0.03-0.03,0.1-0.05,0.19-0.05
		h1.19c0.1,0,0.16,0.02,0.19,0.05c0.03,0.03,0.05,0.09,0.05,0.18v3.22h0.96v-3.22c0-0.09,0.02-0.15,0.05-0.18
		c0.03-0.03,0.1-0.05,0.19-0.05h1.18c0.1,0,0.17,0.02,0.2,0.05c0.03,0.03,0.05,0.09,0.05,0.18v3.22h3.67c0.17,0,0.25,0.08,0.25,0.25
		v0.86C96.34,39.86,96.26,39.95,96.09,39.95z M94.72,37.04c-0.02,0.12-0.04,0.19-0.08,0.22s-0.12,0.03-0.24,0.01l-1.06-0.11
		c-0.13-0.02-0.2-0.05-0.21-0.11c-0.01-0.06-0.01-0.13,0.01-0.21c0.06-0.29,0.1-0.6,0.14-0.93s0.07-0.67,0.1-1.01
		c0.02-0.34,0.04-0.68,0.05-1.02c0.01-0.34,0.01-0.67,0.01-0.98c0-0.12-0.02-0.21-0.05-0.26c-0.04-0.05-0.15-0.08-0.33-0.08h-5.82
		c-0.08,0-0.14-0.01-0.19-0.03c-0.05-0.02-0.07-0.08-0.07-0.19V31.4c0-0.09,0.02-0.14,0.07-0.17c0.05-0.02,0.11-0.04,0.19-0.04h7.02
		c0.29,0,0.5,0.07,0.64,0.2c0.14,0.13,0.21,0.37,0.21,0.7c0,1.06-0.04,2-0.11,2.83C94.93,35.75,94.84,36.46,94.72,37.04z"/>
	<path class="st0" d="M106.7,41.96h-1.18c-0.17,0-0.25-0.08-0.25-0.24V39.5c0-0.12-0.06-0.18-0.18-0.18h-5.76
		c-0.06,0-0.12-0.01-0.17-0.04c-0.05-0.02-0.07-0.08-0.07-0.17v-0.94c0-0.11,0.02-0.18,0.07-0.2c0.05-0.02,0.1-0.03,0.17-0.03h1.14
		v-0.98h-2.51c-0.1,0-0.16-0.02-0.19-0.05c-0.03-0.03-0.05-0.09-0.05-0.18v-0.86c0-0.09,0.01-0.15,0.04-0.19
		c0.03-0.04,0.09-0.06,0.2-0.06h10.31c0.17,0,0.25,0.08,0.25,0.25v0.86c0,0.1-0.02,0.16-0.07,0.19c-0.05,0.03-0.11,0.04-0.18,0.04
		h-2.51v0.98h0.32c0.18,0,0.32,0.01,0.43,0.04c0.11,0.03,0.19,0.08,0.25,0.15c0.06,0.07,0.1,0.17,0.13,0.28
		c0.02,0.12,0.04,0.26,0.04,0.43v2.87C106.93,41.88,106.85,41.96,106.7,41.96z M103.11,35.05c-0.58,0-1.1-0.05-1.58-0.16
		c-0.48-0.11-0.89-0.26-1.23-0.46c-0.34-0.2-0.61-0.43-0.8-0.7c-0.19-0.27-0.28-0.57-0.28-0.9c0-0.34,0.09-0.64,0.28-0.91
		c0.19-0.27,0.45-0.51,0.8-0.7c0.34-0.2,0.75-0.35,1.23-0.46c0.48-0.11,1-0.16,1.58-0.16s1.1,0.05,1.58,0.16
		c0.48,0.11,0.88,0.26,1.22,0.46s0.6,0.43,0.79,0.7c0.18,0.27,0.28,0.58,0.28,0.91s-0.09,0.64-0.28,0.91
		c-0.18,0.27-0.45,0.5-0.79,0.7c-0.34,0.19-0.75,0.34-1.22,0.45C104.21,35,103.69,35.05,103.11,35.05z M103.11,31.91
		c-0.7,0-1.23,0.09-1.61,0.28c-0.38,0.18-0.56,0.4-0.56,0.65c0,0.11,0.05,0.22,0.14,0.33c0.1,0.11,0.24,0.21,0.43,0.29
		c0.19,0.09,0.42,0.16,0.68,0.22c0.27,0.06,0.57,0.08,0.92,0.08c0.68,0,1.21-0.1,1.58-0.29s0.56-0.4,0.56-0.64
		c0-0.25-0.19-0.46-0.56-0.65C104.32,32,103.79,31.91,103.11,31.91z M102.13,37.95h1.98v-0.98h-1.98V37.95z"/>
	<path class="st0" d="M111.19,37.37c-0.14,0.06-0.23,0.08-0.28,0.06c-0.05-0.02-0.1-0.07-0.14-0.14l-0.5-0.83
		c-0.09-0.13-0.04-0.24,0.16-0.34c0.39-0.22,0.77-0.46,1.14-0.74s0.71-0.56,1.01-0.85c0.31-0.29,0.58-0.58,0.8-0.88
		c0.23-0.29,0.4-0.56,0.52-0.81c0.06-0.14,0.09-0.23,0.08-0.29c-0.01-0.06-0.08-0.08-0.2-0.08h-2.64c-0.11,0-0.18-0.02-0.2-0.07
		c-0.02-0.04-0.03-0.11-0.03-0.19v-0.88c0-0.17,0.08-0.25,0.24-0.25h3.95c0.48,0,0.77,0.12,0.88,0.35c0.1,0.23,0.09,0.55-0.05,0.96
		c-0.22,0.62-0.54,1.22-0.96,1.81c0.31,0.3,0.65,0.58,1.02,0.82c0.37,0.24,0.69,0.44,0.97,0.6c0.12,0.07,0.14,0.17,0.07,0.29
		l-0.55,0.89c-0.04,0.06-0.08,0.1-0.13,0.11s-0.11-0.01-0.2-0.05c-0.12-0.06-0.26-0.15-0.43-0.25c-0.17-0.1-0.35-0.23-0.54-0.37
		c-0.19-0.14-0.39-0.29-0.58-0.45s-0.38-0.32-0.56-0.49c-0.4,0.4-0.84,0.77-1.31,1.12C112.25,36.77,111.74,37.09,111.19,37.37z
		 M116.02,42.06c-0.52,0-1-0.06-1.44-0.17c-0.44-0.12-0.82-0.28-1.15-0.49c-0.32-0.21-0.58-0.46-0.76-0.74
		c-0.18-0.29-0.28-0.6-0.28-0.95c0-0.32,0.09-0.62,0.28-0.91c0.18-0.28,0.44-0.53,0.76-0.74c0.32-0.21,0.71-0.37,1.15-0.49
		c0.44-0.12,0.92-0.18,1.44-0.18c0.5,0,0.97,0.06,1.41,0.17c0.44,0.12,0.83,0.28,1.17,0.48s0.6,0.45,0.8,0.73
		c0.2,0.28,0.3,0.59,0.3,0.93c0,0.34-0.1,0.66-0.3,0.95c-0.2,0.29-0.47,0.54-0.8,0.74s-0.73,0.37-1.17,0.49
		C116.99,42,116.52,42.06,116.02,42.06z M116.02,38.7c-0.6,0-1.07,0.1-1.41,0.31c-0.34,0.21-0.51,0.45-0.51,0.73
		c0,0.27,0.17,0.51,0.51,0.7c0.34,0.2,0.81,0.29,1.41,0.29c0.28,0,0.54-0.03,0.78-0.08c0.24-0.05,0.45-0.12,0.62-0.22
		c0.18-0.09,0.31-0.2,0.41-0.32c0.1-0.12,0.15-0.25,0.15-0.38c0-0.14-0.05-0.27-0.15-0.4c-0.1-0.13-0.24-0.24-0.41-0.34
		s-0.38-0.17-0.62-0.23C116.56,38.73,116.3,38.7,116.02,38.7z M116.38,34.53c-0.16,0-0.24-0.08-0.24-0.24v-0.89
		c0-0.11,0.02-0.18,0.07-0.2c0.04-0.02,0.1-0.03,0.17-0.03h1.58v-2.5c0-0.1,0.02-0.17,0.07-0.19c0.05-0.02,0.11-0.04,0.18-0.04h1.19
		c0.1,0,0.17,0.02,0.19,0.07c0.02,0.04,0.03,0.1,0.03,0.16v6.22c0,0.15-0.08,0.23-0.23,0.23h-1.2c-0.15,0-0.23-0.07-0.23-0.22v-2.38
		H116.38z"/>
	<path class="st0" d="M132.63,40.01h-10.31c-0.1,0-0.17-0.02-0.2-0.07c-0.03-0.05-0.04-0.11-0.04-0.18v-0.86
		c0-0.09,0.01-0.15,0.04-0.19c0.03-0.04,0.09-0.06,0.2-0.06h4.32v-1.96h-2.11c-0.19,0-0.35-0.01-0.47-0.04
		c-0.12-0.02-0.21-0.07-0.28-0.13c-0.07-0.06-0.11-0.15-0.14-0.26c-0.02-0.11-0.04-0.26-0.04-0.43V31.2c0-0.15,0.07-0.23,0.22-0.23
		h1.2c0.16,0,0.24,0.08,0.24,0.23v1.38h4.42v-1.39c0-0.16,0.08-0.24,0.23-0.24h1.2c0.15,0,0.23,0.08,0.23,0.24v4.67
		c0,0.3-0.06,0.52-0.18,0.64s-0.36,0.19-0.73,0.19h-2.11v1.96h4.32c0.17,0,0.25,0.08,0.25,0.25v0.86
		C132.88,39.92,132.8,40.01,132.63,40.01z M129.68,33.95h-4.42v1.19c0,0.12,0.06,0.18,0.18,0.18h4.06c0.12,0,0.18-0.06,0.18-0.18
		V33.95z"/>
	<path class="st0" d="M140.64,38.99c-0.1,0.13-0.25,0.12-0.43-0.02c-0.15-0.11-0.32-0.27-0.52-0.47c-0.19-0.2-0.39-0.42-0.58-0.67
		c-0.2-0.24-0.38-0.51-0.56-0.79s-0.33-0.55-0.46-0.82c-0.14,0.31-0.3,0.62-0.48,0.92c-0.18,0.3-0.36,0.59-0.56,0.86
		s-0.41,0.52-0.62,0.76c-0.22,0.23-0.43,0.43-0.65,0.6c-0.11,0.09-0.2,0.14-0.25,0.14c-0.06,0.01-0.12-0.03-0.2-0.11l-0.66-0.68
		c-0.06-0.06-0.1-0.13-0.1-0.19c0-0.06,0.05-0.14,0.16-0.23c0.46-0.44,0.87-0.95,1.25-1.54s0.67-1.2,0.88-1.83
		c0.17-0.51,0.29-1.07,0.37-1.67c0.08-0.6,0.12-1.25,0.12-1.96c0-0.09,0.01-0.15,0.04-0.2s0.1-0.07,0.21-0.07l1.15,0.04
		c0.11,0.01,0.18,0.03,0.2,0.08c0.02,0.04,0.04,0.11,0.04,0.21c0,0.98-0.08,1.88-0.23,2.69c0.09,0.34,0.22,0.69,0.41,1.06
		c0.18,0.37,0.39,0.73,0.62,1.07c0.23,0.34,0.46,0.65,0.71,0.94s0.47,0.52,0.68,0.68c0.11,0.09,0.17,0.17,0.16,0.23
		c0,0.07-0.04,0.15-0.11,0.23L140.64,38.99z M143.74,41.96h-1.2c-0.09,0-0.15-0.01-0.18-0.04s-0.05-0.09-0.05-0.19V30.68
		c0-0.09,0.02-0.15,0.05-0.18s0.09-0.05,0.18-0.05h1.2c0.09,0,0.15,0.02,0.18,0.05s0.05,0.09,0.05,0.18v11.05
		c0,0.1-0.02,0.16-0.05,0.19S143.83,41.96,143.74,41.96z"/>
	<path class="st0" d="M156.99,39.92h-10.31c-0.1,0-0.17-0.02-0.2-0.07c-0.03-0.05-0.04-0.11-0.04-0.18v-0.86
		c0-0.09,0.01-0.15,0.04-0.19c0.03-0.04,0.09-0.06,0.2-0.06h10.31c0.17,0,0.25,0.08,0.25,0.25v0.86
		C157.24,39.84,157.16,39.92,156.99,39.92z M147.96,36.8c-0.11,0.04-0.19,0.05-0.23,0.04s-0.08-0.06-0.13-0.14l-0.47-0.84
		c-0.1-0.18-0.08-0.3,0.06-0.36c0.58-0.22,1.1-0.46,1.54-0.74c0.44-0.28,0.82-0.6,1.13-0.95c0.31-0.35,0.56-0.74,0.74-1.18
		c0.18-0.43,0.3-0.92,0.35-1.45c0.02-0.09,0.04-0.15,0.07-0.19c0.03-0.04,0.1-0.06,0.22-0.05l1.14,0.07
		c0.14,0.02,0.23,0.04,0.26,0.08s0.03,0.11,0.02,0.22c-0.02,0.22-0.04,0.44-0.07,0.64c0.11,0.4,0.29,0.77,0.53,1.12
		c0.24,0.34,0.53,0.66,0.87,0.94s0.7,0.53,1.1,0.74c0.4,0.21,0.82,0.38,1.25,0.51c0.1,0.03,0.16,0.07,0.17,0.12
		c0.01,0.05-0.01,0.12-0.06,0.2l-0.43,0.89c-0.03,0.05-0.05,0.08-0.06,0.11c-0.02,0.03-0.03,0.05-0.05,0.05
		c-0.03,0.02-0.1,0.02-0.19,0c-0.35-0.08-0.71-0.21-1.07-0.38c-0.36-0.17-0.72-0.37-1.06-0.61s-0.66-0.5-0.96-0.79
		s-0.55-0.61-0.77-0.95c-0.42,0.68-0.96,1.27-1.64,1.76C149.53,36.14,148.78,36.52,147.96,36.8z"/>
	<path class="st0" d="M164.02,36.66c-0.28,0.07-0.59,0.13-0.92,0.17s-0.68,0.08-1.02,0.11c-0.34,0.03-0.68,0.05-1.01,0.05
		s-0.63,0-0.91-0.01c-0.34-0.02-0.59-0.1-0.75-0.24c-0.16-0.14-0.25-0.38-0.25-0.71v-4.34c0-0.16,0.01-0.29,0.04-0.39
		c0.02-0.1,0.07-0.18,0.13-0.23c0.06-0.06,0.14-0.09,0.25-0.11c0.11-0.02,0.25-0.03,0.41-0.03h3.28c0.16,0,0.24,0.07,0.24,0.2v0.94
		c0,0.14-0.08,0.2-0.24,0.2h-2.29c-0.08,0-0.13,0.02-0.14,0.05c-0.02,0.03-0.02,0.07-0.02,0.12v0.85c0.17,0,0.32,0,0.46,0
		s0.28,0,0.43-0.01c0.14,0,0.3-0.01,0.47-0.01c0.17,0,0.37-0.01,0.61-0.03c0.06-0.01,0.12,0,0.18,0.02
		c0.06,0.02,0.08,0.07,0.08,0.15l0.02,0.84c0,0.09-0.01,0.15-0.04,0.19s-0.09,0.06-0.17,0.07c-0.26,0.02-0.49,0.03-0.67,0.04
		s-0.34,0.02-0.49,0.02c-0.14,0.01-0.28,0.01-0.42,0.01s-0.29,0-0.47,0v0.89c0,0.09,0.01,0.14,0.04,0.17
		c0.03,0.02,0.09,0.04,0.19,0.05c0.45,0.02,0.91,0,1.39-0.04c0.48-0.04,0.93-0.1,1.36-0.19c0.1-0.02,0.17-0.02,0.21-0.01
		c0.04,0.01,0.06,0.06,0.08,0.15l0.14,0.79c0.02,0.09,0.01,0.15-0.02,0.19S164.11,36.64,164.02,36.66z M167.96,41.78h-5.95
		c-0.2,0-0.36-0.01-0.48-0.04c-0.12-0.02-0.21-0.07-0.28-0.14c-0.07-0.07-0.11-0.16-0.14-0.27c-0.02-0.11-0.04-0.26-0.04-0.43v-2.35
		c0-0.35,0.06-0.59,0.18-0.71c0.12-0.12,0.35-0.18,0.68-0.18h5.96c0.2,0,0.36,0.01,0.49,0.04s0.22,0.08,0.29,0.14
		c0.07,0.07,0.11,0.16,0.14,0.28s0.04,0.26,0.04,0.44v2.35c0,0.18-0.01,0.32-0.04,0.43c-0.03,0.11-0.08,0.2-0.14,0.26
		c-0.07,0.06-0.16,0.11-0.28,0.13C168.27,41.77,168.13,41.78,167.96,41.78z M167.18,39.17c0-0.1-0.05-0.14-0.14-0.14h-4.15
		c-0.1,0-0.16,0.05-0.16,0.16v1.1c0,0.1,0.05,0.14,0.16,0.14h4.14c0.06,0,0.11-0.01,0.13-0.02c0.02-0.01,0.03-0.06,0.03-0.14V39.17z
		 M163.88,34.56c-0.07,0-0.13-0.02-0.17-0.05s-0.07-0.1-0.07-0.19v-0.86c0-0.1,0.02-0.16,0.07-0.18c0.05-0.02,0.1-0.02,0.17-0.02
		h1.04v-2.38c0-0.09,0.02-0.15,0.05-0.18c0.04-0.03,0.1-0.05,0.19-0.05h1.13c0.09,0,0.15,0.02,0.18,0.05
		c0.03,0.03,0.05,0.09,0.05,0.18v5.92c0,0.1-0.02,0.16-0.05,0.19c-0.03,0.03-0.09,0.04-0.18,0.04h-1.13c-0.09,0-0.15-0.01-0.19-0.04
		c-0.04-0.03-0.05-0.09-0.05-0.19v-2.23H163.88z M168.62,37.09h-1.19c-0.09,0-0.15-0.02-0.18-0.05c-0.03-0.04-0.05-0.1-0.05-0.19
		v-6.17c0-0.15,0.08-0.23,0.24-0.23h1.18c0.09,0,0.15,0.02,0.18,0.05c0.03,0.03,0.05,0.09,0.05,0.18v6.17
		c0,0.09-0.02,0.15-0.05,0.19C168.77,37.07,168.71,37.09,168.62,37.09z"/>
</g>
</svg>
