<?xml version="1.0" encoding="utf-8"?>
<!-- Generator: Adobe Illustrator 25.1.0, SVG Export Plug-In . SVG Version: 6.00 Build 0)  -->
<svg version="1.1" id="레이어_1" xmlns="http://www.w3.org/2000/svg" xmlns:xlink="http://www.w3.org/1999/xlink" x="0px"
	 y="0px" viewBox="0 0 170 44" style="enable-background:new 0 0 170 44;" xml:space="preserve">
<style type="text/css">
	.st0{fill:#004DA0;}
	.st1{fill:#009953;}
</style>
<g>
	<g>
		<g>
			<g>
				<g>
					<path class="st0" d="M4.93,18.46c-0.12,0.6-0.5,0.99-1.01,0.89c-0.53-0.1-0.77-0.66-0.66-1.17c0.02-0.12,0.06-0.22,0.13-0.32
						c-0.06,0.4,0.1,0.87,0.54,0.96c0.4,0.08,0.62-0.17,0.7-0.54c0.02-0.11,0.03-0.22,0.04-0.32l-2.08-0.41
						c-0.26-0.05-0.44-0.09-0.63,0.12l-0.02,0l0.18-0.91l0.01,0c0.04,0.25,0.38,0.29,0.59,0.33l1.74,0.34
						c0.21,0.04,0.54,0.13,0.68-0.07l0.01,0L4.93,18.46z"/>
					<path class="st0" d="M1.85,21.59c-0.27-0.21-0.36-0.6-0.36-0.92c0.01-0.31,0.12-0.63,0.36-0.83c0.28-0.24,0.6-0.22,0.93-0.21
						l1.25,0.04c0.21,0.01,0.56,0.05,0.65-0.18H4.7l-0.03,0.88H4.66c-0.08-0.23-0.43-0.22-0.64-0.22L2.77,20.1
						c-0.62-0.02-0.92,0.23-0.94,0.71c-0.01,0.26,0.09,0.53,0.3,0.69c0.14,0.11,0.26,0.11,0.43,0.11l1.41,0.05
						c0.21,0.01,0.55,0.04,0.65-0.19l0.01,0l-0.03,0.88l-0.01,0c-0.08-0.24-0.42-0.22-0.64-0.23l-1.77-0.06
						c-0.21,0-0.55-0.05-0.65,0.19H1.52l0.02-0.68L1.85,21.59z"/>
					<path class="st0" d="M4.33,24.43c0.16-0.2,0.23-0.5,0.2-0.76c-0.03-0.26-0.18-0.58-0.5-0.54c-0.64,0.08-0.42,1.67-1.28,1.78
						c-0.5,0.07-1.03-0.39-1.13-1.11c-0.04-0.28-0.03-0.57,0.03-0.84l0.57-0.21c-0.2,0.3-0.3,0.7-0.25,1.06
						c0.03,0.26,0.24,0.64,0.57,0.6c0.73-0.1,0.39-1.67,1.38-1.79c0.59-0.07,0.89,0.49,0.96,1.06c0.03,0.23,0.03,0.47-0.01,0.7
						L4.33,24.43z"/>
					<path class="st0" d="M3.84,26.72l-0.25-0.88l1.27,0.12L3.84,26.72z M3.54,26.94l-0.57,0.42c-0.28,0.21-0.32,0.26-0.49,0.07
						l-0.01,0l0.27,0.92l0.01,0c0.06-0.29,0.29-0.44,0.52-0.62l2.05-1.59l-0.2-0.71l-0.02,0c-0.01,0.23-0.22,0.2-0.4,0.19l-2.1-0.22
						c-0.29-0.03-0.56-0.03-0.77-0.26l-0.01,0l0.23,0.82l0.02,0c0.02-0.24,0.16-0.24,0.44-0.22l0.7,0.05L3.54,26.94z"/>
					<path class="st0" d="M3.61,28.78c-0.24,0.11-0.41,0.19-0.43,0.48l-0.01,0.01l-0.36-0.74l0.01-0.01
						c0.24,0.16,0.41,0.08,0.64-0.04l1.68-0.81c0.24-0.12,0.41-0.2,0.43-0.48l0.01-0.01l0.3,0.61l-0.01,0
						c-0.04,0.04-0.06,0.07-0.08,0.11l-0.05,0.1l-1.2,2.47l1.6-0.77c0.24-0.11,0.41-0.19,0.42-0.47l0.01-0.01l0.36,0.74l-0.01,0
						c-0.23-0.16-0.4-0.08-0.64,0.04l-2.37,1.15c-0.04-0.35,0.03-0.54,0.18-0.84l1.13-2.32L3.61,28.78z"/>
					<path class="st0" d="M6.26,33.32c-0.2,0.17-0.34,0.3-0.28,0.58L5.97,33.9l-0.56-0.61l0.01-0.01c0.27,0.09,0.42-0.04,0.61-0.21
						l1.39-1.24c0.19-0.17,0.33-0.3,0.27-0.57l0.01-0.01l0.46,0.51l0,0c-0.03,0.05-0.04,0.08-0.04,0.13L8.1,31.99l-0.46,2.7
						l1.32-1.18c0.2-0.17,0.34-0.3,0.28-0.57l0.01-0.01l0.55,0.61l-0.01,0.01c-0.27-0.09-0.41,0.03-0.6,0.21l-1.96,1.75
						c-0.14-0.32-0.12-0.53-0.06-0.86l0.44-2.54L6.26,33.32z"/>
					<path class="st0" d="M10.13,35.9L9.4,35.34l1.09-0.64L10.13,35.9z M10.02,36.26l-0.21,0.67c-0.1,0.33-0.1,0.4-0.35,0.34
						l-0.01,0.01l0.76,0.59l0.01-0.01c-0.13-0.27-0.03-0.53,0.04-0.8l0.71-2.48l-0.59-0.45l-0.01,0.01
						c0.13,0.19-0.06,0.29-0.21,0.38l-1.82,1.05c-0.25,0.15-0.47,0.3-0.77,0.24l-0.01,0.01l0.68,0.52l0.01-0.01
						c-0.12-0.2-0.01-0.29,0.22-0.43l0.6-0.37L10.02,36.26z"/>
					<path class="st0" d="M11.61,37.96c-0.14,0.23-0.23,0.39-0.09,0.63l0,0.01l-0.81-0.46l0.01-0.01c0.25,0.04,0.4-0.27,0.5-0.45
						l1.05-1.8l-0.36-0.21c-0.18-0.1-0.38-0.16-0.58-0.12l-0.01-0.01l0.42-0.4l0.01,0.01c0.04,0.05,0.09,0.08,0.14,0.12l0.1,0.06
						l1.51,0.87c0.07,0.04,0.13,0.07,0.2,0.08l0.01,0.01l-0.41,0.41l-0.01-0.01c0.03-0.17-0.12-0.29-0.25-0.36l-0.37-0.21
						L11.61,37.96z"/>
					<path class="st0" d="M13.83,37.06c0.09-0.2,0.25-0.49,0.07-0.67l0-0.01l0.82,0.36l0,0.01c-0.25-0.01-0.37,0.32-0.45,0.51
						l-0.71,1.61c-0.09,0.19-0.25,0.49-0.07,0.67l-0.01,0.01l-0.82-0.35l0.01-0.01c0.25,0.02,0.36-0.31,0.44-0.5L13.83,37.06z"/>
					<path class="st0" d="M16.43,37.58c0.71,0.2,0.96,0.95,0.77,1.6c-0.19,0.67-0.77,1.05-1.46,0.85c-0.71-0.19-0.98-0.97-0.8-1.59
						C15.14,37.76,15.73,37.39,16.43,37.58z M16.56,37.27c-0.94-0.29-1.89,0.22-2.13,1.07c-0.26,0.92,0.32,1.76,1.21,2.01
						c0.9,0.25,1.85-0.2,2.11-1.12C17.97,38.43,17.51,37.52,16.56,37.27z"/>
					<path class="st0" d="M18.51,40.24c-0.02,0.26-0.04,0.45,0.2,0.61l0,0.01l-0.83-0.06v-0.01c0.26-0.13,0.28-0.31,0.3-0.57
						l0.14-1.85c0.02-0.26,0.03-0.45-0.2-0.6v-0.01l0.69,0.05l0,0c0.01,0.06,0.03,0.08,0.06,0.12l0.06,0.1l1.55,2.27l0.13-1.76
						c0.02-0.26,0.04-0.44-0.2-0.6l0-0.01l0.82,0.06l0,0.01c-0.25,0.12-0.27,0.31-0.29,0.57l-0.19,2.6
						c-0.33-0.14-0.46-0.3-0.64-0.58l-1.45-2.14L18.51,40.24z"/>
					<path class="st0" d="M23.16,39.39l-0.92,0.09l0.34-1.21L23.16,39.39z M23.33,39.72l0.32,0.63c0.16,0.31,0.2,0.36-0.02,0.48
						l0,0.01l0.96-0.1l0-0.01c-0.28-0.11-0.39-0.36-0.52-0.61l-1.22-2.28l-0.74,0.08v0.01c0.23,0.05,0.17,0.25,0.11,0.42l-0.58,2.01
						c-0.08,0.27-0.13,0.54-0.38,0.7l0,0.01L22.12,41l0-0.01c-0.23-0.06-0.21-0.2-0.14-0.47l0.17-0.68L23.33,39.72z"/>
					<path class="st0" d="M26.14,39.96c0.32-0.07,0.55-0.24,0.73-0.49l0.01,0l-0.07,0.66l-1.87,0.49l0-0.01
						c0.21-0.14,0.09-0.47,0.04-0.67l-0.45-1.7c-0.06-0.21-0.12-0.54-0.37-0.57l0-0.01l0.87-0.23l0,0.01
						c-0.21,0.15-0.09,0.47-0.03,0.67l0.53,1.96L26.14,39.96z"/>
					<path class="st0" d="M30.77,37.96c-0.05,0.33-0.34,0.62-0.63,0.77c-0.27,0.15-0.61,0.22-0.9,0.12
						c-0.35-0.12-0.49-0.39-0.65-0.69l-0.6-1.09c-0.1-0.18-0.24-0.5-0.49-0.46l0-0.01l0.78-0.42l0.01,0.01
						c-0.16,0.19,0.02,0.48,0.13,0.66l0.6,1.09c0.3,0.54,0.67,0.67,1.09,0.44c0.23-0.12,0.41-0.34,0.45-0.61
						c0.02-0.17-0.04-0.27-0.12-0.42l-0.68-1.23c-0.1-0.18-0.24-0.5-0.49-0.46l-0.01-0.01l0.78-0.42l0.01,0.01
						c-0.17,0.19,0.02,0.48,0.13,0.66l0.85,1.54c0.1,0.18,0.24,0.49,0.5,0.46l0.01,0.01l-0.61,0.33L30.77,37.96z"/>
					<path class="st0" d="M32.32,36.55c0.17,0.2,0.29,0.35,0.57,0.3l0.01,0.01l-0.64,0.53l-0.01-0.01c0.1-0.27-0.02-0.41-0.19-0.61
						l-1.2-1.43c-0.17-0.2-0.29-0.34-0.57-0.29l-0.01-0.01l0.53-0.44l0,0c0.05,0.03,0.08,0.04,0.13,0.05l0.11,0.03l2.71,0.56
						l-1.14-1.35c-0.17-0.2-0.28-0.35-0.57-0.3l-0.01-0.01l0.64-0.53l0.01,0.01c-0.1,0.26,0.02,0.41,0.19,0.6l1.69,2.01
						c-0.33,0.13-0.54,0.1-0.87,0.03l-2.55-0.53L32.32,36.55z"/>
					<path class="st0" d="M33.55,32.97c-0.16-0.14-0.4-0.39-0.62-0.27l-0.01-0.01l0.59-0.66l0.01,0.01
						c-0.09,0.23,0.19,0.44,0.35,0.58l1.32,1.17c0.16,0.14,0.39,0.39,0.62,0.27l0.01,0.01l-0.59,0.66l-0.01-0.01
						c0.09-0.23-0.19-0.44-0.34-0.58L33.55,32.97z"/>
					<path class="st0" d="M35.52,30.67c-0.2-0.29-0.43-0.64-0.69-0.47l-0.01,0l0.4-0.57l1.94,2.84c-0.36,0.14-0.46,0.21-0.84,0.11
						l-1.98-0.51c-0.25-0.07-0.51-0.16-0.76-0.08l-0.01-0.01l0.39-0.56L34,31.45c0.09,0.06,0.33,0.12,0.43,0.14l2.1,0.55
						L35.52,30.67z"/>
					<path class="st0" d="M37.97,30.05l0.31-0.51c0.16-0.27,0.21-0.6,0.13-0.9l0-0.01l0.46,0.45l-0.86,1.74L38,30.82
						c0.03-0.25-0.3-0.38-0.49-0.47l-1.59-0.77c-0.19-0.09-0.49-0.27-0.68-0.09l-0.01-0.01l0.66-1.34c0.03-0.07,0.08-0.14,0.08-0.21
						l0-0.01l0.5,0.24l-0.01,0.01c-0.22,0.06-0.32,0.22-0.41,0.41c-0.07,0.15-0.14,0.29-0.18,0.44l0.78,0.38l0.25-0.5
						c0.03-0.07,0.07-0.13,0.07-0.2l0-0.01l0.45,0.22l-0.01,0.01c-0.15,0.01-0.24,0.19-0.3,0.31l-0.15,0.31L37.97,30.05z"/>
					<path class="st0" d="M36.5,26.49c0.2-0.59,0.61-0.81,1.02-0.68c0.39,0.13,0.59,0.57,0.56,0.96l1.02-0.38
						c0.29-0.11,0.62-0.31,0.86-0.51l-0.14,0.4c-0.08,0.24-0.18,0.36-0.39,0.44l-0.85,0.32l-0.76,0.2c0.06-0.37,0.03-0.84-0.39-0.97
						c-0.32-0.1-0.6,0.11-0.68,0.41c-0.03,0.1-0.05,0.2-0.06,0.31l2,0.65c0.2,0.07,0.52,0.2,0.68,0l0.01,0.01l-0.28,0.85l-0.01,0
						c-0.01-0.25-0.35-0.33-0.55-0.4l-1.68-0.54c-0.21-0.07-0.52-0.2-0.68-0.01l-0.01,0L36.5,26.49z"/>
					<path class="st0" d="M37.75,23.48c-0.21,0.15-0.37,0.42-0.41,0.68c-0.04,0.26,0,0.61,0.32,0.66c0.63,0.11,0.89-1.48,1.74-1.34
						c0.5,0.08,0.87,0.67,0.76,1.39c-0.05,0.28-0.14,0.55-0.27,0.8l-0.6,0.04c0.28-0.23,0.49-0.58,0.55-0.94
						c0.04-0.26-0.05-0.68-0.37-0.74c-0.72-0.12-0.86,1.48-1.84,1.32c-0.58-0.09-0.71-0.72-0.62-1.28c0.04-0.23,0.11-0.46,0.22-0.67
						L37.75,23.48z"/>
					<path class="st0" d="M37.89,22.68c-0.22-0.01-0.56-0.06-0.66,0.17h-0.01l0.05-0.88h0.01c0.08,0.24,0.43,0.23,0.64,0.24
						l1.77,0.1c0.21,0.01,0.55,0.06,0.66-0.16h0.01l-0.05,0.88l-0.01,0c-0.07-0.24-0.42-0.23-0.63-0.24L37.89,22.68z"/>
					<path class="st0" d="M39.69,20.28c0.27-0.02,0.45-0.02,0.58-0.28l0.02,0l0.05,0.92l-0.02,0c-0.1-0.23-0.44-0.18-0.65-0.17
						l-2.09,0.11l0.02,0.41c0.01,0.2,0.07,0.4,0.22,0.54l0,0.01l-0.57-0.13l0-0.01c0.02-0.05,0.02-0.12,0.02-0.18l-0.01-0.12
						l-0.1-1.73c0-0.08-0.01-0.15-0.04-0.21l0-0.01l0.57,0.12v0.01c-0.16,0.07-0.17,0.26-0.17,0.41l0.02,0.42L39.69,20.28z"/>
					<path class="st0" d="M39.27,17.49c0.28-0.06,0.41-0.08,0.53-0.35l0.02-0.01L40,18.03l-0.01,0c-0.16-0.2-0.45-0.11-0.67-0.06
						l-0.68,0.14l-1.07,1.01c-0.18,0.16-0.31,0.29-0.39,0.53l-0.08-0.41c-0.03-0.15-0.03-0.29,0.06-0.37l1.05-0.98l-0.97-0.39
						c-0.13-0.05-0.37-0.11-0.45,0.17l-0.01,0l-0.17-0.8l1.94,0.78L39.27,17.49z"/>
					<path class="st0" d="M4.95,14.18c0,0.22-0.18,0.4-0.41,0.4c-0.23,0-0.41-0.18-0.41-0.4c0-0.22,0.18-0.4,0.41-0.4
						C4.77,13.78,4.95,13.96,4.95,14.18z"/>
					<path class="st0" d="M37.79,14.18c0,0.22-0.18,0.4-0.41,0.4c-0.23,0-0.41-0.18-0.41-0.4c0-0.22,0.18-0.4,0.41-0.4
						C37.6,13.78,37.79,13.96,37.79,14.18z"/>
				</g>
			</g>
			<g>
				<path class="st0" d="M22.14,2.68h-0.4V1.73h-0.48V4.2c-0.16,0.17-0.44,0.16-0.44,0.16h-1.34c-0.02,0-0.04-0.02-0.04-0.04V2.4
					h1.44V2.01h-1.91l0,2.32c0,0.23,0.19,0.41,0.42,0.41h1.42c0,0,0.24,0.02,0.45-0.1v1.33h0.48V3.06h0.4v2.91h0.48V1.73h-0.48V2.68
					z"/>
			</g>
			<polygon class="st0" points="6.68,11.72 7.89,10.38 8.96,11.34 9.28,10.99 8.21,10.03 9.42,8.71 9.14,8.45 6.4,11.46 			"/>
			<path class="st0" d="M6.12,10.56c0.17,0.15,0.44,0.14,0.59-0.03l1.53-1.67c0.16-0.17,0.14-0.44-0.03-0.59L7.01,7.2L6.69,7.55
				l0.49,0.43L5.73,9.57L5.24,9.14L4.92,9.49L6.12,10.56z M7.46,8.24l0.43,0.38c0.01,0.01,0.02,0.04,0,0.05l-1.4,1.54
				c-0.01,0.01-0.04,0.02-0.05,0L6.01,9.83L7.46,8.24z"/>
			<polygon class="st0" points="14.23,2.88 13.79,3.08 15.06,5.89 15.5,5.7 14.78,4.11 15.36,3.85 15.2,3.5 14.62,3.76 			"/>
			<path class="st0" d="M13.54,7.33l-0.47-1.05l-0.43,0.19l0.47,1.04c0.09,0.21,0.34,0.31,0.56,0.21l2.3-1.02L15.8,6.36l-2.21,0.98
				C13.56,7.35,13.54,7.34,13.54,7.33z"/>
			<g>
				<path class="st0" d="M12.49,4.21l-0.17-0.38l-0.44,0.19l0.17,0.38c0.5,1.11-0.47,1.82-0.54,1.87l0.42,0.16
					c0.22-0.2,0.68-0.66,0.72-1.27c0.48,0.37,1.13,0.35,1.43,0.31l0.16-0.42C14.15,5.08,12.99,5.31,12.49,4.21z"/>
			</g>
			<g>
				<polygon class="st0" points="34.99,9.74 34.66,9.4 33.45,10.53 33.05,10.11 34.27,8.98 33.95,8.64 32.73,9.77 32.05,9.04 
					31.77,9.3 34.49,12.19 34.77,11.93 33.77,10.87 				"/>
				<path class="st0" d="M35.34,10.2c-0.49,0.46-0.89,0.6-0.89,0.6l0.32,0.34c0,0,0.4-0.15,0.89-0.6l1.23-1.14l0,0h0l-2.15-2.28
					l-0.28,0.26l1.83,1.94L35.34,10.2z"/>
			</g>
			<g>
				<polygon class="st0" points="30.64,5.51 30.79,5.16 30.21,4.91 30.59,4.04 30.15,3.85 29.15,6.15 29.59,6.33 30.06,5.26 				"/>
				<polygon class="st0" points="29.51,6.51 26.74,5.31 26.59,5.67 28.92,6.67 28.45,7.75 28.89,7.94 29.51,6.51 29.51,6.51 				"/>
				<path class="st0" d="M29.66,4.05l-1.11-0.48l0.19-0.44L28.3,2.95l-0.19,0.44l-1.11-0.48l-0.15,0.35l0.54,0.23
					c-0.2,0.09-0.36,0.25-0.45,0.45C26.73,4.45,27,5.04,27.55,5.27c0.55,0.24,1.17,0.03,1.39-0.46c0.09-0.21,0.09-0.43,0.03-0.64
					l0.54,0.23L29.66,4.05z M27.7,4.92c-0.31-0.13-0.45-0.48-0.32-0.78c0.13-0.3,0.49-0.43,0.79-0.3c0.31,0.13,0.45,0.48,0.32,0.78
					C28.37,4.92,28.01,5.05,27.7,4.92z"/>
			</g>
			<g>
				<path class="st0" d="M41.95,21.65c0,11.6-9.4,21-21,21c-11.6,0-21-9.4-21-21c0-11.6,9.4-21,21-21
					C32.54,0.65,41.95,10.05,41.95,21.65z M20.95,0.94c-11.44,0-20.71,9.27-20.71,20.71c0,11.44,9.27,20.71,20.71,20.71
					c11.44,0,20.71-9.27,20.71-20.71C41.66,10.21,32.39,0.94,20.95,0.94z"/>
				<path class="st0" d="M36.16,21.65c0,8.4-6.81,15.22-15.22,15.22c-8.41,0-15.22-6.81-15.22-15.22c0-8.4,6.81-15.22,15.22-15.22
					C29.35,6.43,36.16,13.25,36.16,21.65z M20.95,6.72c-8.25,0-14.93,6.69-14.93,14.93c0,8.25,6.69,14.93,14.93,14.93
					c8.24,0,14.93-6.68,14.93-14.93C35.88,13.41,29.19,6.72,20.95,6.72z"/>
			</g>
		</g>
		<g>
			<path class="st1" d="M30.43,29.91l-7.06,0c-2.18,0.02-2.46,1.46-2.46,1.46c-0.45-1.63-2.55-1.46-2.55-1.46h-6.91V19.78h6.66
				c2.22,0.04,2.8,1.79,2.8,1.79c0.72-1.78,3.01-1.79,3.01-1.79l6.5,0V29.91z M23.48,18.77c-1.94,0.06-2.55,1.2-2.55,1.2
				c-0.62-1.19-2.48-1.19-2.48-1.19h-8v12.13h7.83c1.07,0,1.45,0.5,1.57,0.86h2.16c0.38-0.91,1.47-0.86,1.47-0.86h7.97V18.77H23.48z
				"/>
			<path class="st1" d="M16.83,24.44h-2.92v2.94v0h4.02v-0.01h0v-1.92h1.02v1.93h4.01v-1.93h1.01v1.93h4.01v-1.02h-2.91v-0.91h2.91
				V22.4h-4.01v2.04h-1.01V22.4h-1.1v2.04h-1.82V22.4h-1.09v2.04h-1.01V22.4h-4.02v1.01h2.92V24.44z M16.83,26.37h-1.82v-0.92h1.82
				V26.37z M21.86,26.37h-1.82v-0.92h1.82V26.37z M25.07,23.41h1.82v1.03h-1.82V23.41z"/>
			<g>
				<polygon class="st0" points="20.34,13.15 21.31,12.83 20.34,12.83 				"/>
				<path class="st0" d="M18.24,14.55c0.36-0.37,0.73-0.33,0.73-0.17c0,0.16-0.18,0.35-0.18,0.35h-2.3l-1.26-1.82l0,0
					c-0.31-0.47-0.72-0.67-1.39-0.67c-0.67,0-1.94,0-3.39,0v5.48c2.06,0,7.14-0.01,7.73,0c2.28,0.02,2.73,0.99,2.73,0.99
					c0.48-0.76,1.4-0.99,2.82-0.99c0.7,0,5.68,0,7.71,0l0-5.48c-1.5,0-2.77,0-3.44,0c-0.66,0-1.07,0.2-1.38,0.67h0l-1.29,1.82
					c0,0-1.03,0-1.91,0v-1.62l1.31-1.28l-1.35,0l0.34-0.3h-2.74c-0.55,0-0.98,0.22-1.14,0.54h-0.96c-0.89,0-1.21,0.5-1.03,1.16
					L18.24,14.55z M30.43,16.71c-3.64,0-3.78,0-6.44,0c-1.72,0-2.52,0.12-3.06,0.71c-0.59-0.57-1.05-0.71-2.76-0.71
					c-1.45,0-5.49,0-6.7,0v-3.46h2.11c0.21,0,0.38,0.04,0.5,0.1c0.08,0.05,0.24,0.15,0.35,0.3c0.14,0.19,1.39,2.02,1.39,2.02h3.6
					c0,0,0.34-0.69,0.54-1.18c0.21-0.49,0.14-0.83-0.31-0.86c-0.38-0.03-0.61,0.06-0.65,0.21l-0.16-0.55
					c-0.1-0.28-0.03-0.48,0.36-0.48h1.17c0,0.01,0.02-0.38,0.66-0.38h1.92l-0.54,0.5v2.73h3.73c0,0,1.19-1.83,1.33-2.02
					c0.11-0.15,0.26-0.25,0.35-0.3c0.11-0.06,0.29-0.11,0.49-0.11l2.14,0V16.71z"/>
			</g>
			<path class="st1" d="M19.33,28.46c0.14-0.05,0.26-0.15,0.33-0.27h0.01v0.87c0,0.09-0.01,0.16,0.08,0.21v0.01h-0.32v-0.01
				c0.1-0.05,0.09-0.12,0.09-0.21v-0.59L19.33,28.46L19.33,28.46z"/>
			<path class="st1" d="M20.12,29.21c0.25-0.05,0.48-0.28,0.48-0.53c0-0.15-0.09-0.33-0.27-0.33c-0.13,0-0.23,0.1-0.23,0.23
				c0,0.14,0.09,0.25,0.24,0.25c0.06,0,0.11-0.02,0.16-0.05l-0.1,0.13c-0.04,0.01-0.08,0.02-0.13,0.02c-0.18,0-0.32-0.14-0.32-0.32
				c0-0.23,0.18-0.38,0.4-0.38c0.24,0,0.4,0.19,0.4,0.42c0,0.17-0.09,0.35-0.23,0.45c-0.14,0.11-0.3,0.17-0.48,0.19L20.12,29.21z"/>
			<path class="st1" d="M21.35,28.94c-0.14,0-0.25-0.01-0.33-0.01l0.33-0.56V28.94z M21.35,29.07v0.04c0,0.08,0.01,0.13-0.08,0.16
				v0.01h0.3v-0.01c-0.07-0.03-0.07-0.11-0.07-0.17v-0.03h0.12l0.07-0.19c-0.05,0.05-0.13,0.06-0.2,0.06v-0.68h-0.21l-0.48,0.8
				H21.35z"/>
			<path class="st1" d="M22.45,28.33c-0.1,0.01-0.23,0.09-0.3,0.16c-0.11,0.1-0.17,0.23-0.17,0.37c0,0.16,0.09,0.33,0.27,0.33
				c0.14,0,0.22-0.1,0.22-0.23c0-0.15-0.08-0.26-0.24-0.26c-0.06,0-0.12,0.02-0.17,0.05l0.1-0.12c0.04-0.02,0.09-0.03,0.14-0.03
				c0.19,0,0.33,0.13,0.33,0.32c0,0.22-0.17,0.37-0.39,0.37c-0.24,0-0.41-0.19-0.41-0.43c0-0.37,0.37-0.61,0.7-0.63L22.45,28.33z"/>
		</g>
	</g>
	<g>
		<g>
			<path class="st0" d="M51.4,30.98c1.14,0,2.02,0.56,2.02,1.54c0,1.01-0.94,1.66-1.94,1.66c-0.22,0-0.44-0.03-0.64-0.13
				c0.76-0.04,1.58-0.51,1.58-1.35c0-0.77-0.55-1.08-1.25-1.08c-0.21,0-0.41,0.02-0.62,0.05v3.97c0,0.49-0.01,0.84,0.46,1.11v0.03
				h-1.75v-0.03c0.45-0.16,0.4-0.81,0.4-1.2v-3.32c0-0.4,0.05-1.04-0.39-1.21v-0.03H51.4z"/>
			<path class="st0" d="M57.91,36.19c-0.39,0.51-1.11,0.72-1.73,0.72c-0.58,0-1.2-0.18-1.59-0.61c-0.47-0.51-0.45-1.1-0.45-1.73
				v-2.35c0-0.4,0.06-1.04-0.39-1.2v-0.03h1.67v0.03c-0.44,0.16-0.39,0.81-0.39,1.2v2.35c0,1.17,0.49,1.71,1.4,1.71
				c0.49,0,0.99-0.2,1.28-0.62c0.19-0.27,0.19-0.48,0.19-0.8v-2.65c0-0.4,0.05-1.04-0.39-1.2v-0.03h1.67l0.01,0.03
				c-0.45,0.16-0.4,0.81-0.4,1.21v3.32c0,0.39-0.05,1.04,0.4,1.2v0.03h-1.29V36.19z"/>
			<path class="st0" d="M63.62,32.03c-0.34-0.35-0.89-0.55-1.38-0.55c-0.5,0-1.14,0.19-1.14,0.8c0,1.21,3.03,1.19,3.03,2.82
				c0,0.94-0.98,1.82-2.36,1.82c-0.53,0-1.07-0.08-1.58-0.26l-0.26-1.1c0.52,0.45,1.24,0.73,1.93,0.73c0.5,0,1.26-0.3,1.26-0.92
				c0-1.37-3.03-1.13-3.03-2.99c0-1.11,1.14-1.53,2.21-1.53c0.44,0,0.89,0.06,1.31,0.19V32.03z"/>
			<path class="st0" d="M67.89,33.95h-1.73l0.87-2.22L67.89,33.95z M68.15,34.6l0.47,1.24c0.24,0.61,0.31,0.72-0.12,0.91v0.03h1.8
				v-0.03c-0.5-0.26-0.66-0.75-0.86-1.25l-1.83-4.52h-1.39v0.03c0.43,0.13,0.26,0.5,0.13,0.82l-1.47,3.67
				c-0.19,0.5-0.34,1-0.85,1.25v0.03h1.62v-0.03c-0.43-0.16-0.36-0.42-0.18-0.91l0.45-1.24H68.15z"/>
			<path class="st0" d="M71.52,35.63c0,0.5-0.01,0.85,0.46,1.12v0.03h-1.56v-0.03c0.47-0.27,0.47-0.62,0.47-1.12v-3.51
				c0-0.49,0-0.84-0.46-1.11v-0.03h1.29v0.01c0.04,0.11,0.07,0.15,0.13,0.22l0.12,0.18l3.22,4.06v-3.34c0-0.49,0.01-0.84-0.46-1.11
				v-0.03h1.55v0.03c-0.46,0.26-0.46,0.61-0.46,1.11v4.94c-0.62-0.21-0.9-0.5-1.28-1l-3.02-3.83V35.63z"/>
			<path class="st0" d="M80.49,35.63c0,0.5-0.01,0.85,0.45,1.12v0.03h-1.56v-0.03c0.47-0.27,0.47-0.62,0.47-1.12v-3.51
				c0-0.49,0-0.84-0.46-1.11v-0.03h1.29v0.01c0.04,0.11,0.07,0.15,0.13,0.22l0.12,0.18l3.22,4.06v-3.34c0-0.49,0.01-0.84-0.46-1.11
				v-0.03h1.55v0.03c-0.45,0.26-0.45,0.61-0.45,1.11v4.94c-0.63-0.21-0.9-0.5-1.29-1l-3.02-3.83V35.63z"/>
			<path class="st0" d="M89.05,33.95h-1.73l0.87-2.22L89.05,33.95z M89.3,34.6l0.47,1.24c0.24,0.61,0.31,0.72-0.12,0.91v0.03h1.8
				v-0.03c-0.5-0.26-0.66-0.75-0.86-1.25l-1.83-4.52h-1.39v0.03c0.42,0.13,0.26,0.5,0.13,0.82l-1.47,3.67c-0.2,0.5-0.34,1-0.85,1.25
				v0.03h1.62v-0.03c-0.42-0.16-0.36-0.42-0.18-0.91l0.45-1.24H89.3z"/>
			<path class="st0" d="M93.42,35.63c0,0.51-0.01,0.85,0.46,1.12v0.03h-1.74v-0.03c0.44-0.17,0.39-0.81,0.39-1.2v-3.93h-0.77
				c-0.38,0-0.78,0.1-1.05,0.36h-0.03l0.31-1.05h0.03c0.1,0.05,0.22,0.05,0.34,0.06h0.22h3.29c0.15,0,0.29-0.01,0.4-0.06h0.03
				L95,31.97h-0.03c-0.11-0.31-0.47-0.36-0.76-0.36h-0.79V35.63z"/>
			<path class="st0" d="M96.3,32.23c0-0.41,0.06-1.05-0.38-1.21v-0.03h1.67v0.03c-0.44,0.16-0.39,0.82-0.39,1.21v3.32
				c0,0.39-0.05,1.04,0.39,1.2v0.03h-1.67v-0.03c0.43-0.16,0.38-0.81,0.38-1.2V32.23z"/>
			<path class="st0" d="M101.27,31.47c1.39,0,2.21,1.24,2.21,2.53c0,1.31-0.86,2.29-2.19,2.29c-1.38,0-2.25-1.27-2.25-2.5
				C99.04,32.46,99.91,31.47,101.27,31.47z M101.33,30.83c-1.85-0.04-3.29,1.36-3.29,3.03c0,1.81,1.46,3.05,3.2,3.05
				c1.76,0,3.24-1.3,3.24-3.1C104.48,32.23,103.18,30.83,101.33,30.83z"/>
			<path class="st0" d="M105.86,35.63c0,0.5-0.01,0.85,0.46,1.12v0.03h-1.55v-0.03c0.46-0.27,0.46-0.62,0.46-1.12v-3.51
				c0-0.49,0-0.84-0.46-1.11v-0.03h1.28v0.01c0.03,0.11,0.07,0.15,0.13,0.22l0.12,0.18l3.22,4.06v-3.34c0-0.49,0.01-0.84-0.46-1.11
				v-0.03h1.55v0.03c-0.45,0.26-0.45,0.61-0.45,1.11v4.94c-0.63-0.21-0.9-0.5-1.29-1l-3.02-3.83V35.63z"/>
			<path class="st0" d="M114.38,33.95h-1.73l0.87-2.22L114.38,33.95z M114.64,34.6l0.47,1.24c0.24,0.61,0.31,0.72-0.12,0.91v0.03
				h1.8v-0.03c-0.5-0.26-0.66-0.75-0.86-1.25l-1.83-4.52h-1.39v0.03c0.43,0.13,0.26,0.5,0.14,0.82l-1.47,3.67
				c-0.19,0.5-0.34,1-0.85,1.25v0.03h1.62v-0.03c-0.42-0.16-0.36-0.42-0.18-0.91l0.46-1.24H114.64z"/>
			<path class="st0" d="M119.6,36.14c0.6,0.03,1.12-0.17,1.56-0.54h0.03l-0.45,1.17h-3.62v-0.03c0.45-0.16,0.4-0.81,0.4-1.2v-3.32
				c0-0.41,0.05-1.05-0.4-1.21v-0.03h1.68v0.03c-0.45,0.16-0.39,0.82-0.39,1.21v3.84L119.6,36.14z"/>
			<path class="st0" d="M127.76,36.19c-0.39,0.51-1.11,0.72-1.72,0.72c-0.59,0-1.19-0.18-1.59-0.61c-0.47-0.51-0.45-1.1-0.45-1.73
				v-2.35c0-0.4,0.06-1.04-0.39-1.2v-0.03h1.67v0.03c-0.43,0.16-0.39,0.81-0.39,1.2v2.35c0,1.17,0.49,1.71,1.4,1.71
				c0.49,0,0.99-0.2,1.29-0.62c0.19-0.27,0.18-0.48,0.18-0.8v-2.65c0-0.4,0.05-1.04-0.39-1.2v-0.03h1.67l0.01,0.03
				c-0.45,0.16-0.4,0.81-0.4,1.21v3.32c0,0.39-0.06,1.04,0.4,1.2v0.03h-1.29V36.19z"/>
			<path class="st0" d="M130.94,35.63c0,0.5-0.02,0.85,0.45,1.12v0.03h-1.56v-0.03c0.47-0.27,0.47-0.62,0.47-1.12v-3.51
				c0-0.49,0-0.84-0.46-1.11v-0.03h1.29v0.01c0.03,0.11,0.07,0.15,0.13,0.22l0.13,0.18l3.22,4.06v-3.34c0-0.49,0.01-0.84-0.45-1.11
				v-0.03h1.55v0.03c-0.46,0.26-0.46,0.61-0.46,1.11v4.94c-0.63-0.21-0.9-0.5-1.28-1l-3.02-3.83V35.63z"/>
			<path class="st0" d="M136.99,32.23c0-0.41,0.06-1.05-0.39-1.21v-0.03h1.68v0.03c-0.44,0.16-0.39,0.82-0.39,1.21v3.32
				c0,0.39-0.05,1.04,0.39,1.2v0.03h-1.68v-0.03c0.45-0.16,0.39-0.81,0.39-1.2V32.23z"/>
			<path class="st0" d="M142.71,32.58c0.24-0.63,0.53-1.35-0.01-1.57v-0.03h1.31l-2.33,6.06c-0.61-0.41-0.82-0.48-1.07-1.17
				l-1.33-3.6c-0.17-0.45-0.3-0.96-0.69-1.26v-0.03h1.29l-0.01,0.11c0,0.19,0.16,0.63,0.24,0.82l1.4,3.83L142.71,32.58z"/>
			<path class="st0" d="M145.72,36.03l1.12,0.11c0.58,0.05,1.18-0.13,1.62-0.52h0.03l-0.4,1.16h-3.67v-0.03
				c0.45-0.16,0.4-0.81,0.4-1.2v-3.32c0-0.41,0.05-1.05-0.4-1.21v-0.03h2.82c0.15,0,0.3,0.02,0.41-0.04h0.03v1.03h-0.03
				c-0.28-0.32-0.64-0.36-1.04-0.36c-0.31,0-0.62,0.01-0.9,0.06v1.64h1.04c0.14,0,0.28,0,0.39-0.05h0.02v0.94h-0.02
				c-0.14-0.25-0.51-0.25-0.78-0.25h-0.65V36.03z"/>
			<path class="st0" d="M150.99,30.98c1.18,0,1.82,0.62,1.82,1.42c0,0.77-0.68,1.39-1.4,1.55l1.27,1.6
				c0.37,0.46,0.92,0.91,1.42,1.23h-0.81c-0.47,0-0.76-0.12-1.02-0.44L151.2,35l-0.81-1.24c0.7-0.11,1.52-0.43,1.52-1.26
				c0-0.63-0.55-1-1.13-0.97c-0.21,0.01-0.4,0.03-0.6,0.07v3.95c0,0.4-0.06,1.04,0.39,1.2v0.03h-1.68v-0.03
				c0.45-0.16,0.38-0.81,0.38-1.2v-3.32c0-0.41,0.07-1.05-0.38-1.21v-0.03H150.99z"/>
			<path class="st0" d="M157.35,32.03c-0.35-0.35-0.89-0.55-1.39-0.55c-0.5,0-1.13,0.19-1.13,0.8c0,1.21,3.03,1.19,3.03,2.82
				c0,0.94-0.99,1.82-2.36,1.82c-0.54,0-1.08-0.08-1.58-0.26l-0.26-1.1c0.52,0.45,1.24,0.73,1.93,0.73c0.5,0,1.26-0.3,1.26-0.92
				c0-1.37-3.03-1.13-3.03-2.99c0-1.11,1.14-1.53,2.21-1.53c0.45,0,0.89,0.06,1.32,0.19V32.03z"/>
			<path class="st0" d="M158.9,32.23c0-0.41,0.07-1.05-0.39-1.21v-0.03h1.67v0.03c-0.44,0.16-0.38,0.82-0.38,1.21v3.32
				c0,0.39-0.06,1.04,0.38,1.2v0.03h-1.67v-0.03c0.44-0.16,0.39-0.81,0.39-1.2V32.23z"/>
			<path class="st0" d="M163.33,35.63c0,0.51-0.01,0.85,0.46,1.12v0.03h-1.75v-0.03c0.44-0.17,0.39-0.81,0.39-1.2v-3.93h-0.77
				c-0.38,0-0.77,0.1-1.05,0.36h-0.03l0.31-1.05h0.03c0.1,0.05,0.22,0.05,0.33,0.06h0.22h3.28c0.15,0,0.29-0.01,0.41-0.06h0.02
				l-0.28,1.05h-0.03c-0.11-0.31-0.47-0.36-0.76-0.36h-0.8V35.63z"/>
			<path class="st0" d="M167.87,35.63c0,0.53,0,0.79,0.45,1.12v0.03h-1.72v-0.03c0.43-0.22,0.37-0.79,0.37-1.2v-1.31l-1.46-2.35
				c-0.24-0.39-0.41-0.68-0.84-0.91h0.8c0.28,0,0.54,0.06,0.66,0.25l1.41,2.3l1.09-1.64c0.15-0.22,0.36-0.64-0.14-0.88v-0.03h1.54
				l-2.16,3.26V35.63z"/>
		</g>
	</g>
	<g>
		<g>
			<g>
				<path class="st0" d="M115.68,11.23h-1.85v-4.5h-2.23v11.66c-0.76,0.82-2.05,0.77-2.05,0.77h-6.25c-0.09,0-0.16-0.08-0.16-0.17
					l0-9.11h6.7v-1.8l-8.93,0l0,10.91c0,1.08,0.88,1.95,1.96,1.95h6.63c0,0,1.09,0.1,2.1-0.47v6.27h2.23V13.03h1.85v13.71h2.22v-20
					h-2.22V11.23z"/>
			</g>
		</g>
		<g>
			<polygon class="st0" points="49.25,20.03 57.69,20.03 57.69,26.74 59.92,26.74 59.92,20.03 68.33,20.03 68.33,18.23 49.25,18.23 
							"/>
			<path class="st0" d="M53.48,16.4H64.1c1.09,0,1.96-0.88,1.96-1.96l0-7.53h-2.22l0,3.05h-10.1V6.91h-2.23l0,7.53
				C51.52,15.52,52.39,16.4,53.48,16.4z M63.84,11.75l0,2.69c0,0.09-0.07,0.17-0.16,0.17h-9.77c-0.09,0-0.16-0.07-0.16-0.17l0-2.69
				H63.84z"/>
		</g>
		<g>
			<polygon class="st0" points="91.37,6.73 89.14,6.73 89.14,21.25 91.37,21.25 91.37,13.03 94.32,13.03 94.32,11.23 91.37,11.23 
							"/>
			<path class="st0" d="M79.89,24.51l0-5.39h-2.22l0,5.39c0,1.08,0.88,1.96,1.96,1.96h11.75v-1.79H80.06
				C79.96,24.67,79.89,24.6,79.89,24.51z"/>
			<g>
				<path class="st0" d="M81.42,9.12V7.18h-2.22v1.94c0,5.75-5.5,6.93-5.88,7l1.5,1.5c1.33-0.41,4.17-1.56,5.49-4.07
					c1.32,2.5,4.15,3.65,5.48,4.07l1.5-1.5C86.82,16.03,81.42,14.82,81.42,9.12z"/>
			</g>
		</g>
		<g>
			<g>
				<polygon class="st0" points="162.31,15.26 160.11,15.26 160.11,23.03 157.43,23.03 157.43,15.26 155.23,15.26 155.23,23.03 
					150.55,23.03 150.55,24.81 169.15,24.81 169.15,23.03 162.31,23.03 				"/>
				<path class="st0" d="M165.01,15.54c0,3.16-0.78,4.98-0.78,4.98h2.22c0,0,0.77-1.83,0.77-4.98V7.66h-0.01v0h-14.71v1.77h12.5
					V15.54z"/>
			</g>
		</g>
		<g>
			<polygon class="st0" points="142.28,11.23 142.28,6.74 140.04,6.74 140.04,18.52 142.28,18.52 142.28,13.03 145.24,13.03 
				145.24,11.23 			"/>
			<polygon class="st0" points="142.27,19.41 128.18,19.41 128.18,21.21 140.04,21.21 140.04,26.74 142.28,26.74 142.28,19.42 
				142.27,19.42 			"/>
			<path class="st0" d="M136.64,13.15c0-1.06-0.4-2.03-1.07-2.8h2.75V8.54h-5.64V6.29h-2.23v2.24h-5.63v1.81h2.74
				c-0.67,0.77-1.07,1.74-1.07,2.8c0,2.53,2.28,4.58,5.08,4.58S136.64,15.68,136.64,13.15z M128.73,13.13
				c0-1.54,1.27-2.78,2.83-2.78c1.56,0,2.83,1.25,2.83,2.78c0,1.53-1.27,2.78-2.83,2.78C129.99,15.92,128.73,14.67,128.73,13.13z"/>
		</g>
	</g>
</g>
</svg>
